<svg xmlns="http://www.w3.org/2000/svg" version="1.1" xmlns:xlink="http://www.w3.org/1999/xlink" width="512" height="512" x="0" y="0" viewBox="0 0 32 32" style="enable-background:new 0 0 512 512" xml:space="preserve" class=""><g><path d="M26.6 9.9C25.2 5.2 20.9 2 16 2S6.8 5.2 5.4 9.9c-.5 1.8-.5 3.7-.1 5.6C6 17.8 8 21.8 13.2 28c.2.3.5.6.7.8.3.4.7.7 1.1 1 .6.3 1.3.3 1.9 0 .4-.3.8-.6 1.1-1 .2-.3.5-.6.7-.8 5.2-6.1 7.2-10.2 7.8-12.5.6-1.9.6-3.8.1-5.6zM21 13c0 2.8-2.2 5-5 5s-5-2.2-5-5 2.2-5 5-5 5 2.2 5 5z" fill="#ffffff" opacity="1" data-original="#000000"></path></g></svg>