<?xml version="1.0" encoding="utf-8"?>
<!-- Generator: Adobe Illustrator 24.0.1, SVG Export Plug-In . SVG Version: 6.00 Build 0)  -->
<svg version="1.1" id="Capa_1" xmlns="http://www.w3.org/2000/svg" xmlns:xlink="http://www.w3.org/1999/xlink" x="0px" y="0px"
	 viewBox="0 0 500 500" style="enable-background:new 0 0 500 500;" xml:space="preserve">
<style type="text/css">
	.st0{fill:#FFFCF9;}
	.st1{fill:none;stroke:#FFA5CE;stroke-width:6;}
	.st2{fill:#FFA5CE;}
	.st3{clip-path:url(#SVGID_2_);}
	.st4{fill:#D8B4F8;}
	.st5{clip-path:url(#SVGID_4_);}
	.st6{fill:#CAEDFF;}
	.st7{clip-path:url(#SVGID_6_);}
	.st8{clip-path:url(#SVGID_8_);}
</style>
<g>
	<g>
		<g>
			<g>
				<path class="st0" d="M267.6,13.9c10.9,8.6,25.6,10.9,38.6,6.1c12.3-4.6,26.2-0.1,33.5,10.9c7.7,11.6,20.9,18.3,34.8,17.8
					c13.1-0.5,24.9,8,28.5,20.7c3.8,13.4,14.3,23.9,27.7,27.7c12.7,3.6,21.2,15.3,20.7,28.5c-0.6,13.9,6.2,27.1,17.8,34.8
					c10.9,7.3,15.4,21.1,10.9,33.5c-4.8,13.1-2.5,27.7,6.1,38.6c8.1,10.3,8.1,24.9,0,35.2c-8.6,10.9-10.9,25.6-6.1,38.6
					c4.6,12.3,0.1,26.2-10.9,33.5c-11.6,7.7-18.3,20.9-17.8,34.8c0.5,13.1-8,24.9-20.7,28.5c-13.4,3.8-23.9,14.3-27.7,27.7
					c-3.6,12.7-15.3,21.2-28.5,20.7c-13.9-0.6-27.1,6.2-34.8,17.8c-7.3,10.9-21.1,15.4-33.5,10.9c-13.1-4.8-27.7-2.5-38.6,6.1
					c-10.3,8.1-24.9,8.1-35.2,0c-10.9-8.6-25.6-10.9-38.6-6.1c-12.3,4.6-26.2,0.1-33.5-10.9c-7.7-11.6-20.9-18.3-34.8-17.8
					c-13.1,0.5-24.9-8-28.5-20.7c-3.8-13.4-14.3-23.9-27.7-27.7c-12.7-3.6-21.2-15.3-20.7-28.5c0.6-13.9-6.2-27.1-17.8-34.8
					c-10.9-7.3-15.4-21.1-10.9-33.5c4.8-13.1,2.5-27.7-6.1-38.6c-8.1-10.3-8.1-24.9,0-35.2c8.6-10.9,10.9-25.6,6.1-38.6
					c-4.6-12.3-0.1-26.2,10.9-33.5c11.6-7.7,18.3-20.9,17.8-34.8c-0.5-13.1,8-24.9,20.7-28.5C82.7,93.2,93.2,82.7,97,69.3
					c3.6-12.7,15.3-21.2,28.5-20.7c13.9,0.6,27.1-6.2,34.8-17.8c7.3-10.9,21.1-15.4,33.5-10.9c13.1,4.8,27.7,2.5,38.6-6.1
					C242.7,5.7,257.3,5.7,267.6,13.9z"/>
			</g>
		</g>
	</g>
</g>
<g>
	<g>
		<g>
			<g>
				<path class="st1" d="M267.6,13.9c10.9,8.6,25.6,10.9,38.6,6.1c12.3-4.6,26.2-0.1,33.5,10.9c7.7,11.6,20.9,18.3,34.8,17.8
					c13.1-0.5,24.9,8,28.5,20.7c3.8,13.4,14.3,23.9,27.7,27.7c12.7,3.6,21.2,15.3,20.7,28.5c-0.6,13.9,6.2,27.1,17.8,34.8
					c10.9,7.3,15.4,21.1,10.9,33.5c-4.8,13.1-2.5,27.7,6.1,38.6c8.1,10.3,8.1,24.9,0,35.2c-8.6,10.9-10.9,25.6-6.1,38.6
					c4.6,12.3,0.1,26.2-10.9,33.5c-11.6,7.7-18.3,20.9-17.8,34.8c0.5,13.1-8,24.9-20.7,28.5c-13.4,3.8-23.9,14.3-27.7,27.7
					c-3.6,12.7-15.3,21.2-28.5,20.7c-13.9-0.6-27.1,6.2-34.8,17.8c-7.3,10.9-21.1,15.4-33.5,10.9c-13.1-4.8-27.7-2.5-38.6,6.1
					c-10.3,8.1-24.9,8.1-35.2,0c-10.9-8.6-25.6-10.9-38.6-6.1c-12.3,4.6-26.2,0.1-33.5-10.9c-7.7-11.6-20.9-18.3-34.8-17.8
					c-13.1,0.5-24.9-8-28.5-20.7c-3.8-13.4-14.3-23.9-27.7-27.7c-12.7-3.6-21.2-15.3-20.7-28.5c0.6-13.9-6.2-27.1-17.8-34.8
					c-10.9-7.3-15.4-21.1-10.9-33.5c4.8-13.1,2.5-27.7-6.1-38.6c-8.1-10.3-8.1-24.9,0-35.2c8.6-10.9,10.9-25.6,6.1-38.6
					c-4.6-12.3-0.1-26.2,10.9-33.5c11.6-7.7,18.3-20.9,17.8-34.8c-0.5-13.1,8-24.9,20.7-28.5C82.7,93.2,93.2,82.7,97,69.3
					c3.6-12.7,15.3-21.2,28.5-20.7c13.9,0.6,27.1-6.2,34.8-17.8c7.3-10.9,21.1-15.4,33.5-10.9c13.1,4.8,27.7,2.5,38.6-6.1
					C242.7,5.7,257.3,5.7,267.6,13.9z"/>
			</g>
		</g>
	</g>
</g>
<g>
	<g transform="translate(56.822614, 248.121845)">
		<g>
			<path class="st2" d="M192.7,33.3c2.3,1.4,3.3,3.2,2.9,5.4c-0.3,2.2-2.5,3.3-6.4,3.3h-76.4c-1.8,0-2.8-0.9-2.9-2.6
				c-0.1-1.7,0.4-3.3,1.6-4.7c4.6-4.6,7-9,7.2-13.3c0.2-4.3-0.6-9.6-2.4-16.1c-1.2-4.6-2.7-9.7-4.7-15.2c-2-5.5-4.3-10.8-7.1-15.7
				c-2.8-5-5.9-9-9.3-12.1c-3.5-3.1-7.4-4.3-11.8-3.6c0,6.2,0.2,13.1,0.7,20.8c0.5,7.6,1.2,15.1,2.1,22.5c0.9,7.4,2.3,13.9,4.1,19.5
				c1.8,5.6,4.3,9.6,7.3,11.9c1.8,1.4,2.7,3.2,2.4,5.4c-0.2,2.2-2.2,3.3-5.9,3.3H22.4c-1.6,0-2.7-0.9-3.1-2.6
				c-0.5-1.7,0.1-3.3,1.8-4.7c6-4.6,9.8-9,11.6-13.3c1.7-4.3,2.6-9.6,2.6-16.1v-103c0-6.2-0.9-11.6-2.6-16.1
				c-1.7-4.5-5.6-8.9-11.6-13.3c-1.6-1.4-2.2-2.9-1.8-4.5c0.5-1.6,1.5-2.4,3.1-2.4h71.9c3.7,0,5.7,1,5.9,3.1
				c0.2,2.1-0.6,3.8-2.4,5.2c-3.9,3-6.9,8.6-8.8,16.9s-3.3,17.5-4,27.6c-0.7,10.1-1.1,19.4-1.4,27.6c3.2-2.8,6.6-7.3,10.2-13.5
				c3.6-6.2,7.5-13.1,11.9-20.7c4.4-7.6,9.4-14.9,15-21.9c5.6-7,12-12.8,19-17.4c7-4.6,15-6.9,24-6.9c6.7,0,11.5,2.2,14.5,6.6
				c3,4.4,4.4,9.6,4.1,15.5c-0.2,6-1.8,11.4-4.7,16.3c-2.9,4.8-6.7,7.8-11.6,8.8c-4.8,1-10.5-1.3-16.9-7.1c-4.6-4.2-9.2-5.5-13.6-4
				c-4.5,1.5-8.9,4.7-13.3,9.5c-4.4,4.8-8.7,10.3-13,16.4c-4.3,6.1-8.5,11.8-12.6,17.1c9.9-1.6,18.3-0.5,25.2,3.4
				c6.9,3.9,13,9.5,18.1,16.6c5.2,7.1,10.2,15,15,23.5c4.8,8.5,10.2,16.7,16.2,24.7C177.3,21.4,184.4,28,192.7,33.3z"/>
		</g>
	</g>
</g>
<g>
	<g transform="translate(191.627575, 336.43203)">
		<g>
			<path class="st2" d="M226.6,4.4c0.7-3,2-4.8,3.8-5.4c1.8-0.6,3.5-0.2,5,1c1.5,1.3,2,3.2,1.6,5.7c-1.4,12.4-5.9,23.6-13.7,33.5
				c-7.7,9.9-17.4,17.7-29,23.5c-11.6,5.8-24.1,8.6-37.5,8.6c-12.7,0-24.6-2.3-35.9-6.9c-11.3-4.6-21.2-10.9-29.7-19
				c-8.5-8.1-15.2-17.4-20-28c-4.8-10.6-7.3-22-7.3-34.2s2.4-23.6,7.3-34.2c4.8-10.6,11.5-19.9,20-27.8c8.5-7.9,18.4-14.2,29.7-18.8
				c11.3-4.6,23.3-6.9,35.9-6.9c11.3,0,22.2,2.2,32.8,6.6c10.6,4.4,19.5,10.2,26.8,17.5c7.3,7.3,11.8,15.3,13.7,24.2
				c1.8,8.9-0.3,17.8-6.6,26.8c-3.7,5.1-8.7,9.5-15,13.3c-6.3,3.8-13,6.6-19.9,8.3c-6.9,1.7-13.3,2.1-19.2,1
				c-5.9-1-10.1-3.8-12.8-8.3c-2.7-4.5-2.8-11-0.5-19.5c4.1-15.2,5.7-27,4.6-35.4c-1-8.4-3.8-14-8.3-16.9c-4.5-2.9-10-3.4-16.4-1.6
				c-6.7,1.8-11.9,6.8-15.6,15c-3.7,8.2-5.5,18.1-5.5,29.9c0,11.7,2.1,24.2,6.2,37.3c3.9,12.2,9.7,21.7,17.4,28.5
				c7.7,6.8,16.1,11.3,25.2,13.5c9.1,2.2,18,2.3,26.8,0.3c8.8-2,16.4-5.6,23-11C220.2,19.5,224.5,12.6,226.6,4.4z"/>
		</g>
	</g>
</g>
<g>
	<defs>
		<rect id="SVGID_1_" x="306.1" y="81.8" width="72" height="72"/>
	</defs>
	<clipPath id="SVGID_2_">
		<use xlink:href="#SVGID_1_"  style="overflow:visible;"/>
	</clipPath>
	<g class="st3">
		<path class="st4" d="M377.8,117.7c-30.7,2.8-33,5.1-35.8,35.8c-2.8-30.7-5.1-33-35.8-35.8c30.7-2.8,33-5.1,35.8-35.8
			C344.8,112.6,347.1,114.9,377.8,117.7z"/>
	</g>
</g>
<g>
	<defs>
		<rect id="SVGID_3_" x="129.9" y="338.7" width="70" height="70"/>
	</defs>
	<clipPath id="SVGID_4_">
		<use xlink:href="#SVGID_3_"  style="overflow:visible;"/>
	</clipPath>
	<g class="st5">
		<path class="st6" d="M199.8,373.6c-30,2.8-32.2,5-35,35c-2.8-30-5-32.2-35-35c30-2.8,32.2-5,35-35
			C167.6,368.6,169.8,370.9,199.8,373.6z"/>
	</g>
</g>
<g>
	<defs>
		<rect id="SVGID_5_" x="271.6" y="63.2" width="37" height="37"/>
	</defs>
	<clipPath id="SVGID_6_">
		<use xlink:href="#SVGID_5_"  style="overflow:visible;"/>
	</clipPath>
	<g class="st7">
		<path class="st6" d="M309,81.8c-16,1.5-17.2,2.7-18.7,18.7c-1.5-16-2.7-17.2-18.7-18.7c16-1.5,17.2-2.7,18.7-18.7
			C291.8,79.2,293,80.4,309,81.8z"/>
	</g>
</g>
<g>
	<defs>
		<rect id="SVGID_7_" x="180.7" y="389.5" width="38" height="38"/>
	</defs>
	<clipPath id="SVGID_8_">
		<use xlink:href="#SVGID_7_"  style="overflow:visible;"/>
	</clipPath>
	<g class="st8">
		<path class="st4" d="M218.8,408.6c-16.3,1.5-17.6,2.7-19.1,19.1c-1.5-16.3-2.7-17.6-19.1-19.1c16.3-1.5,17.6-2.7,19.1-19.1
			C201.3,405.8,202.5,407.1,218.8,408.6z"/>
	</g>
</g>
</svg>
