<svg width="276" height="80" viewBox="0 0 276 80" fill="none" xmlns="http://www.w3.org/2000/svg">
<path d="M28.674 52.4199C29.0539 52.6641 29.2158 52.9786 29.1567 53.37C29.1006 53.7581 28.7487 53.9521 28.101 53.9521H15.4891C15.1871 53.9521 15.0252 53.7982 15.0065 53.4905C14.9878 53.186 15.0719 52.9084 15.2618 52.6641C16.0216 51.8445 16.4234 51.0583 16.4607 50.3022C16.4981 49.5462 16.3642 48.5961 16.0621 47.4519C15.8722 46.6356 15.6137 45.7357 15.2898 44.7555C14.966 43.7752 14.5767 42.8452 14.1221 41.9654C13.6643 41.0855 13.1505 40.3729 12.5806 39.8209C12.0108 39.2689 11.3631 39.0548 10.6406 39.1752C10.6406 40.2792 10.678 41.507 10.7527 42.8552C10.8306 44.2035 10.9458 45.5316 11.0952 46.8397C11.2478 48.1478 11.4783 49.3019 11.7803 50.3022C12.0855 51.3059 12.4841 52.0084 12.9792 52.4199C13.2844 52.6641 13.4183 52.9786 13.3778 53.37C13.3405 53.7581 13.0166 53.9521 12.4094 53.9521H0.538661C0.273967 53.9521 0.102695 53.7982 0.0248444 53.4905C-0.0498925 53.186 0.0435286 52.9084 0.311336 52.6641C1.3016 51.8445 1.93686 51.0583 2.22335 50.3022C2.50673 49.5462 2.64998 48.5961 2.64998 47.4519V29.1824C2.64998 28.0784 2.50673 27.1282 2.22335 26.332C1.93686 25.5358 1.3016 24.7496 0.311336 23.9735C0.0435286 23.7259 -0.0498925 23.4616 0.0248444 23.1739C0.102695 22.8896 0.273967 22.7457 0.538661 22.7457H12.4094C13.0166 22.7457 13.3405 22.9297 13.3778 23.2977C13.4183 23.6657 13.2844 23.9735 12.9792 24.2177C12.3315 24.7496 11.8488 25.7499 11.525 27.2219C11.2011 28.6939 10.9831 30.3265 10.8679 32.1264C10.7527 33.9229 10.678 35.5588 10.6406 37.0308C11.1731 36.539 11.7336 35.7428 12.3222 34.6388C12.9138 33.5348 13.5678 32.3104 14.2934 30.9621C15.0158 29.6139 15.841 28.3159 16.7752 27.068C17.7063 25.8202 18.7527 24.7898 19.9142 23.9735C21.0726 23.1538 22.3961 22.7457 23.8784 22.7457C24.9807 22.7457 25.781 23.1338 26.2762 23.9099C26.7713 24.6861 26.9986 25.6061 26.9613 26.6699C26.9239 27.7338 26.6654 28.6939 26.189 29.5504C25.7156 30.4101 25.0773 30.932 24.277 31.116C23.4798 31.3 22.5487 30.8785 21.4837 29.8581C20.7207 29.1221 19.9702 28.888 19.2291 29.1523C18.4848 29.4199 17.7531 29.9819 17.0306 30.8384C16.3081 31.6981 15.595 32.6683 14.8913 33.7523C14.1875 34.8328 13.4931 35.8465 12.808 36.7866C14.4428 36.4989 15.8317 36.703 16.9745 37.3988C18.1143 38.0947 19.1139 39.0749 19.9702 40.3395C20.8266 41.6074 21.6549 42.9991 22.4521 44.5112C23.2524 46.0234 24.1462 47.482 25.1333 48.8938C26.1236 50.3022 27.3038 51.4798 28.674 52.4199Z" fill="#101010"/>
<path d="M51.9534 52.6641C52.2585 52.9083 52.3737 53.186 52.2959 53.4905C52.2212 53.7982 52.0312 53.9521 51.726 53.9521H45.9059C44.8783 53.9521 44.0499 53.7046 43.424 53.2161C42.795 52.7243 42.3403 52.2359 42.0538 51.7441C41.7673 51.2523 41.6272 51.0081 41.6272 51.0081C41.0169 51.9081 40.2197 52.624 39.2294 53.1526C38.2391 53.6845 37.1741 53.9521 36.0344 53.9521C34.7794 53.9521 33.6179 53.6243 32.5529 52.9686C31.4879 52.3162 30.6409 51.4363 30.0119 50.3323C29.3859 49.2317 29.0714 48.024 29.0714 46.7159C29.0714 45.3677 29.3859 44.1533 30.0119 43.0693C30.6409 41.9854 31.4879 41.1189 32.5529 40.4632C33.6179 39.8109 34.7794 39.483 36.0344 39.483C37.1741 39.483 38.2391 39.7473 39.2294 40.2792C40.2197 40.8112 41.0169 41.5271 41.6272 42.427V40.587C41.6272 39.3994 41.4933 38.2251 41.2255 37.0609C40.9608 35.8967 40.5809 34.9265 40.0858 34.1504C39.5906 33.3742 39.0021 32.9828 38.317 32.9828C37.8966 32.9828 37.6786 33.2906 37.6599 33.9028C37.6412 34.5184 37.8032 35.2309 38.1457 36.0506C38.373 36.6628 38.2765 37.1847 37.8592 37.6129C37.4419 38.0411 36.8503 38.369 36.0904 38.5931C35.3306 38.8173 34.5397 38.9109 33.7207 38.8708C32.9048 38.8273 32.2104 38.6333 31.6405 38.2887C31.0675 37.9408 30.7841 37.4189 30.7841 36.723C30.7841 35.4149 31.4786 34.1805 32.8674 33.0162C34.2563 31.8487 36.2617 31.2666 38.8869 31.2666C40.9421 31.2666 42.7763 31.7383 44.3925 32.6784C46.0087 33.6184 47.2854 34.9265 48.2165 36.6026C49.1476 38.2787 49.6147 40.219 49.6147 42.427V47.4519C49.6147 48.596 49.758 49.5462 50.0413 50.3022C50.3278 51.0583 50.9662 51.8445 51.9534 52.6641ZM38.5443 50.6401C39.3446 50.6401 40.0172 50.252 40.5715 49.4759C41.1227 48.6998 41.3968 47.7798 41.3968 46.7159C41.3968 45.6554 41.1227 44.7354 40.5715 43.9592C40.0172 43.1831 39.3446 42.7917 38.5443 42.7917C37.7845 42.7917 37.1274 43.1831 36.5762 43.9592C36.0251 44.7354 35.7479 45.6554 35.7479 46.7159C35.7479 47.7798 36.0251 48.6998 36.5762 49.4759C37.1274 50.252 37.7845 50.6401 38.5443 50.6401Z" fill="#101010"/>
<path d="M64.1101 53.9521H52.9805C52.7158 53.9521 52.5445 53.7982 52.4667 53.4905C52.3919 53.186 52.4854 52.9084 52.7532 52.6641C53.7434 51.8445 54.3787 51.0583 54.6652 50.3022C54.9486 49.5462 55.0918 48.5961 55.0918 47.4519V42.3032C55.0918 41.1591 54.9486 40.199 54.6652 39.4228C54.3787 38.6433 53.7434 37.8471 52.7532 37.0308C52.4854 36.7866 52.3919 36.5189 52.4667 36.2346C52.5445 35.9469 52.7158 35.803 52.9805 35.803C54.3507 35.803 55.5402 35.5989 56.5492 35.1908C57.555 34.7827 58.4394 34.3009 59.2023 33.7523C59.9622 33.2003 60.6379 32.6884 61.2265 32.2167C61.8181 31.7483 62.3787 31.4506 62.9112 31.3301C63.5184 31.2064 63.7769 31.3301 63.6803 31.6981C63.5869 32.0661 63.4997 32.4542 63.425 32.8624C62.662 38.2987 62.416 42.7014 62.6838 46.0736C62.9485 49.4458 63.6149 51.5601 64.6799 52.4199C64.9851 52.6641 65.1159 52.9786 65.0785 53.37C65.0412 53.7581 64.7173 53.9521 64.1101 53.9521ZM56.6893 31.6981C55.5496 31.6981 54.6558 31.2565 54.0081 30.38C53.3604 29.5002 53.1705 28.4464 53.4383 27.2219C53.703 25.954 54.332 24.8935 55.3222 24.0337C56.3094 23.1739 57.3931 22.7457 58.5733 22.7457C59.7162 22.7457 60.6099 23.1739 61.2545 24.0337C61.9022 24.8935 62.0922 25.954 61.8275 27.2219C61.5597 28.4464 60.9337 29.5002 59.9435 30.38C58.9532 31.2565 57.8695 31.6981 56.6893 31.6981Z" fill="#101010"/>
<path d="M87.6202 52.4199C88.0374 52.7043 88.3052 53.0321 88.4173 53.4001C88.5326 53.7681 88.2866 53.9521 87.6762 53.9521H75.8647C75.5969 53.9521 75.3602 53.7982 75.1516 53.4905C74.9429 53.186 74.9336 52.9083 75.1235 52.6641C75.656 52.0921 75.846 51.4062 75.6934 50.61C75.5408 49.8138 75.2356 48.9038 74.781 47.8801C74.591 47.3515 74.3886 46.8497 74.18 46.378C73.9713 45.9096 73.772 45.4714 73.5821 45.0632C73.2395 46.4516 73.0216 47.86 72.925 49.2919C72.8316 50.7238 73.1056 51.8445 73.7534 52.6641C73.9433 52.9083 73.9807 53.186 73.8655 53.4905C73.7534 53.7982 73.5042 53.9521 73.1243 53.9521H66.9616C66.6191 53.9521 66.4758 53.7982 66.535 53.4905C66.5911 53.186 66.809 52.9083 67.189 52.6641C68.254 52.0519 69.0262 51.3159 69.5027 50.4561C69.976 49.5997 70.4244 48.596 70.8417 47.4519L72.5544 42.6712C71.5642 40.3829 70.6891 38.5831 69.9293 37.275C69.1695 35.9669 68.4937 34.9767 67.9021 34.3009C67.3135 33.6285 66.7343 33.1266 66.1644 32.7988C65.7814 32.5546 65.5261 32.2401 65.3922 31.8487C65.2583 31.4606 65.498 31.2666 66.1053 31.2666H77.8608C78.1659 31.2666 78.4213 31.4104 78.633 31.6981C78.8417 31.9825 78.851 32.2702 78.6611 32.5546C78.2812 33.0865 78.2407 34.0868 78.5459 35.5588C78.851 37.0308 79.3648 38.6667 80.0873 40.4632C80.5046 39.0347 80.763 37.5527 80.8565 36.0205C80.953 34.4849 80.6572 33.3307 79.9721 32.5546C79.7821 32.3104 79.7541 32.0327 79.888 31.7282C80.0188 31.4205 80.2773 31.2666 80.6572 31.2666H86.8198C87.1624 31.2666 87.3056 31.4205 87.2496 31.7282C87.1904 32.0327 86.9724 32.3104 86.5925 32.5546C85.5275 33.1668 84.7552 33.9028 84.2819 34.7626C83.8055 35.619 83.3602 36.6226 82.9398 37.7668L81.1149 42.7917C82.1021 44.9194 83.1982 46.8999 84.394 48.7399C85.5929 50.5799 86.6673 51.8043 87.6202 52.4199Z" fill="#101010"/>
<path d="M111.243 52.6641C111.548 52.9083 111.663 53.186 111.585 53.4905C111.511 53.7982 111.321 53.9521 111.016 53.9521H105.195C104.168 53.9521 103.339 53.7046 102.713 53.2161C102.084 52.7243 101.63 52.2359 101.343 51.7441C101.057 51.2523 100.917 51.0081 100.917 51.0081C100.306 51.9081 99.5092 52.624 98.5189 53.1526C97.5286 53.6845 96.4636 53.9521 95.3239 53.9521C94.0689 53.9521 92.9074 53.6243 91.8424 52.9686C90.7774 52.3162 89.9304 51.4363 89.3013 50.3323C88.6754 49.2317 88.3609 48.024 88.3609 46.7159C88.3609 45.3677 88.6754 44.1533 89.3013 43.0693C89.9304 41.9854 90.7774 41.1189 91.8424 40.4632C92.9074 39.8109 94.0689 39.483 95.3239 39.483C96.4636 39.483 97.5286 39.7473 98.5189 40.2792C99.5092 40.8112 100.306 41.5271 100.917 42.427V40.587C100.917 39.3994 100.783 38.2251 100.515 37.0609C100.25 35.8967 99.8704 34.9265 99.3752 34.1504C98.8801 33.3742 98.2916 32.9828 97.6065 32.9828C97.1861 32.9828 96.9681 33.2906 96.9494 33.9028C96.9307 34.5184 97.0927 35.2309 97.4352 36.0506C97.6625 36.6628 97.566 37.1847 97.1487 37.6129C96.7314 38.0411 96.1398 38.369 95.3799 38.5931C94.6201 38.8173 93.8291 38.9109 93.0102 38.8708C92.1943 38.8273 91.4998 38.6333 90.93 38.2887C90.357 37.9408 90.0736 37.4189 90.0736 36.723C90.0736 35.4149 90.7681 34.1805 92.1569 33.0162C93.5458 31.8487 95.5512 31.2666 98.1763 31.2666C100.232 31.2666 102.066 31.7383 103.682 32.6784C105.298 33.6184 106.575 34.9265 107.506 36.6026C108.437 38.2787 108.904 40.219 108.904 42.427V47.4519C108.904 48.596 109.047 49.5462 109.331 50.3022C109.617 51.0583 110.256 51.8445 111.243 52.6641ZM97.8338 50.6401C98.6341 50.6401 99.3067 50.252 99.861 49.4759C100.412 48.6998 100.686 47.7798 100.686 46.7159C100.686 45.6554 100.412 44.7354 99.861 43.9592C99.3067 43.1831 98.6341 42.7917 97.8338 42.7917C97.074 42.7917 96.4169 43.1831 95.8657 43.9592C95.3145 44.7354 95.0374 45.6554 95.0374 46.7159C95.0374 47.7798 95.3145 48.6998 95.8657 49.4759C96.4169 50.252 97.074 50.6401 97.8338 50.6401Z" fill="#101010"/>
<path d="M147.023 42.059C147.138 41.5271 147.347 41.2093 147.652 41.1089C147.954 41.0052 148.231 41.0654 148.477 41.2929C148.726 41.5171 148.81 41.8516 148.735 42.3032C148.508 44.5112 147.755 46.4918 146.481 48.2481C145.207 50.0078 143.61 51.3962 141.688 52.4199C139.767 53.4403 137.702 53.9521 135.495 53.9521C133.405 53.9521 131.425 53.5406 129.562 52.7244C127.697 51.9081 126.062 50.784 124.655 49.3521C123.247 47.9236 122.142 46.2676 121.344 44.3875C120.544 42.5073 120.146 40.4833 120.146 38.3188C120.146 36.1509 120.544 34.1303 121.344 32.2501C122.142 30.37 123.247 28.724 124.655 27.3122C126.062 25.9038 127.697 24.7898 129.562 23.9735C131.425 23.1538 133.405 22.7457 135.495 22.7457C137.36 22.7457 139.166 23.1338 140.916 23.9099C142.666 24.6861 144.142 25.7198 145.341 27.0078C146.537 28.2958 147.291 29.7243 147.593 31.3C147.898 32.8724 147.537 34.4548 146.509 36.0506C145.902 36.9472 145.073 37.7367 144.027 38.4091C142.981 39.0849 141.888 39.5734 140.745 39.8811C139.605 40.1889 138.549 40.2491 137.578 40.0651C136.609 39.8811 135.906 39.3894 135.467 38.5931C135.031 37.7969 135.003 36.6427 135.382 35.1306C136.068 32.4341 136.323 30.3365 136.152 28.8478C135.98 27.3557 135.526 26.3521 134.781 25.8436C134.04 25.3317 133.137 25.2381 132.072 25.5659C130.97 25.8938 130.114 26.7837 129.503 28.2322C128.896 29.6842 128.591 31.4506 128.591 33.5348C128.591 35.619 128.933 37.827 129.618 40.1555C130.266 42.3233 131.225 44.0094 132.499 45.2138C133.776 46.4215 135.165 47.2177 136.665 47.6058C138.17 47.9939 139.642 48.0139 141.087 47.666C142.535 47.3181 143.8 46.6657 144.883 45.7056C145.967 44.7454 146.68 43.5277 147.023 42.059Z" fill="#101010"/>
<path d="M171.674 52.6641C171.979 52.9083 172.094 53.186 172.016 53.4905C171.941 53.7982 171.751 53.9521 171.446 53.9521H165.626C164.598 53.9521 163.77 53.7046 163.144 53.2161C162.515 52.7243 162.061 52.2359 161.774 51.7441C161.488 51.2523 161.347 51.0081 161.347 51.0081C160.737 51.9081 159.94 52.624 158.95 53.1526C157.959 53.6845 156.894 53.9521 155.755 53.9521C154.5 53.9521 153.338 53.6243 152.273 52.9686C151.208 52.3162 150.361 51.4363 149.732 50.3323C149.106 49.2317 148.792 48.024 148.792 46.7159C148.792 45.3677 149.106 44.1533 149.732 43.0693C150.361 41.9854 151.208 41.1189 152.273 40.4632C153.338 39.8109 154.5 39.483 155.755 39.483C156.894 39.483 157.959 39.7473 158.95 40.2792C159.94 40.8112 160.737 41.5271 161.347 42.427V40.587C161.347 39.3994 161.214 38.2251 160.946 37.0609C160.681 35.8967 160.301 34.9265 159.806 34.1504C159.311 33.3742 158.722 32.9828 158.037 32.9828C157.617 32.9828 157.399 33.2906 157.38 33.9028C157.361 34.5184 157.523 35.2309 157.866 36.0506C158.093 36.6628 157.997 37.1847 157.579 37.6129C157.162 38.0411 156.57 38.369 155.811 38.5931C155.051 38.8173 154.26 38.9109 153.441 38.8708C152.625 38.8273 151.931 38.6333 151.361 38.2887C150.788 37.9408 150.504 37.4189 150.504 36.723C150.504 35.4149 151.199 34.1805 152.588 33.0162C153.976 31.8487 155.982 31.2666 158.607 31.2666C160.662 31.2666 162.496 31.7383 164.113 32.6784C165.729 33.6184 167.006 34.9265 167.937 36.6026C168.868 38.2787 169.335 40.219 169.335 42.427V47.4519C169.335 48.596 169.478 49.5462 169.762 50.3022C170.048 51.0583 170.686 51.8445 171.674 52.6641ZM158.265 50.6401C159.065 50.6401 159.737 50.252 160.292 49.4759C160.843 48.6998 161.117 47.7798 161.117 46.7159C161.117 45.6554 160.843 44.7354 160.292 43.9592C159.737 43.1831 159.065 42.7917 158.265 42.7917C157.505 42.7917 156.848 43.1831 156.296 43.9592C155.745 44.7354 155.468 45.6554 155.468 46.7159C155.468 47.7798 155.745 48.6998 156.296 49.4759C156.848 50.252 157.505 50.6401 158.265 50.6401Z" fill="#101010"/>
<path d="M199.864 52.6641C200.17 52.9083 200.282 53.186 200.207 53.4905C200.132 53.7982 199.939 53.9521 199.637 53.9521H188.28C187.673 53.9521 187.358 53.7681 187.34 53.4001C187.321 53.0321 187.442 52.7043 187.71 52.4199C188.433 51.7241 188.956 50.6502 189.28 49.1982C189.604 47.7496 189.753 46.1639 189.734 44.4477C189.716 42.7315 189.535 41.0855 189.193 39.5131C188.85 37.9408 188.395 36.6427 187.822 35.619C187.253 34.5986 186.567 34.0868 185.77 34.0868C185.197 34.0868 184.637 34.4849 184.086 35.2845C183.534 36.0807 183.011 37.0709 182.516 38.2552C182.211 42.1393 182.242 45.2974 182.603 47.7296C182.965 50.1617 183.562 51.7241 184.4 52.4199C184.705 52.6641 184.836 52.9786 184.799 53.37C184.761 53.7581 184.437 53.9521 183.83 53.9521H172.701C172.436 53.9521 172.265 53.7982 172.187 53.4905C172.112 53.186 172.206 52.9083 172.473 52.6641C173.464 51.8445 174.099 51.0583 174.385 50.3022C174.669 49.5462 174.812 48.596 174.812 47.4519V42.3032C174.812 41.1591 174.669 40.1989 174.385 39.4228C174.099 38.6433 173.464 37.8471 172.473 37.0308C172.206 36.7866 172.112 36.5189 172.187 36.2346C172.265 35.9469 172.436 35.803 172.701 35.803C174.071 35.803 175.26 35.5989 176.269 35.1908C177.275 34.7826 178.16 34.3009 178.922 33.7522C179.682 33.2002 180.358 32.6884 180.947 32.2167C181.538 31.7483 182.099 31.4506 182.631 31.3301C183.239 31.2064 183.497 31.3301 183.4 31.6981C183.307 32.0661 183.22 32.4542 183.145 32.8624L182.974 34.1504C183.544 33.3307 184.201 32.6482 184.942 32.0962C185.683 31.5442 186.511 31.2666 187.424 31.2666C189.479 31.2666 191.257 31.8085 192.761 32.8925C194.262 33.9764 195.433 35.435 196.271 37.275C197.105 39.115 197.526 41.1591 197.526 43.4072V47.4519C197.526 48.596 197.666 49.5462 197.952 50.3022C198.239 51.0583 198.874 51.8445 199.864 52.6641Z" fill="#101010"/>
<path d="M225.657 52.6641C225.962 52.9083 226.084 53.186 226.028 53.4904C225.972 53.7982 225.791 53.9521 225.486 53.9521H211.791C209.698 53.9521 207.786 53.4402 206.054 52.4199C204.323 51.3961 202.947 50.0279 201.919 48.3116C200.891 46.5954 200.378 44.6952 200.378 42.6076C200.378 40.5234 200.891 38.6232 201.919 36.907C202.947 35.1907 204.323 33.8225 206.054 32.7987C207.786 31.7784 209.698 31.2665 211.791 31.2665C213.008 31.2665 214.148 31.4505 215.216 31.8185C214.873 30.2261 214.3 29.102 213.503 28.4463C213.198 28.2021 213.083 27.9378 213.161 27.6501C213.235 27.3657 213.407 27.2219 213.674 27.2219C215.045 27.2219 216.24 27.0178 217.268 26.6096C218.296 26.1982 219.199 25.7097 219.98 25.1376C220.759 24.5656 221.463 24.0537 222.092 23.6054C222.718 23.1538 223.3 22.8694 223.832 22.7456C224.44 22.5817 224.708 22.6955 224.63 23.0835C224.555 23.4716 224.477 23.8697 224.402 24.2779C224.135 25.79 223.926 27.088 223.773 28.172C223.621 29.2559 223.509 30.3064 223.431 31.3301C223.356 32.3505 223.319 33.5347 223.319 34.8863V47.4519C223.319 48.596 223.471 49.5461 223.773 50.3022C224.078 51.0583 224.708 51.8444 225.657 52.6641ZM208.48 42.6076C208.48 44.3673 208.633 45.9698 208.938 47.4217C209.24 48.8737 209.642 50.0379 210.137 50.9177C210.629 51.7943 211.183 52.2359 211.791 52.2359C212.398 52.2359 212.943 51.7943 213.416 50.9177C213.892 50.0379 214.282 48.8737 214.587 47.4217C214.892 45.9698 215.045 44.3673 215.045 42.6076C215.045 40.8111 214.892 39.1852 214.587 37.7366C214.282 36.2847 213.892 35.1305 213.416 34.2707C212.943 33.4143 212.398 32.9827 211.791 32.9827C211.183 32.9827 210.629 33.4143 210.137 34.2707C209.642 35.1305 209.24 36.2847 208.938 37.7366C208.633 39.1852 208.48 40.8111 208.48 42.6076Z" fill="#101010"/>
<path d="M238.838 52.4199C239.143 52.6641 239.277 52.9785 239.237 53.37C239.2 53.758 238.857 53.9521 238.212 53.9521H226.912C226.647 53.9521 226.476 53.7982 226.398 53.4904C226.323 53.186 226.416 52.9083 226.684 52.6641C227.674 51.8444 228.31 51.0583 228.596 50.3022C228.88 49.5461 229.023 48.596 229.023 47.4519V33.6585C229.023 32.5144 228.88 31.5542 228.596 30.7781C228.31 30.0019 227.674 29.2258 226.684 28.4463C226.416 28.2021 226.323 27.9378 226.398 27.6501C226.476 27.3657 226.647 27.2219 226.912 27.2219C228.282 27.2219 229.481 27.0178 230.508 26.6096C231.536 26.1982 232.439 25.7097 233.217 25.1376C233.999 24.5656 234.694 24.0537 235.301 23.6054C235.911 23.1538 236.481 22.8694 237.013 22.7456C237.621 22.5817 237.889 22.6955 237.811 23.0835C237.736 23.4716 237.658 23.8697 237.583 24.2779C237.088 27.2219 236.774 30.2462 236.643 33.3507C236.509 36.4587 236.518 39.3793 236.671 42.1192C236.824 44.8558 237.088 47.1474 237.468 48.9841C237.851 50.8241 238.306 51.9682 238.838 52.4199Z" fill="#101010"/>
<path d="M259.383 46.8999C259.685 46.4918 260.009 46.4616 260.351 46.8096C260.694 47.1575 260.772 47.492 260.582 47.8199C259.629 49.6198 258.259 51.0884 256.471 52.2359C254.684 53.3801 252.688 53.9521 250.48 53.9521C248.387 53.9521 246.475 53.4403 244.744 52.4199C243.012 51.3962 241.636 50.0279 240.608 48.3117C239.581 46.5955 239.067 44.6952 239.067 42.6077C239.067 40.5235 239.581 38.6232 240.608 36.907C241.636 35.1908 243.044 33.8225 244.831 32.7988C246.618 31.7784 248.655 31.2666 250.938 31.2666C252.42 31.2666 253.874 31.5944 255.3 32.2501C256.73 32.9025 257.897 33.7824 258.81 34.8864C259.725 35.987 260.18 37.2148 260.18 38.563C260.18 39.8711 259.809 41.0755 259.068 42.1795C258.327 43.2835 257.346 44.1633 256.129 44.8157C254.911 45.4714 253.563 45.7959 252.077 45.7959C251.355 45.7959 250.66 45.7156 249.994 45.5517C249.328 45.3878 248.692 45.1636 248.082 44.8792C248.387 45.8996 248.864 46.8096 249.508 47.6058C250.156 48.402 251.05 48.9841 252.193 49.3521C252.915 49.5562 253.734 49.6097 254.646 49.506C255.559 49.4056 256.443 49.128 257.3 48.6797C258.156 48.228 258.85 47.6359 259.383 46.8999ZM250.651 32.9828C250.193 32.9828 249.614 33.4645 248.91 34.4247C248.207 35.3848 247.855 36.8468 247.855 38.8072C247.855 40.4432 248.151 41.7312 248.739 42.6712C249.328 43.6113 249.966 44.0797 250.651 44.0797C251.411 44.0797 252.04 43.5377 252.535 42.4571C253.03 41.3732 253.276 40.0752 253.276 38.563C253.276 37.0107 253.03 35.6926 252.535 34.6087C252.04 33.5248 251.411 32.9828 250.651 32.9828Z" fill="#101010"/>
<mask id="mask0_409_168" style="mask-type:luminance" maskUnits="userSpaceOnUse" x="8" y="63" width="14" height="15">
<path d="M8.47601 63.5269H21.0318V77.0158H8.47601V63.5269Z" fill="white"/>
</mask>
<g mask="url(#mask0_409_168)">
<path d="M21.0318 70.2714C15.6476 70.8033 15.249 71.2349 14.7539 77.0158C14.2588 71.2349 13.8571 70.8033 8.47601 70.2714C13.8571 69.7394 14.2588 69.3079 14.7539 63.5269C15.249 69.3079 15.6508 69.7394 21.0318 70.2714Z" fill="#101010"/>
</g>
<mask id="mask1_409_168" style="mask-type:luminance" maskUnits="userSpaceOnUse" x="21" y="70" width="10" height="10">
<path d="M21.2063 70.3651H30.1747V80H21.2063V70.3651Z" fill="white"/>
</mask>
<g mask="url(#mask1_409_168)">
<path d="M29.9972 75.0855C26.2292 75.4602 25.949 75.7613 25.6002 79.8093C25.2545 75.7613 24.9743 75.4602 21.2063 75.0855C24.9743 74.7142 25.2545 74.4131 25.6002 70.3651C25.949 74.4131 26.2292 74.7142 29.9972 75.0855Z" fill="#101010"/>
</g>
<mask id="mask2_409_168" style="mask-type:luminance" maskUnits="userSpaceOnUse" x="24" y="0" width="14" height="15">
<path d="M24.3514 0H37.5051V14.1312H24.3514V0Z" fill="white"/>
</mask>
<g mask="url(#mask2_409_168)">
<path d="M37.5051 7.06561C31.8656 7.6243 31.4483 8.07594 30.9283 14.1312C30.4082 8.07594 29.991 7.6243 24.3514 7.06561C29.991 6.51026 30.4082 6.05863 30.9283 0C31.4483 6.05863 31.8687 6.51026 37.5051 7.06561Z" fill="#101010"/>
</g>
<mask id="mask3_409_168" style="mask-type:luminance" maskUnits="userSpaceOnUse" x="198" y="13" width="7" height="8">
<path d="M198.345 13.5056H204.922V20.5712H198.345V13.5056Z" fill="white"/>
</mask>
<g mask="url(#mask3_409_168)">
<path d="M204.922 17.0384C202.104 17.3161 201.895 17.5436 201.634 20.5712C201.375 17.5436 201.166 17.3161 198.345 17.0384C201.166 16.7607 201.375 16.5366 201.634 13.5056C201.895 16.5366 202.107 16.7607 204.922 17.0384Z" fill="#101010"/>
</g>
<mask id="mask4_409_168" style="mask-type:luminance" maskUnits="userSpaceOnUse" x="104" y="6" width="14" height="15">
<path d="M104.335 6.36975H117.489V20.501H104.335V6.36975Z" fill="white"/>
</mask>
<g mask="url(#mask4_409_168)">
<path d="M117.489 13.4354C111.85 13.9907 111.429 14.4457 110.912 20.501C110.392 14.4457 109.972 13.9907 104.335 13.4354C109.972 12.8767 110.392 12.4284 110.912 6.36975C111.429 12.4284 111.853 12.8767 117.489 13.4354Z" fill="#101010"/>
</g>
<mask id="mask5_409_168" style="mask-type:luminance" maskUnits="userSpaceOnUse" x="250" y="65" width="8" height="9">
<path d="M250.138 65.3134H257.312V73.0214H250.138V65.3134Z" fill="white"/>
</mask>
<g mask="url(#mask5_409_168)">
<path d="M257.2 69.1072C254.17 69.4083 253.946 69.6525 253.669 72.9009C253.389 69.6525 253.165 69.4083 250.138 69.1072C253.165 68.8094 253.389 68.5685 253.669 65.3134C253.946 68.5685 254.174 68.8094 257.2 69.1072Z" fill="#101010"/>
</g>
<mask id="mask6_409_168" style="mask-type:luminance" maskUnits="userSpaceOnUse" x="254" y="9" width="10" height="11">
<path d="M254.578 9.57806H263.394V19.213H254.578V9.57806Z" fill="white"/>
</mask>
<g mask="url(#mask6_409_168)">
<path d="M263.323 14.2751C259.573 14.6464 259.293 14.9475 258.95 18.9721C258.605 14.9475 258.325 14.6464 254.578 14.2751C258.325 13.9037 258.605 13.606 258.95 9.57806C259.293 13.606 259.573 13.9037 263.323 14.2751Z" fill="#101010"/>
</g>
<mask id="mask7_409_168" style="mask-type:luminance" maskUnits="userSpaceOnUse" x="260" y="16" width="12" height="12">
<path d="M260.651 16.2489H271.366V27.8108H260.651V16.2489Z" fill="white"/>
</mask>
<g mask="url(#mask7_409_168)">
<path d="M271.338 21.9897C266.757 22.4414 266.415 22.8127 265.994 27.7305C265.574 22.8127 265.231 22.4414 260.651 21.9897C265.231 21.5381 265.574 21.1701 265.994 16.2489C266.415 21.1701 266.76 21.5381 271.338 21.9897Z" fill="#101010"/>
</g>
<mask id="mask8_409_168" style="mask-type:luminance" maskUnits="userSpaceOnUse" x="210" y="67" width="11" height="12">
<path d="M210.259 67.3241H220.424V78.2436H210.259V67.3241Z" fill="white"/>
</mask>
<g mask="url(#mask8_409_168)">
<path d="M220.424 72.7839C216.067 73.2154 215.743 73.5633 215.341 78.2436C214.943 73.5633 214.619 73.2154 210.259 72.7839C214.619 72.3523 214.943 72.0044 215.341 67.3241C215.743 72.0044 216.07 72.3523 220.424 72.7839Z" fill="#101010"/>
</g>
<path d="M56.2127 76.9383C56.1629 76.9383 56.0881 76.9383 55.9916 76.9349C55.8919 76.9282 55.8048 76.9216 55.7362 76.9048C55.6366 76.8814 55.5681 76.8178 55.5338 76.7108C55.3844 76.2859 55.2442 75.7841 55.1072 75.2053C54.9733 74.6266 54.8519 74.0043 54.7429 73.3319C54.6339 72.6628 54.5373 71.9703 54.4564 71.2577C54.3754 70.5418 54.3131 69.8392 54.2695 69.1467C54.2477 69.0095 54.3069 68.9326 54.4501 68.9159C54.5 68.9092 54.5623 68.9025 54.6401 68.8958C54.718 68.8858 54.7833 68.8824 54.8332 68.8824C54.883 68.8824 54.9484 68.8858 55.0356 68.8958C55.1197 68.9025 55.1913 68.9092 55.2473 68.9159C55.3594 68.9326 55.4155 68.9895 55.4155 69.0898C55.4653 70.3678 55.5494 71.4818 55.6677 72.4319C55.783 73.3821 55.9075 74.1047 56.0445 74.5998C56.1566 75.0247 56.2656 75.0247 56.3715 74.5998C56.521 74.098 56.658 73.372 56.7826 72.4253C56.904 71.4785 56.9881 70.3678 57.0317 69.0898C57.0379 68.9895 57.094 68.9326 57.1998 68.9159C57.259 68.9092 57.3306 68.9025 57.4178 68.8991C57.5081 68.8958 57.5642 68.8958 57.5953 68.8958C57.6233 68.8958 57.6856 68.8958 57.7853 68.8958C57.8849 68.8958 57.9597 68.9025 58.0095 68.9159C58.1434 68.9326 58.2026 69.0095 58.1901 69.1467C58.1403 69.8392 58.0749 70.5418 57.9908 71.2577C57.9098 71.9703 57.8133 72.6628 57.7012 73.3319C57.586 74.0043 57.4645 74.6266 57.3275 75.2053C57.1936 75.7841 57.0535 76.2859 56.904 76.7108C56.8698 76.8178 56.7981 76.8814 56.6923 76.9048C56.6206 76.9216 56.5365 76.9282 56.4431 76.9349C56.3466 76.9383 56.2687 76.9383 56.2127 76.9383Z" fill="#101010"/>
<path d="M64.6347 76.9383C64.479 76.9383 64.3015 76.9383 64.0991 76.9383C63.8967 76.9383 63.7036 76.9349 63.5167 76.9282C63.3268 76.9216 63.1742 76.9115 63.0528 76.9048C62.9126 76.8881 62.841 76.8178 62.841 76.6874C62.841 76.0417 62.8472 75.3693 62.8566 74.6734C62.869 73.9775 62.8784 73.2917 62.8877 72.6159C62.9002 71.9368 62.9126 71.2978 62.9313 70.6957C62.95 70.0968 62.9687 69.5716 62.9905 69.1233C62.9905 69.0631 63.0123 69.0129 63.0528 68.9794C63.0964 68.946 63.1431 68.9259 63.1929 68.9159C63.2832 68.9025 63.414 68.8925 63.5853 68.8891C63.7534 68.8858 63.934 68.8824 64.1271 68.8824C64.3171 68.8824 64.4852 68.8824 64.6253 68.8824C64.8589 68.8824 65.1018 68.8858 65.354 68.8891C65.6032 68.8925 65.8336 68.9025 66.0391 68.9159C66.1668 68.9326 66.2322 68.9995 66.2415 69.1233C66.2478 69.1768 66.254 69.2805 66.2602 69.4378C66.2696 69.5917 66.2727 69.7589 66.2758 69.9396C66.282 70.1169 66.2851 70.2842 66.2945 70.4347C66.3007 70.5886 66.3038 70.689 66.3038 70.7425C66.31 70.873 66.2727 70.9499 66.1917 70.97C66.1107 70.9934 66.0422 70.9432 65.9862 70.8228C65.871 70.5786 65.7184 70.3912 65.5222 70.2574C65.3291 70.1236 65.0738 70.0567 64.7624 70.0567C64.5226 70.0567 64.3171 70.1336 64.1489 70.2808C63.9776 70.428 63.8935 70.6522 63.8935 70.9499V71.0837C63.8935 71.3279 63.9589 71.5253 64.0897 71.6792C64.2205 71.8298 64.4011 71.9067 64.6347 71.9067C64.7935 71.9067 64.9492 71.9 65.108 71.8833C65.2668 71.8699 65.4194 71.8498 65.5596 71.8264C65.6156 71.813 65.6654 71.8264 65.709 71.8666C65.7526 71.9101 65.7713 71.9602 65.7713 72.0205L65.7838 73.0241C65.7838 73.1546 65.7464 73.2282 65.6779 73.2415C65.6063 73.2583 65.544 73.2148 65.4848 73.1178C65.3883 72.9806 65.2575 72.8836 65.0987 72.8301C64.9399 72.7765 64.7779 72.7565 64.616 72.7631C64.4105 72.7631 64.2392 72.8501 64.0991 73.0241C63.9621 73.2014 63.8935 73.4791 63.8935 73.8571V74.3389C63.8935 74.8474 63.9932 75.2053 64.1894 75.4161C64.3887 75.6235 64.6191 75.7306 64.8807 75.7306C65.1983 75.7306 65.4506 75.6603 65.6343 75.5232C65.818 75.386 65.9768 75.1485 66.1139 74.8039C66.1481 74.6834 66.2104 74.6299 66.2976 74.64C66.3879 74.65 66.4346 74.7269 66.4408 74.8608C66.4502 74.931 66.4564 75.0514 66.4626 75.2221C66.4689 75.3927 66.4782 75.58 66.4844 75.7874C66.4907 75.9915 66.4969 76.1789 66.5 76.3528C66.5031 76.5234 66.5062 76.6372 66.5062 76.7008C66.5062 76.8212 66.4439 76.8881 66.3256 76.9048C66.0983 76.9216 65.8211 76.9282 65.4973 76.9349C65.1703 76.9383 64.8838 76.9383 64.6347 76.9383Z" fill="#101010"/>
<path d="M72.9727 76.9383C72.817 76.9383 72.6395 76.9383 72.4371 76.9383C72.2347 76.9383 72.0416 76.9349 71.8548 76.9282C71.6648 76.9216 71.5122 76.9115 71.3908 76.9048C71.2506 76.8881 71.179 76.8178 71.179 76.6874C71.179 76.0417 71.1852 75.3693 71.1946 74.6734C71.207 73.9775 71.2164 73.2917 71.2257 72.6159C71.2382 71.9368 71.2506 71.2978 71.2693 70.6957C71.288 70.0968 71.3067 69.5716 71.3285 69.1233C71.3285 69.0631 71.3503 69.0129 71.3908 68.9794C71.4344 68.946 71.4811 68.9259 71.5309 68.9159C71.6368 68.9025 71.7271 68.8925 71.8018 68.8891C71.8734 68.8858 71.9482 68.8824 72.0167 68.8824C72.0665 68.8824 72.1288 68.8858 72.2035 68.8891C72.2783 68.8925 72.3437 68.9025 72.3997 68.9159C72.4558 68.9259 72.5087 68.946 72.5554 68.9861C72.6021 69.0229 72.6177 69.0731 72.6021 69.1333C72.49 69.9396 72.3966 70.7693 72.325 71.6157C72.2565 72.4654 72.2222 73.3453 72.2316 74.2586C72.2378 74.7838 72.3281 75.1585 72.5025 75.386C72.6738 75.6168 72.9135 75.7306 73.2187 75.7306C73.5301 75.7306 73.7792 75.6603 73.963 75.5232C74.1467 75.386 74.3024 75.1485 74.4301 74.8039C74.4706 74.6834 74.5359 74.6299 74.62 74.64C74.7041 74.65 74.7508 74.7269 74.7602 74.8608C74.7664 74.931 74.7726 75.0514 74.7788 75.2221C74.7882 75.3927 74.7944 75.58 74.8006 75.7874C74.8069 75.9915 74.8162 76.1789 74.8224 76.3528C74.8287 76.5234 74.8318 76.6372 74.8318 76.7008C74.8318 76.8212 74.7726 76.8881 74.6512 76.9048C74.427 76.9216 74.1529 76.9282 73.8291 76.9349C73.5083 76.9383 73.2218 76.9383 72.9727 76.9383Z" fill="#101010"/>
<path d="M79.9833 76.9383C79.921 76.9383 79.8525 76.9349 79.784 76.9282C79.7124 76.9216 79.6501 76.9115 79.6034 76.9048C79.4602 76.8814 79.401 76.8045 79.4228 76.6773C79.4788 75.9848 79.5567 75.2856 79.6563 74.5764C79.7529 73.8705 79.865 73.1813 79.9833 72.5122C80.1048 71.8431 80.2356 71.2175 80.3726 70.6354C80.5096 70.0533 80.6466 69.5448 80.7805 69.1099C80.8179 69.0062 80.8864 68.9393 80.9923 68.9159C81.0577 68.9025 81.1386 68.8925 81.2383 68.8891C81.3379 68.8858 81.4158 68.8824 81.4718 68.8824C81.5279 68.8824 81.6057 68.8858 81.6991 68.8891C81.7957 68.8925 81.8798 68.9025 81.9483 68.9159C82.0542 68.9393 82.1258 69.0062 82.1631 69.1099C82.3033 69.5448 82.4403 70.0533 82.5773 70.6354C82.7112 71.2175 82.8389 71.8431 82.9572 72.5122C83.0787 73.1813 83.1877 73.8705 83.2811 74.5764C83.3776 75.2856 83.4555 75.9848 83.5115 76.6773C83.5458 76.8045 83.4897 76.8814 83.3402 76.9048C83.2904 76.9115 83.2219 76.9216 83.1285 76.9282C83.0351 76.9349 82.9697 76.9383 82.9261 76.9383C82.8763 76.9383 82.8015 76.9349 82.705 76.9282C82.6053 76.9216 82.5275 76.9115 82.4683 76.9048C82.3562 76.8747 82.3002 76.8112 82.3002 76.7108C82.322 76.4666 82.3251 76.2123 82.3157 75.9447C82.3064 75.6804 82.2815 75.4228 82.2472 75.1719C82.1694 74.9109 81.9732 74.7838 81.6618 74.7838H81.2694C81.1137 74.7905 80.9892 74.8273 80.8926 74.8976C80.7961 74.9645 80.7307 75.0548 80.6964 75.1719C80.6622 75.4061 80.6373 75.6603 80.6217 75.9346C80.6061 76.209 80.6124 76.4666 80.631 76.7108C80.6404 76.7643 80.6248 76.8045 80.5906 76.8379C80.5532 76.868 80.5127 76.8881 80.4629 76.9048C80.4068 76.9115 80.3321 76.9216 80.2387 76.9282C80.1484 76.9349 80.0612 76.9383 79.9833 76.9383ZM81.3753 74.0411H81.5559C81.7054 74.0344 81.8144 73.9842 81.886 73.8973C81.9576 73.8103 81.9825 73.7032 81.9607 73.5727C81.9389 73.1914 81.9016 72.8133 81.8486 72.4319C81.7957 72.0506 81.7272 71.6391 81.64 71.2008C81.5933 70.98 81.5341 70.8696 81.4656 70.8696C81.4002 70.8696 81.341 70.98 81.2912 71.2008C81.2071 71.6391 81.1386 72.0506 81.0888 72.4319C81.039 72.8133 81.0047 73.1914 80.9829 73.5727C80.9611 73.7032 80.986 73.8103 81.0514 73.8973C81.1199 73.9842 81.2258 74.0344 81.3753 74.0411Z" fill="#101010"/>
<path d="M89.9379 76.9717C89.6669 76.9717 89.3773 76.9349 89.0659 76.858C88.7545 76.7844 88.4743 76.674 88.2283 76.5268C88.1411 76.4665 88.1006 76.3662 88.1006 76.219C88.1006 76.0216 88.1006 75.8276 88.1037 75.6335C88.1068 75.4395 88.1099 75.2421 88.1099 75.0447C88.1099 74.8942 88.1473 74.8072 88.2283 74.7871C88.3061 74.7704 88.3715 74.8139 88.4276 74.9209C88.6269 75.2153 88.8511 75.4261 89.1033 75.5532C89.3555 75.677 89.6078 75.7406 89.8631 75.7406C90.1465 75.7406 90.3738 75.6636 90.542 75.5131C90.7133 75.3592 90.7973 75.1351 90.7973 74.8407C90.7973 74.573 90.7351 74.3388 90.6105 74.1381C90.4859 73.9374 90.3271 73.7467 90.1341 73.5727C89.9379 73.3988 89.7323 73.2215 89.5112 73.0475C89.2933 72.8735 89.0846 72.6828 88.8916 72.4788C88.6954 72.2713 88.5366 72.0372 88.412 71.7695C88.2874 71.5052 88.2283 71.1941 88.2283 70.8462C88.2283 70.428 88.3123 70.07 88.4867 69.7723C88.6611 69.4779 88.8947 69.247 89.1874 69.0898C89.4832 68.9292 89.8133 68.8489 90.1808 68.8489C90.4143 68.8489 90.6479 68.879 90.8783 68.9393C91.1056 68.9995 91.3112 69.0932 91.4887 69.2136C91.5852 69.2972 91.635 69.4009 91.635 69.5214V70.5953C91.635 70.7324 91.5976 70.8127 91.5198 70.8328C91.4419 70.8562 91.3703 70.8161 91.308 70.709C91.1523 70.4882 90.9811 70.3276 90.7973 70.2306C90.6136 70.1302 90.4268 70.0801 90.2337 70.0801C90.0001 70.0801 89.7884 70.1436 89.6016 70.2708C89.4147 70.3945 89.3213 70.5919 89.3213 70.8562C89.3213 71.077 89.3836 71.2878 89.5081 71.4852C89.6296 71.6825 89.7884 71.8732 89.9846 72.0606C90.1808 72.2479 90.3894 72.4386 90.6105 72.636C90.8347 72.8334 91.0433 73.0441 91.2364 73.2649C91.4326 73.4857 91.5914 73.73 91.716 74.0009C91.8405 74.2719 91.9028 74.573 91.9028 74.9076C91.9028 75.5465 91.7222 76.0517 91.361 76.4197C90.9998 76.7877 90.5233 76.9717 89.9379 76.9717Z" fill="#101010"/>
<path d="M103.383 76.9383C103.32 76.9383 103.252 76.9349 103.183 76.9282C103.112 76.9216 103.049 76.9115 103.003 76.9048C102.86 76.8814 102.8 76.8045 102.822 76.6773C102.878 75.9848 102.956 75.2856 103.056 74.5764C103.152 73.8705 103.264 73.1813 103.383 72.5122C103.504 71.8431 103.635 71.2175 103.772 70.6354C103.909 70.0533 104.046 69.5448 104.18 69.1099C104.217 69.0062 104.286 68.9393 104.392 68.9159C104.457 68.9025 104.538 68.8925 104.638 68.8891C104.737 68.8858 104.815 68.8824 104.871 68.8824C104.927 68.8824 105.005 68.8858 105.099 68.8891C105.195 68.8925 105.279 68.9025 105.348 68.9159C105.454 68.9393 105.525 69.0062 105.562 69.1099C105.703 69.5448 105.84 70.0533 105.977 70.6354C106.111 71.2175 106.238 71.8431 106.357 72.5122C106.478 73.1813 106.587 73.8705 106.68 74.5764C106.777 75.2856 106.855 75.9848 106.911 76.6773C106.945 76.8045 106.889 76.8814 106.74 76.9048C106.69 76.9115 106.621 76.9216 106.528 76.9282C106.434 76.9349 106.369 76.9383 106.325 76.9383C106.276 76.9383 106.201 76.9349 106.104 76.9282C106.005 76.9216 105.927 76.9115 105.868 76.9048C105.756 76.8747 105.7 76.8112 105.7 76.7108C105.721 76.4666 105.724 76.2123 105.715 75.9447C105.706 75.6804 105.681 75.4228 105.647 75.1719C105.569 74.9109 105.373 74.7838 105.061 74.7838H104.669C104.513 74.7905 104.389 74.8273 104.292 74.8976C104.195 74.9645 104.13 75.0548 104.096 75.1719C104.062 75.4061 104.037 75.6603 104.021 75.9346C104.005 76.209 104.012 76.4666 104.03 76.7108C104.04 76.7643 104.024 76.8045 103.99 76.8379C103.953 76.868 103.912 76.8881 103.862 76.9048C103.806 76.9115 103.731 76.9216 103.638 76.9282C103.548 76.9349 103.461 76.9383 103.383 76.9383ZM104.775 74.0411H104.955C105.105 74.0344 105.214 73.9842 105.285 73.8973C105.357 73.8103 105.382 73.7032 105.36 73.5727C105.338 73.1914 105.301 72.8133 105.248 72.4319C105.195 72.0506 105.127 71.6391 105.039 71.2008C104.993 70.98 104.933 70.8696 104.865 70.8696C104.8 70.8696 104.74 70.98 104.691 71.2008C104.606 71.6391 104.538 72.0506 104.488 72.4319C104.438 72.8133 104.404 73.1914 104.382 73.5727C104.36 73.7032 104.385 73.8103 104.451 73.8973C104.519 73.9842 104.625 74.0344 104.775 74.0411Z" fill="#101010"/>
<path d="M112.201 76.9383C112.123 76.9383 112.042 76.9349 111.955 76.9283C111.871 76.9216 111.811 76.9115 111.774 76.9048C111.634 76.868 111.562 76.7944 111.562 76.6874C111.562 76.49 111.565 76.1956 111.572 75.8042C111.581 75.4128 111.59 74.9678 111.6 74.4693C111.609 73.9709 111.621 73.4523 111.631 72.9104C111.643 72.3717 111.653 71.8532 111.662 71.3547C111.674 70.8562 111.684 70.408 111.69 70.0132C111.696 69.6184 111.699 69.3173 111.699 69.1099C111.699 69.0497 111.721 69.0029 111.765 68.9694C111.805 68.936 111.852 68.9125 111.902 68.9058C111.967 68.8992 112.076 68.8891 112.232 68.8824C112.388 68.8757 112.562 68.869 112.752 68.8657C112.942 68.8624 113.11 68.859 113.25 68.859C113.882 68.859 114.384 68.9962 114.754 69.2638C115.125 69.5348 115.312 69.963 115.312 70.5485C115.312 70.96 115.209 71.3714 115.003 71.7829C114.798 72.1911 114.486 72.5122 114.069 72.7397C114.013 72.7698 113.985 72.81 113.985 72.8602C113.985 72.9104 114.013 72.9505 114.069 72.9806C114.381 73.1378 114.627 73.362 114.801 73.6464C114.978 73.9307 115.106 74.3121 115.178 74.7872C115.252 75.2622 115.29 75.8778 115.29 76.6305C115.29 76.7141 115.268 76.7777 115.221 76.8179C115.175 76.8613 115.122 76.8881 115.056 76.9048C114.985 76.9216 114.916 76.9283 114.845 76.9349C114.773 76.9383 114.714 76.9383 114.664 76.9383C114.614 76.9383 114.542 76.9349 114.452 76.9283C114.359 76.9216 114.281 76.9115 114.219 76.9048C114.163 76.8881 114.106 76.8613 114.054 76.8179C114.001 76.7777 113.973 76.7175 113.973 76.6439C113.994 76.2391 113.985 75.841 113.941 75.4496C113.898 75.0581 113.832 74.7035 113.739 74.3891C113.649 74.0746 113.537 73.8203 113.406 73.6296C113.275 73.4389 113.129 73.3453 112.964 73.3453C112.795 73.3453 112.708 73.4925 112.708 73.7902C112.708 74.3221 112.733 74.8373 112.783 75.3358C112.833 75.8343 112.873 76.2759 112.901 76.664C112.908 76.7275 112.889 76.7777 112.842 76.8179C112.795 76.8613 112.746 76.8881 112.69 76.9048C112.54 76.9283 112.378 76.9383 112.201 76.9383ZM113.038 72.2613C113.406 72.1242 113.695 71.9301 113.904 71.6859C114.113 71.4384 114.219 71.1908 114.219 70.9499C114.219 70.4146 113.885 70.1504 113.219 70.1504C113.163 70.1504 113.11 70.1504 113.066 70.1504C113.02 70.1504 112.973 70.1537 112.923 70.1604C112.852 70.1604 112.795 70.1872 112.758 70.234C112.718 70.2842 112.696 70.3477 112.69 70.4247C112.674 70.6354 112.665 70.9031 112.655 71.2276C112.649 71.5521 112.658 71.8432 112.69 72.1008C112.702 72.2212 112.743 72.2914 112.805 72.3115C112.87 72.3316 112.948 72.3149 113.038 72.2613Z" fill="#101010"/>
<path d="M121.856 76.9383C121.812 76.9383 121.74 76.9349 121.638 76.9282C121.535 76.9216 121.463 76.9115 121.42 76.9048C121.364 76.8881 121.314 76.8613 121.27 76.8245C121.227 76.7877 121.208 76.7376 121.208 76.6773C121.208 76.5536 121.211 76.3528 121.223 76.0651C121.233 75.7808 121.245 75.4496 121.255 75.0682C121.264 74.6868 121.276 74.2887 121.292 73.8705C121.304 73.4523 121.32 73.0408 121.336 72.6427C121.348 72.2446 121.361 71.8866 121.373 71.5688C121.382 71.2543 121.389 71.0135 121.389 70.8462C121.389 70.5786 121.367 70.3879 121.323 70.2708C121.283 70.1503 121.195 70.0935 121.068 70.0935C120.89 70.0935 120.731 70.1604 120.585 70.2909C120.439 70.4247 120.32 70.6053 120.23 70.8328C120.187 70.9332 120.124 70.9834 120.037 70.9867C119.953 70.9934 119.912 70.9131 119.912 70.7559C119.912 70.6789 119.912 70.5652 119.916 70.4113C119.919 70.2607 119.922 70.0968 119.928 69.9229C119.931 69.7455 119.934 69.585 119.937 69.4378C119.941 69.2872 119.944 69.1869 119.944 69.1333C119.965 69.0062 120.031 68.9326 120.146 68.9159C120.342 68.8958 120.607 68.8824 120.937 68.8824C121.264 68.8824 121.569 68.8824 121.843 68.8824C122.127 68.8824 122.432 68.8858 122.759 68.8891C123.083 68.8925 123.341 68.9025 123.534 68.9159C123.652 68.9326 123.724 69.0062 123.746 69.1333C123.752 69.1869 123.758 69.2872 123.761 69.4378C123.765 69.585 123.768 69.7489 123.771 69.9262C123.777 70.1069 123.777 70.2708 123.777 70.4247C123.777 70.5752 123.777 70.6856 123.777 70.7559C123.777 70.9131 123.733 70.9934 123.649 70.9867C123.565 70.9834 123.5 70.9332 123.459 70.8328C123.372 70.5986 123.263 70.4146 123.123 70.2875C122.986 70.157 122.821 70.0935 122.631 70.0935C122.503 70.0935 122.416 70.1503 122.376 70.2708C122.332 70.3879 122.31 70.5786 122.31 70.8462C122.32 71.0068 122.326 71.241 122.338 71.5521C122.348 71.8666 122.36 72.2212 122.376 72.6193C122.388 73.0207 122.404 73.4289 122.416 73.8538C122.432 74.2753 122.447 74.6768 122.46 75.0615C122.475 75.4462 122.488 75.7808 122.503 76.0651C122.516 76.3528 122.525 76.5536 122.525 76.6773C122.525 76.7376 122.5 76.7877 122.45 76.8245C122.401 76.8613 122.345 76.8881 122.279 76.9048C122.239 76.9115 122.167 76.9216 122.067 76.9282C121.968 76.9349 121.896 76.9383 121.856 76.9383Z" fill="#101010"/>
<path d="M130.17 76.9383C130.014 76.9383 129.837 76.9383 129.634 76.9383C129.432 76.9383 129.239 76.9349 129.052 76.9282C128.862 76.9216 128.709 76.9115 128.588 76.9048C128.448 76.8881 128.376 76.8178 128.376 76.6874C128.376 76.0417 128.382 75.3693 128.392 74.6734C128.404 73.9775 128.414 73.2917 128.423 72.6159C128.435 71.9368 128.448 71.2978 128.467 70.6957C128.485 70.0968 128.504 69.5716 128.526 69.1233C128.526 69.0631 128.547 69.0129 128.588 68.9794C128.632 68.946 128.678 68.9259 128.728 68.9159C128.818 68.9025 128.949 68.8925 129.12 68.8891C129.289 68.8858 129.469 68.8824 129.662 68.8824C129.852 68.8824 130.02 68.8824 130.161 68.8824C130.394 68.8824 130.637 68.8858 130.889 68.8891C131.138 68.8925 131.369 68.9025 131.574 68.9159C131.702 68.9326 131.767 68.9995 131.777 69.1233C131.783 69.1768 131.789 69.2805 131.795 69.4378C131.805 69.5917 131.808 69.7589 131.811 69.9396C131.817 70.1169 131.82 70.2842 131.83 70.4347C131.836 70.5886 131.839 70.689 131.839 70.7425C131.845 70.873 131.808 70.9499 131.727 70.97C131.646 70.9934 131.577 70.9432 131.521 70.8228C131.406 70.5786 131.254 70.3912 131.057 70.2574C130.864 70.1236 130.609 70.0567 130.298 70.0567C130.058 70.0567 129.852 70.1336 129.684 70.2808C129.513 70.428 129.429 70.6522 129.429 70.9499V71.0837C129.429 71.3279 129.494 71.5253 129.625 71.6792C129.756 71.8298 129.936 71.9067 130.17 71.9067C130.329 71.9067 130.484 71.9 130.643 71.8833C130.802 71.8699 130.955 71.8498 131.095 71.8264C131.151 71.813 131.201 71.8264 131.244 71.8666C131.288 71.9101 131.307 71.9602 131.307 72.0205L131.319 73.0241C131.319 73.1546 131.282 73.2282 131.213 73.2415C131.141 73.2583 131.079 73.2148 131.02 73.1178C130.924 72.9806 130.793 72.8836 130.634 72.8301C130.475 72.7765 130.313 72.7565 130.151 72.7631C129.946 72.7631 129.774 72.8501 129.634 73.0241C129.497 73.2014 129.429 73.4791 129.429 73.8571V74.3389C129.429 74.8474 129.528 75.2053 129.725 75.4161C129.924 75.6235 130.154 75.7306 130.416 75.7306C130.734 75.7306 130.986 75.6603 131.17 75.5232C131.353 75.386 131.512 75.1485 131.649 74.8039C131.683 74.6834 131.746 74.6299 131.833 74.64C131.923 74.65 131.97 74.7269 131.976 74.8608C131.985 74.931 131.992 75.0514 131.998 75.2221C132.004 75.3927 132.013 75.58 132.02 75.7874C132.026 75.9915 132.032 76.1789 132.035 76.3528C132.038 76.5234 132.041 76.6372 132.041 76.7008C132.041 76.8212 131.979 76.8881 131.861 76.9048C131.634 76.9216 131.356 76.9282 131.032 76.9349C130.706 76.9383 130.419 76.9383 130.17 76.9383Z" fill="#101010"/>
<path d="M138.489 76.9717C138.218 76.9717 137.929 76.9349 137.617 76.858C137.306 76.7844 137.026 76.674 136.78 76.5268C136.692 76.4665 136.652 76.3662 136.652 76.219C136.652 76.0216 136.652 75.8276 136.655 75.6335C136.658 75.4395 136.661 75.2421 136.661 75.0447C136.661 74.8942 136.699 74.8072 136.78 74.7871C136.857 74.7704 136.923 74.8139 136.979 74.9209C137.178 75.2153 137.402 75.4261 137.655 75.5532C137.907 75.677 138.159 75.7406 138.414 75.7406C138.698 75.7406 138.925 75.6636 139.093 75.5131C139.265 75.3592 139.349 75.1351 139.349 74.8407C139.349 74.573 139.286 74.3388 139.162 74.1381C139.037 73.9374 138.878 73.7467 138.685 73.5727C138.489 73.3988 138.284 73.2215 138.063 73.0475C137.845 72.8735 137.636 72.6828 137.443 72.4788C137.247 72.2713 137.088 72.0372 136.963 71.7695C136.839 71.5052 136.78 71.1941 136.78 70.8462C136.78 70.428 136.864 70.07 137.038 69.7723C137.212 69.4779 137.446 69.247 137.739 69.0898C138.035 68.9292 138.365 68.8489 138.732 68.8489C138.966 68.8489 139.199 68.879 139.43 68.9393C139.657 68.9995 139.862 69.0932 140.04 69.2136C140.137 69.2972 140.186 69.4009 140.186 69.5214V70.5953C140.186 70.7324 140.149 70.8127 140.071 70.8328C139.993 70.8562 139.922 70.8161 139.859 70.709C139.704 70.4882 139.532 70.3276 139.349 70.2306C139.165 70.1302 138.978 70.0801 138.785 70.0801C138.551 70.0801 138.34 70.1436 138.153 70.2708C137.966 70.3945 137.873 70.5919 137.873 70.8562C137.873 71.077 137.935 71.2878 138.059 71.4852C138.181 71.6825 138.34 71.8732 138.536 72.0606C138.732 72.2479 138.941 72.4386 139.162 72.636C139.386 72.8334 139.595 73.0441 139.788 73.2649C139.984 73.4857 140.143 73.73 140.267 74.0009C140.392 74.2719 140.454 74.573 140.454 74.9076C140.454 75.5465 140.274 76.0517 139.912 76.4197C139.551 76.7877 139.075 76.9717 138.489 76.9717Z" fill="#101010"/>
<path d="M145.614 76.9383C145.552 76.9383 145.483 76.9349 145.415 76.9282C145.343 76.9216 145.281 76.9115 145.234 76.9048C145.091 76.8814 145.032 76.8045 145.054 76.6773C145.11 75.9848 145.187 75.2856 145.287 74.5764C145.384 73.8705 145.496 73.1813 145.614 72.5122C145.736 71.8431 145.866 71.2175 146.003 70.6354C146.14 70.0533 146.277 69.5448 146.411 69.1099C146.449 69.0062 146.517 68.9393 146.623 68.9159C146.688 68.9025 146.769 68.8925 146.869 68.8891C146.969 68.8858 147.047 68.8824 147.103 68.8824C147.159 68.8824 147.236 68.8858 147.33 68.8891C147.426 68.8925 147.511 68.9025 147.579 68.9159C147.685 68.9393 147.757 69.0062 147.794 69.1099C147.934 69.5448 148.071 70.0533 148.208 70.6354C148.342 71.2175 148.47 71.8431 148.588 72.5122C148.709 73.1813 148.818 73.8705 148.912 74.5764C149.008 75.2856 149.086 75.9848 149.142 76.6773C149.177 76.8045 149.12 76.8814 148.971 76.9048C148.921 76.9115 148.853 76.9216 148.759 76.9282C148.666 76.9349 148.6 76.9383 148.557 76.9383C148.507 76.9383 148.432 76.9349 148.336 76.9282C148.236 76.9216 148.158 76.9115 148.099 76.9048C147.987 76.8747 147.931 76.8112 147.931 76.7108C147.953 76.4666 147.956 76.2123 147.946 75.9447C147.937 75.6804 147.912 75.4228 147.878 75.1719C147.8 74.9109 147.604 74.7838 147.293 74.7838H146.9C146.744 74.7905 146.62 74.8273 146.523 74.8976C146.427 74.9645 146.361 75.0548 146.327 75.1719C146.293 75.4061 146.268 75.6603 146.252 75.9346C146.237 76.209 146.243 76.4666 146.262 76.7108C146.271 76.7643 146.256 76.8045 146.221 76.8379C146.184 76.868 146.143 76.8881 146.094 76.9048C146.038 76.9115 145.963 76.9216 145.869 76.9282C145.779 76.9349 145.692 76.9383 145.614 76.9383ZM147.006 74.0411H147.187C147.336 74.0344 147.445 73.9842 147.517 73.8973C147.588 73.8103 147.613 73.7032 147.591 73.5727C147.57 73.1914 147.532 72.8133 147.479 72.4319C147.426 72.0506 147.358 71.6391 147.271 71.2008C147.224 70.98 147.165 70.8696 147.096 70.8696C147.031 70.8696 146.972 70.98 146.922 71.2008C146.838 71.6391 146.769 72.0506 146.72 72.4319C146.67 72.8133 146.635 73.1914 146.614 73.5727C146.592 73.7032 146.617 73.8103 146.682 73.8973C146.751 73.9842 146.857 74.0344 147.006 74.0411Z" fill="#101010"/>
<path d="M156.992 76.9717C156.827 76.9717 156.68 76.8747 156.543 76.6773C156.409 76.48 156.285 76.2257 156.173 75.9179C156.061 75.6101 155.955 75.2823 155.858 74.931C155.765 74.5797 155.675 74.2519 155.587 73.9441C155.503 73.6363 155.422 73.3821 155.344 73.1847C155.267 72.9873 155.186 72.8869 155.102 72.8869C155.052 72.8869 155.005 72.9672 154.961 73.1211C154.921 73.2783 154.899 73.4925 154.899 73.7668C154.899 74.0712 154.909 74.4024 154.924 74.7637C154.943 75.125 154.965 75.473 154.993 75.8042C155.024 76.1354 155.049 76.403 155.067 76.6071C155.083 76.7008 155.064 76.771 155.014 76.8178C154.965 76.868 154.905 76.9015 154.834 76.9149C154.778 76.9249 154.709 76.9282 154.628 76.9349C154.547 76.9383 154.482 76.9383 154.432 76.9383C154.382 76.9383 154.32 76.9383 154.251 76.9349C154.18 76.9282 154.105 76.9216 154.027 76.9048C153.965 76.8881 153.909 76.8613 153.862 76.8178C153.815 76.7777 153.794 76.7175 153.794 76.6439C153.794 75.9413 153.797 75.2421 153.803 74.5362C153.812 73.8337 153.822 73.1512 153.831 72.4955C153.84 71.8365 153.859 71.2209 153.884 70.6522C153.909 70.0801 153.937 69.585 153.965 69.1668C153.971 69.0831 153.99 69.0263 154.021 68.9962C154.055 68.9661 154.102 68.9393 154.164 68.9159C154.214 68.9025 154.267 68.8925 154.326 68.8891C154.382 68.8858 154.432 68.8824 154.473 68.8824C154.516 68.8824 154.563 68.8858 154.616 68.8891C154.669 68.8925 154.728 68.9025 154.793 68.9159C154.94 68.946 155.049 69.0463 155.111 69.2136C155.173 69.4946 155.251 69.8024 155.338 70.1336C155.429 70.4648 155.522 70.7893 155.622 71.1071C155.721 71.4283 155.818 71.7194 155.914 71.987C156.008 72.2513 156.098 72.4654 156.182 72.626C156.269 72.7866 156.341 72.8669 156.397 72.8669C156.466 72.8669 156.515 72.7732 156.54 72.5925C156.565 72.4085 156.575 72.171 156.565 71.8799C156.559 71.5855 156.54 71.2711 156.512 70.9365C156.484 70.602 156.453 70.2842 156.419 69.9831C156.381 69.682 156.347 69.4344 156.31 69.237C156.304 69.1467 156.319 69.0765 156.36 69.0263C156.397 68.9761 156.453 68.9393 156.525 68.9159C156.581 68.9025 156.643 68.8925 156.708 68.8891C156.777 68.8858 156.836 68.8824 156.886 68.8824C156.976 68.8824 157.079 68.8958 157.194 68.9159C157.319 68.946 157.387 69.0263 157.394 69.1567C157.459 69.963 157.499 70.8964 157.518 71.9569C157.534 73.0207 157.54 74.2351 157.534 75.6034C157.534 76.5168 157.353 76.9717 156.992 76.9717Z" fill="#101010"/>
<path d="M162.747 76.9383C162.684 76.9383 162.616 76.9349 162.547 76.9282C162.476 76.9216 162.413 76.9115 162.367 76.9048C162.224 76.8814 162.164 76.8045 162.186 76.6773C162.242 75.9848 162.32 75.2856 162.42 74.5764C162.516 73.8705 162.628 73.1813 162.747 72.5122C162.868 71.8431 162.999 71.2175 163.136 70.6354C163.273 70.0533 163.41 69.5448 163.544 69.1099C163.581 69.0062 163.65 68.9393 163.756 68.9159C163.821 68.9025 163.902 68.8925 164.002 68.8891C164.101 68.8858 164.179 68.8824 164.235 68.8824C164.291 68.8824 164.369 68.8858 164.463 68.8891C164.559 68.8925 164.643 68.9025 164.712 68.9159C164.818 68.9393 164.889 69.0062 164.927 69.1099C165.067 69.5448 165.204 70.0533 165.341 70.6354C165.475 71.2175 165.602 71.8431 165.721 72.5122C165.842 73.1813 165.951 73.8705 166.044 74.5764C166.141 75.2856 166.219 75.9848 166.275 76.6773C166.309 76.8045 166.253 76.8814 166.104 76.9048C166.054 76.9115 165.985 76.9216 165.892 76.9282C165.798 76.9349 165.733 76.9383 165.689 76.9383C165.64 76.9383 165.565 76.9349 165.468 76.9282C165.369 76.9216 165.291 76.9115 165.232 76.9048C165.12 76.8747 165.064 76.8112 165.064 76.7108C165.085 76.4666 165.088 76.2123 165.079 75.9447C165.07 75.6804 165.045 75.4228 165.011 75.1719C164.933 74.9109 164.737 74.7838 164.425 74.7838H164.033C163.877 74.7905 163.753 74.8273 163.656 74.8976C163.559 74.9645 163.494 75.0548 163.46 75.1719C163.426 75.4061 163.401 75.6603 163.385 75.9346C163.369 76.209 163.376 76.4666 163.394 76.7108C163.404 76.7643 163.388 76.8045 163.354 76.8379C163.317 76.868 163.276 76.8881 163.226 76.9048C163.17 76.9115 163.095 76.9216 163.002 76.9282C162.912 76.9349 162.825 76.9383 162.747 76.9383ZM164.139 74.0411H164.319C164.469 74.0344 164.578 73.9842 164.649 73.8973C164.721 73.8103 164.746 73.7032 164.724 73.5727C164.702 73.1914 164.665 72.8133 164.612 72.4319C164.559 72.0506 164.491 71.6391 164.403 71.2008C164.357 70.98 164.297 70.8696 164.229 70.8696C164.164 70.8696 164.104 70.98 164.055 71.2008C163.97 71.6391 163.902 72.0506 163.852 72.4319C163.802 72.8133 163.768 73.1914 163.746 73.5727C163.724 73.7032 163.749 73.8103 163.815 73.8973C163.883 73.9842 163.989 74.0344 164.139 74.0411Z" fill="#101010"/>
<path d="M172.72 76.9383C172.564 76.9383 172.387 76.9383 172.184 76.9383C171.982 76.9383 171.789 76.9349 171.602 76.9282C171.412 76.9216 171.26 76.9115 171.138 76.9048C170.998 76.8881 170.926 76.8178 170.926 76.6874C170.926 76.0417 170.933 75.3693 170.942 74.6734C170.954 73.9775 170.964 73.2917 170.973 72.6159C170.985 71.9368 170.998 71.2978 171.017 70.6957C171.035 70.0968 171.054 69.5716 171.076 69.1233C171.076 69.0631 171.098 69.0129 171.138 68.9794C171.182 68.946 171.228 68.9259 171.278 68.9159C171.384 68.9025 171.474 68.8925 171.549 68.8891C171.621 68.8858 171.695 68.8824 171.764 68.8824C171.814 68.8824 171.876 68.8858 171.951 68.8891C172.026 68.8925 172.091 68.9025 172.147 68.9159C172.203 68.9259 172.256 68.946 172.303 68.9861C172.349 69.0229 172.365 69.0731 172.349 69.1333C172.237 69.9396 172.144 70.7693 172.072 71.6157C172.004 72.4654 171.97 73.3453 171.979 74.2586C171.985 74.7838 172.075 75.1585 172.25 75.386C172.421 75.6168 172.661 75.7306 172.966 75.7306C173.277 75.7306 173.527 75.6603 173.71 75.5232C173.894 75.386 174.05 75.1485 174.177 74.8039C174.218 74.6834 174.283 74.6299 174.367 74.64C174.451 74.65 174.498 74.7269 174.507 74.8608C174.514 74.931 174.52 75.0514 174.526 75.2221C174.535 75.3927 174.542 75.58 174.548 75.7874C174.554 75.9915 174.564 76.1789 174.57 76.3528C174.576 76.5234 174.579 76.6372 174.579 76.7008C174.579 76.8212 174.52 76.8881 174.398 76.9048C174.174 76.9216 173.9 76.9282 173.576 76.9349C173.256 76.9383 172.969 76.9383 172.72 76.9383Z" fill="#101010"/>
<path d="M181.026 76.9383C180.87 76.9383 180.693 76.9383 180.49 76.9383C180.288 76.9383 180.095 76.9349 179.908 76.9282C179.718 76.9216 179.566 76.9115 179.444 76.9048C179.304 76.8881 179.232 76.8178 179.232 76.6874C179.232 76.0417 179.239 75.3693 179.248 74.6734C179.26 73.9775 179.27 73.2917 179.279 72.6159C179.292 71.9368 179.304 71.2978 179.323 70.6957C179.341 70.0968 179.36 69.5716 179.382 69.1233C179.382 69.0631 179.404 69.0129 179.444 68.9794C179.488 68.946 179.534 68.9259 179.584 68.9159C179.675 68.9025 179.805 68.8925 179.977 68.8891C180.145 68.8858 180.325 68.8824 180.519 68.8824C180.708 68.8824 180.877 68.8824 181.017 68.8824C181.25 68.8824 181.493 68.8858 181.745 68.8891C181.995 68.8925 182.225 68.9025 182.431 68.9159C182.558 68.9326 182.624 68.9995 182.633 69.1233C182.639 69.1768 182.645 69.2805 182.652 69.4378C182.661 69.5917 182.664 69.7589 182.667 69.9396C182.673 70.1169 182.677 70.2842 182.686 70.4347C182.692 70.5886 182.695 70.689 182.695 70.7425C182.701 70.873 182.664 70.9499 182.583 70.97C182.502 70.9934 182.434 70.9432 182.378 70.8228C182.262 70.5786 182.11 70.3912 181.914 70.2574C181.721 70.1236 181.465 70.0567 181.154 70.0567C180.914 70.0567 180.708 70.1336 180.54 70.2808C180.369 70.428 180.285 70.6522 180.285 70.9499V71.0837C180.285 71.3279 180.35 71.5253 180.481 71.6792C180.612 71.8298 180.793 71.9067 181.026 71.9067C181.185 71.9067 181.341 71.9 181.499 71.8833C181.658 71.8699 181.811 71.8498 181.951 71.8264C182.007 71.813 182.057 71.8264 182.1 71.8666C182.144 71.9101 182.163 71.9602 182.163 72.0205L182.175 73.0241C182.175 73.1546 182.138 73.2282 182.069 73.2415C181.998 73.2583 181.935 73.2148 181.876 73.1178C181.78 72.9806 181.649 72.8836 181.49 72.8301C181.331 72.7765 181.169 72.7565 181.007 72.7631C180.802 72.7631 180.631 72.8501 180.49 73.0241C180.353 73.2014 180.285 73.4791 180.285 73.8571V74.3389C180.285 74.8474 180.385 75.2053 180.581 75.4161C180.78 75.6235 181.011 75.7306 181.272 75.7306C181.59 75.7306 181.842 75.6603 182.026 75.5232C182.209 75.386 182.368 75.1485 182.505 74.8039C182.54 74.6834 182.602 74.6299 182.689 74.64C182.779 74.65 182.826 74.7269 182.832 74.8608C182.842 74.931 182.848 75.0514 182.854 75.2221C182.86 75.3927 182.87 75.58 182.876 75.7874C182.882 75.9915 182.888 76.1789 182.891 76.3528C182.895 76.5234 182.898 76.6372 182.898 76.7008C182.898 76.8212 182.835 76.8881 182.717 76.9048C182.49 76.9216 182.213 76.9282 181.889 76.9349C181.562 76.9383 181.275 76.9383 181.026 76.9383Z" fill="#101010"/>
<path d="M189.345 76.9717C189.074 76.9717 188.785 76.9349 188.473 76.858C188.162 76.7844 187.882 76.674 187.636 76.5268C187.549 76.4665 187.508 76.3662 187.508 76.219C187.508 76.0216 187.508 75.8276 187.511 75.6335C187.514 75.4395 187.517 75.2421 187.517 75.0447C187.517 74.8942 187.555 74.8072 187.636 74.7871C187.714 74.7704 187.779 74.8139 187.835 74.9209C188.034 75.2153 188.259 75.4261 188.511 75.5532C188.763 75.677 189.015 75.7406 189.271 75.7406C189.554 75.7406 189.781 75.6636 189.95 75.5131C190.121 75.3592 190.205 75.1351 190.205 74.8407C190.205 74.573 190.143 74.3388 190.018 74.1381C189.893 73.9374 189.735 73.7467 189.542 73.5727C189.345 73.3988 189.14 73.2215 188.919 73.0475C188.701 72.8735 188.492 72.6828 188.299 72.4788C188.103 72.2713 187.944 72.0372 187.82 71.7695C187.695 71.5052 187.636 71.1941 187.636 70.8462C187.636 70.428 187.72 70.07 187.894 69.7723C188.069 69.4779 188.302 69.247 188.595 69.0898C188.891 68.9292 189.221 68.8489 189.588 68.8489C189.822 68.8489 190.055 68.879 190.286 68.9393C190.513 68.9995 190.719 69.0932 190.896 69.2136C190.993 69.2972 191.043 69.4009 191.043 69.5214V70.5953C191.043 70.7324 191.005 70.8127 190.927 70.8328C190.849 70.8562 190.778 70.8161 190.716 70.709C190.56 70.4882 190.389 70.3276 190.205 70.2306C190.021 70.1302 189.834 70.0801 189.641 70.0801C189.408 70.0801 189.196 70.1436 189.009 70.2708C188.822 70.3945 188.729 70.5919 188.729 70.8562C188.729 71.077 188.791 71.2878 188.916 71.4852C189.037 71.6825 189.196 71.8732 189.392 72.0606C189.588 72.2479 189.797 72.4386 190.018 72.636C190.242 72.8334 190.451 73.0441 190.644 73.2649C190.84 73.4857 190.999 73.73 191.124 74.0009C191.248 74.2719 191.31 74.573 191.31 74.9076C191.31 75.5465 191.13 76.0517 190.769 76.4197C190.407 76.7877 189.931 76.9717 189.345 76.9717Z" fill="#101010"/>
<path d="M270.152 48.8345H270.871C271.223 48.8345 271.506 48.7375 271.721 48.5401C271.936 48.3427 272.045 48.0918 272.045 47.7874C272.045 47.4327 271.949 47.1751 271.759 47.0212C271.569 46.8674 271.267 46.7904 270.856 46.7904H270.152V48.8345ZM273.032 47.7606C273.032 48.1386 272.939 48.4765 272.752 48.7676C272.562 49.062 272.297 49.2794 271.958 49.4199L273.537 52.2368H272.422L271.049 49.7143H270.152V52.2368H269.171V45.8838H270.902C271.637 45.8838 272.176 46.041 272.519 46.3488C272.861 46.6566 273.032 47.1283 273.032 47.7606ZM266.02 49.0586C266.02 48.1052 266.241 47.2153 266.683 46.3856C267.125 45.5526 267.732 44.8969 268.508 44.4151C269.283 43.9367 270.114 43.6959 271.008 43.6959C271.893 43.6959 272.724 43.9334 273.496 44.4084C274.272 44.8835 274.882 45.5392 275.327 46.3689C275.776 47.2019 276 48.0985 276 49.0586C276 49.992 275.785 50.8719 275.355 51.6949C274.926 52.5178 274.325 53.1735 273.549 53.6687C272.777 54.1638 271.93 54.4114 271.008 54.4114C270.093 54.4114 269.249 54.1638 268.473 53.672C267.701 53.1802 267.097 52.5245 266.667 51.7015C266.234 50.8786 266.02 49.9987 266.02 49.0586ZM266.717 49.0586C266.717 49.8783 266.91 50.6477 267.293 51.3637C267.679 52.0796 268.202 52.6416 268.869 53.0531C269.535 53.4646 270.248 53.6687 271.008 53.6687C271.777 53.6687 272.494 53.4613 273.151 53.0498C273.811 52.6349 274.334 52.0762 274.72 51.3703C275.109 50.6645 275.302 49.895 275.302 49.0586C275.302 48.229 275.109 47.4628 274.723 46.7536C274.34 46.0477 273.82 45.4857 273.163 45.0675C272.506 44.6527 271.787 44.4452 271.008 44.4452C270.239 44.4452 269.526 44.6527 268.866 45.0642C268.206 45.479 267.682 46.0377 267.296 46.7436C266.91 47.4495 266.717 48.2223 266.717 49.0586Z" fill="#101010"/>
</svg>
