<svg width="171" height="54" viewBox="0 0 171 54" fill="none" xmlns="http://www.w3.org/2000/svg">
<g filter="url(#filter0_d_460_7)">
<path d="M19.1421 33.338C19.3692 33.484 19.466 33.672 19.4306 33.906C19.3971 34.138 19.1867 34.254 18.7995 34.254H11.2598C11.0792 34.254 10.9824 34.162 10.9713 33.978C10.9601 33.796 11.0104 33.63 11.1239 33.484C11.5782 32.994 11.8183 32.524 11.8407 32.072C11.863 31.62 11.7829 31.052 11.6024 30.368C11.4888 29.88 11.3343 29.342 11.1407 28.756C10.9471 28.17 10.7144 27.614 10.4426 27.088C10.1689 26.562 9.86172 26.136 9.52103 25.806C9.18035 25.476 8.79313 25.348 8.36122 25.42C8.36122 26.08 8.38356 26.814 8.42824 27.62C8.47479 28.426 8.54367 29.22 8.63303 30.002C8.72425 30.784 8.86201 31.474 9.04259 32.072C9.22503 32.672 9.46332 33.092 9.75933 33.338C9.94177 33.484 10.0218 33.672 9.99762 33.906C9.97528 34.138 9.78167 34.254 9.41864 34.254H2.32203C2.16378 34.254 2.06139 34.162 2.01485 33.978C1.97017 33.796 2.02602 33.63 2.18612 33.484C2.77813 32.994 3.15791 32.524 3.32918 32.072C3.49859 31.62 3.58423 31.052 3.58423 30.368V19.446C3.58423 18.786 3.49859 18.218 3.32918 17.742C3.15791 17.266 2.77813 16.796 2.18612 16.332C2.02602 16.184 1.97017 16.026 2.01485 15.854C2.06139 15.684 2.16378 15.598 2.32203 15.598H9.41864C9.78167 15.598 9.97528 15.708 9.99762 15.928C10.0218 16.148 9.94177 16.332 9.75933 16.478C9.3721 16.796 9.08355 17.394 8.88993 18.274C8.69632 19.154 8.56601 20.13 8.49713 21.206C8.42824 22.28 8.38356 23.258 8.36122 24.138C8.67957 23.844 9.01466 23.368 9.36652 22.708C9.72023 22.048 10.1112 21.316 10.5449 20.51C10.9768 19.704 11.4702 18.928 12.0287 18.182C12.5853 17.436 13.2108 16.82 13.9052 16.332C14.5978 15.842 15.389 15.598 16.2751 15.598C16.9341 15.598 17.4126 15.83 17.7086 16.294C18.0046 16.758 18.1405 17.308 18.1181 17.944C18.0958 18.58 17.9413 19.154 17.6565 19.666C17.3735 20.18 16.9918 20.492 16.5134 20.602C16.0368 20.712 15.4802 20.46 14.8435 19.85C14.3874 19.41 13.9387 19.27 13.4957 19.428C13.0507 19.588 12.6132 19.924 12.1813 20.436C11.7494 20.95 11.3231 21.53 10.9024 22.178C10.4816 22.824 10.0665 23.43 9.65693 23.992C10.6343 23.82 11.4646 23.942 12.1478 24.358C12.8292 24.774 13.4268 25.36 13.9387 26.116C14.4507 26.874 14.9459 27.706 15.4225 28.61C15.9009 29.514 16.4352 30.386 17.0254 31.23C17.6174 32.072 18.3229 32.776 19.1421 33.338Z" fill="#FFFCF9"/>
</g>
<g filter="url(#filter1_d_460_7)">
<path d="M33.0591 33.484C33.2415 33.63 33.3104 33.796 33.2638 33.978C33.2192 34.162 33.1056 34.254 32.9232 34.254H29.4437C28.8294 34.254 28.3342 34.106 27.96 33.814C27.5839 33.52 27.3121 33.228 27.1409 32.934C26.9696 32.64 26.8858 32.494 26.8858 32.494C26.5209 33.032 26.0444 33.46 25.4523 33.776C24.8603 34.094 24.2237 34.254 23.5423 34.254C22.792 34.254 22.0977 34.058 21.461 33.666C20.8243 33.276 20.3179 32.75 19.9419 32.09C19.5677 31.432 19.3796 30.71 19.3796 29.928C19.3796 29.122 19.5677 28.396 19.9419 27.748C20.3179 27.1 20.8243 26.582 21.461 26.19C22.0977 25.8 22.792 25.604 23.5423 25.604C24.2237 25.604 24.8603 25.762 25.4523 26.08C26.0444 26.398 26.5209 26.826 26.8858 27.364V26.264C26.8858 25.554 26.8058 24.852 26.6457 24.156C26.4874 23.46 26.2603 22.88 25.9643 22.416C25.6683 21.952 25.3164 21.718 24.9069 21.718C24.6556 21.718 24.5252 21.902 24.5141 22.268C24.5029 22.636 24.5997 23.062 24.8045 23.552C24.9404 23.918 24.8827 24.23 24.6332 24.486C24.3838 24.742 24.03 24.938 23.5758 25.072C23.1216 25.206 22.6487 25.262 22.1591 25.238C21.6713 25.212 21.2562 25.096 20.9155 24.89C20.573 24.682 20.4035 24.37 20.4035 23.954C20.4035 23.172 20.8187 22.434 21.649 21.738C22.4793 21.04 23.6782 20.692 25.2476 20.692C26.4763 20.692 27.5728 20.974 28.539 21.536C29.5052 22.098 30.2684 22.88 30.8251 23.882C31.3817 24.884 31.661 26.044 31.661 27.364V30.368C31.661 31.052 31.7466 31.62 31.916 32.072C32.0873 32.524 32.4689 32.994 33.0591 33.484ZM25.0428 32.274C25.5212 32.274 25.9233 32.042 26.2547 31.578C26.5842 31.114 26.7481 30.564 26.7481 29.928C26.7481 29.294 26.5842 28.744 26.2547 28.28C25.9233 27.816 25.5212 27.582 25.0428 27.582C24.5885 27.582 24.1957 27.816 23.8662 28.28C23.5367 28.744 23.371 29.294 23.371 29.928C23.371 30.564 23.5367 31.114 23.8662 31.578C24.1957 32.042 24.5885 32.274 25.0428 32.274Z" fill="#FFFCF9"/>
</g>
<g filter="url(#filter2_d_460_7)">
<path d="M40.3266 34.254H33.6731C33.5149 34.254 33.4125 34.162 33.3659 33.978C33.3212 33.796 33.3771 33.63 33.5372 33.484C34.1292 32.994 34.509 32.524 34.6803 32.072C34.8497 31.62 34.9353 31.052 34.9353 30.368V27.29C34.9353 26.606 34.8497 26.032 34.6803 25.568C34.509 25.102 34.1292 24.626 33.5372 24.138C33.3771 23.992 33.3212 23.832 33.3659 23.662C33.4125 23.49 33.5149 23.404 33.6731 23.404C34.4922 23.404 35.2034 23.282 35.8066 23.038C36.4079 22.794 36.9366 22.506 37.3927 22.178C37.8469 21.848 38.2509 21.542 38.6028 21.26C38.9565 20.98 39.2916 20.802 39.6099 20.73C39.9729 20.656 40.1274 20.73 40.0697 20.95C40.0139 21.17 39.9618 21.402 39.9171 21.646C39.461 24.896 39.3139 27.528 39.474 29.544C39.6322 31.56 40.0306 32.824 40.6673 33.338C40.8498 33.484 40.928 33.672 40.9056 33.906C40.8833 34.138 40.6897 34.254 40.3266 34.254ZM35.8903 20.95C35.209 20.95 34.6747 20.686 34.2874 20.162C33.9002 19.636 33.7867 19.006 33.9468 18.274C34.105 17.516 34.4811 16.882 35.0731 16.368C35.6632 15.854 36.3111 15.598 37.0166 15.598C37.6999 15.598 38.2341 15.854 38.6195 16.368C39.0067 16.882 39.1203 17.516 38.9621 18.274C38.802 19.006 38.4278 19.636 37.8358 20.162C37.2437 20.686 36.5959 20.95 35.8903 20.95Z" fill="#FFFCF9"/>
</g>
<g filter="url(#filter3_d_460_7)">
<path d="M54.3817 33.338C54.6311 33.508 54.7912 33.704 54.8582 33.924C54.9271 34.144 54.7801 34.254 54.4152 34.254H47.3539C47.1938 34.254 47.0523 34.162 46.9276 33.978C46.8029 33.796 46.7973 33.63 46.9109 33.484C47.2292 33.142 47.3428 32.732 47.2515 32.256C47.1603 31.78 46.9779 31.236 46.7061 30.624C46.5925 30.308 46.4715 30.008 46.3468 29.726C46.222 29.446 46.1029 29.184 45.9893 28.94C45.7846 29.77 45.6542 30.612 45.5965 31.468C45.5407 32.324 45.7045 32.994 46.0917 33.484C46.2053 33.63 46.2276 33.796 46.1587 33.978C46.0917 34.162 45.9428 34.254 45.7157 34.254H42.0315C41.8267 34.254 41.741 34.162 41.7764 33.978C41.8099 33.796 41.9402 33.63 42.1674 33.484C42.804 33.118 43.2657 32.678 43.5506 32.164C43.8335 31.652 44.1016 31.052 44.3511 30.368L45.375 27.51C44.783 26.142 44.2599 25.066 43.8056 24.284C43.3514 23.502 42.9474 22.91 42.5937 22.506C42.2418 22.104 41.8956 21.804 41.5549 21.608C41.3259 21.462 41.1732 21.274 41.0932 21.04C41.0131 20.808 41.1565 20.692 41.5195 20.692H48.5472C48.7297 20.692 48.8823 20.778 49.0089 20.95C49.1337 21.12 49.1393 21.292 49.0257 21.462C48.7986 21.78 48.7744 22.378 48.9568 23.258C49.1393 24.138 49.4464 25.116 49.8783 26.19C50.1278 25.336 50.2823 24.45 50.3382 23.534C50.3959 22.616 50.219 21.926 49.8094 21.462C49.6959 21.316 49.6791 21.15 49.7592 20.968C49.8374 20.784 49.9919 20.692 50.219 20.692H53.9032C54.108 20.692 54.1936 20.784 54.1601 20.968C54.1248 21.15 53.9944 21.316 53.7673 21.462C53.1306 21.828 52.6689 22.268 52.386 22.782C52.1011 23.294 51.8349 23.894 51.5836 24.578L50.4927 27.582C51.0828 28.854 51.7381 30.038 52.453 31.138C53.1697 32.238 53.812 32.97 54.3817 33.338Z" fill="#FFFCF9"/>
</g>
<g filter="url(#filter4_d_460_7)">
<path d="M68.5039 33.484C68.6863 33.63 68.7552 33.796 68.7087 33.978C68.664 34.162 68.5504 34.254 68.368 34.254H64.8886C64.2742 34.254 63.779 34.106 63.4048 33.814C63.0288 33.52 62.757 33.228 62.5857 32.934C62.4144 32.64 62.3306 32.494 62.3306 32.494C61.9658 33.032 61.4892 33.46 60.8972 33.776C60.3052 34.094 59.6685 34.254 58.9871 34.254C58.2369 34.254 57.5425 34.058 56.9058 33.666C56.2691 33.276 55.7627 32.75 55.3867 32.09C55.0125 31.432 54.8245 30.71 54.8245 29.928C54.8245 29.122 55.0125 28.396 55.3867 27.748C55.7627 27.1 56.2691 26.582 56.9058 26.19C57.5425 25.8 58.2369 25.604 58.9871 25.604C59.6685 25.604 60.3052 25.762 60.8972 26.08C61.4892 26.398 61.9658 26.826 62.3306 27.364V26.264C62.3306 25.554 62.2506 24.852 62.0905 24.156C61.9323 23.46 61.7051 22.88 61.4091 22.416C61.1131 21.952 60.7613 21.718 60.3517 21.718C60.1004 21.718 59.9701 21.902 59.9589 22.268C59.9477 22.636 60.0445 23.062 60.2493 23.552C60.3852 23.918 60.3275 24.23 60.078 24.486C59.8286 24.742 59.4749 24.938 59.0206 25.072C58.5664 25.206 58.0935 25.262 57.6039 25.238C57.1162 25.212 56.701 25.096 56.3603 24.89C56.0178 24.682 55.8484 24.37 55.8484 23.954C55.8484 23.172 56.2635 22.434 57.0938 21.738C57.9241 21.04 59.123 20.692 60.6924 20.692C61.9211 20.692 63.0176 20.974 63.9838 21.536C64.95 22.098 65.7133 22.88 66.2699 23.882C66.8265 24.884 67.1058 26.044 67.1058 27.364V30.368C67.1058 31.052 67.1914 31.62 67.3608 32.072C67.5321 32.524 67.9137 32.994 68.5039 33.484ZM60.4876 32.274C60.9661 32.274 61.3682 32.042 61.6995 31.578C62.0291 31.114 62.1929 30.564 62.1929 29.928C62.1929 29.294 62.0291 28.744 61.6995 28.28C61.3682 27.816 60.9661 27.582 60.4876 27.582C60.0334 27.582 59.6406 27.816 59.311 28.28C58.9815 28.744 58.8158 29.294 58.8158 29.928C58.8158 30.564 58.9815 31.114 59.311 31.578C59.6406 32.042 60.0334 32.274 60.4876 32.274Z" fill="#FFFCF9"/>
</g>
<g filter="url(#filter5_d_460_7)">
<path d="M89.8941 27.144C89.963 26.826 90.0877 26.636 90.2701 26.576C90.4507 26.514 90.6164 26.55 90.7635 26.686C90.9124 26.82 90.9627 27.02 90.918 27.29C90.7821 28.61 90.3316 29.794 89.5702 30.844C88.8087 31.896 87.8537 32.726 86.7051 33.338C85.5564 33.948 84.3222 34.254 83.0023 34.254C81.7531 34.254 80.5691 34.008 79.4558 33.52C78.3407 33.032 77.3633 32.36 76.5218 31.504C75.6804 30.65 75.0195 29.66 74.5429 28.536C74.0645 27.412 73.8262 26.202 73.8262 24.908C73.8262 23.612 74.0645 22.404 74.5429 21.28C75.0195 20.156 75.6804 19.172 76.5218 18.328C77.3633 17.486 78.3407 16.82 79.4558 16.332C80.5691 15.842 81.7531 15.598 83.0023 15.598C84.1174 15.598 85.1971 15.83 86.2434 16.294C87.2896 16.758 88.1721 17.376 88.8888 18.146C89.6037 18.916 90.0542 19.77 90.2348 20.712C90.4172 21.652 90.2013 22.598 89.5869 23.552C89.2239 24.088 88.7287 24.56 88.1032 24.962C87.4777 25.366 86.8242 25.658 86.141 25.842C85.4596 26.026 84.8285 26.062 84.2477 25.952C83.6687 25.842 83.248 25.548 82.9855 25.072C82.7249 24.596 82.7081 23.906 82.9352 23.002C83.3448 21.39 83.4975 20.136 83.3951 19.246C83.2927 18.354 83.0209 17.754 82.5759 17.45C82.1329 17.144 81.593 17.088 80.9563 17.284C80.2973 17.48 79.7853 18.012 79.4204 18.878C79.0574 19.746 78.875 20.802 78.875 22.048C78.875 23.294 79.0798 24.614 79.4893 26.006C79.8765 27.302 80.4499 28.31 81.2113 29.03C81.9746 29.752 82.8049 30.228 83.7022 30.46C84.6014 30.692 85.482 30.704 86.3458 30.496C87.2115 30.288 87.9673 29.898 88.6151 29.324C89.263 28.75 89.6893 28.022 89.8941 27.144Z" fill="#FFFCF9"/>
</g>
<g filter="url(#filter6_d_460_7)">
<path d="M104.631 33.484C104.813 33.63 104.882 33.796 104.836 33.978C104.791 34.162 104.677 34.254 104.495 34.254H101.016C100.401 34.254 99.9061 34.106 99.5319 33.814C99.1558 33.52 98.884 33.228 98.7128 32.934C98.5415 32.64 98.4577 32.494 98.4577 32.494C98.0928 33.032 97.6163 33.46 97.0242 33.776C96.4322 34.094 95.7956 34.254 95.1142 34.254C94.3639 34.254 93.6696 34.058 93.0329 33.666C92.3962 33.276 91.8898 32.75 91.5138 32.09C91.1396 31.432 90.9515 30.71 90.9515 29.928C90.9515 29.122 91.1396 28.396 91.5138 27.748C91.8898 27.1 92.3962 26.582 93.0329 26.19C93.6696 25.8 94.3639 25.604 95.1142 25.604C95.7956 25.604 96.4322 25.762 97.0242 26.08C97.6163 26.398 98.0928 26.826 98.4577 27.364V26.264C98.4577 25.554 98.3777 24.852 98.2176 24.156C98.0593 23.46 97.8322 22.88 97.5362 22.416C97.2402 21.952 96.8883 21.718 96.4788 21.718C96.2275 21.718 96.0971 21.902 96.086 22.268C96.0748 22.636 96.1716 23.062 96.3764 23.552C96.5123 23.918 96.4546 24.23 96.2051 24.486C95.9557 24.742 95.6019 24.938 95.1477 25.072C94.6935 25.206 94.2206 25.262 93.731 25.238C93.2432 25.212 92.8281 25.096 92.4874 24.89C92.1449 24.682 91.9754 24.37 91.9754 23.954C91.9754 23.172 92.3906 22.434 93.2209 21.738C94.0512 21.04 95.2501 20.692 96.8195 20.692C98.0482 20.692 99.1447 20.974 100.111 21.536C101.077 22.098 101.84 22.88 102.397 23.882C102.954 24.884 103.233 26.044 103.233 27.364V30.368C103.233 31.052 103.318 31.62 103.488 32.072C103.659 32.524 104.041 32.994 104.631 33.484ZM96.6147 32.274C97.0931 32.274 97.4952 32.042 97.8266 31.578C98.1561 31.114 98.32 30.564 98.32 29.928C98.32 29.294 98.1561 28.744 97.8266 28.28C97.4952 27.816 97.0931 27.582 96.6147 27.582C96.1604 27.582 95.7676 27.816 95.4381 28.28C95.1086 28.744 94.9429 29.294 94.9429 29.928C94.9429 30.564 95.1086 31.114 95.4381 31.578C95.7676 32.042 96.1604 32.274 96.6147 32.274Z" fill="#FFFCF9"/>
</g>
<g filter="url(#filter7_d_460_7)">
<path d="M121.484 33.484C121.667 33.63 121.734 33.796 121.689 33.978C121.644 34.162 121.529 34.254 121.348 34.254H114.559C114.196 34.254 114.008 34.144 113.997 33.924C113.985 33.704 114.058 33.508 114.218 33.338C114.65 32.922 114.963 32.28 115.156 31.412C115.35 30.546 115.439 29.598 115.428 28.572C115.417 27.546 115.309 26.562 115.104 25.622C114.9 24.682 114.628 23.906 114.285 23.294C113.944 22.684 113.535 22.378 113.058 22.378C112.716 22.378 112.381 22.616 112.051 23.094C111.722 23.57 111.409 24.162 111.113 24.87C110.93 27.192 110.949 29.08 111.165 30.534C111.381 31.988 111.738 32.922 112.239 33.338C112.422 33.484 112.5 33.672 112.478 33.906C112.455 34.138 112.262 34.254 111.899 34.254H105.245C105.087 34.254 104.984 34.162 104.938 33.978C104.893 33.796 104.949 33.63 105.109 33.484C105.701 32.994 106.081 32.524 106.252 32.072C106.422 31.62 106.507 31.052 106.507 30.368V27.29C106.507 26.606 106.422 26.032 106.252 25.568C106.081 25.102 105.701 24.626 105.109 24.138C104.949 23.992 104.893 23.832 104.938 23.662C104.984 23.49 105.087 23.404 105.245 23.404C106.064 23.404 106.775 23.282 107.378 23.038C107.98 22.794 108.508 22.506 108.965 22.178C109.419 21.848 109.823 21.542 110.175 21.26C110.528 20.98 110.863 20.802 111.182 20.73C111.545 20.656 111.699 20.73 111.642 20.95C111.586 21.17 111.534 21.402 111.489 21.646L111.387 22.416C111.727 21.926 112.12 21.518 112.563 21.188C113.006 20.858 113.501 20.692 114.047 20.692C115.276 20.692 116.339 21.016 117.238 21.664C118.135 22.312 118.835 23.184 119.336 24.284C119.835 25.384 120.086 26.606 120.086 27.95V30.368C120.086 31.052 120.17 31.62 120.341 32.072C120.512 32.524 120.892 32.994 121.484 33.484Z" fill="#FFFCF9"/>
</g>
<g filter="url(#filter8_d_460_7)">
<path d="M136.904 33.4839C137.086 33.6299 137.159 33.7959 137.125 33.9779C137.092 34.1619 136.984 34.2539 136.801 34.2539H128.614C127.363 34.2539 126.22 33.9479 125.185 33.3379C124.15 32.7259 123.327 31.9079 122.712 30.8819C122.098 29.8559 121.791 28.7199 121.791 27.4719C121.791 26.2259 122.098 25.0899 122.712 24.0639C123.327 23.0379 124.15 22.2199 125.185 21.6079C126.22 20.9979 127.363 20.6919 128.614 20.6919C129.342 20.6919 130.023 20.8019 130.662 21.0219C130.457 20.0699 130.114 19.3979 129.638 19.0059C129.455 18.8599 129.386 18.7019 129.433 18.5299C129.478 18.3599 129.58 18.2739 129.74 18.2739C130.559 18.2739 131.274 18.1519 131.888 17.9079C132.503 17.6619 133.043 17.3699 133.51 17.0279C133.975 16.6859 134.396 16.3799 134.772 16.1119C135.146 15.8419 135.495 15.6719 135.813 15.5979C136.176 15.4999 136.336 15.5679 136.289 15.7999C136.245 16.0319 136.198 16.2699 136.154 16.5139C135.993 17.4179 135.869 18.1939 135.777 18.8419C135.686 19.4899 135.619 20.1179 135.573 20.7299C135.528 21.3399 135.506 22.0479 135.506 22.8559V30.3679C135.506 31.0519 135.597 31.6199 135.777 32.0719C135.96 32.5239 136.336 32.9939 136.904 33.4839ZM126.635 27.4719C126.635 28.5239 126.726 29.4819 126.909 30.3499C127.089 31.2179 127.329 31.9139 127.625 32.4399C127.919 32.9639 128.251 33.2279 128.614 33.2279C128.977 33.2279 129.303 32.9639 129.586 32.4399C129.87 31.9139 130.103 31.2179 130.286 30.3499C130.468 29.4819 130.559 28.5239 130.559 27.4719C130.559 26.3979 130.468 25.4259 130.286 24.5599C130.103 23.6919 129.87 23.0019 129.586 22.4879C129.303 21.9759 128.977 21.7179 128.614 21.7179C128.251 21.7179 127.919 21.9759 127.625 22.4879C127.329 23.0019 127.089 23.6919 126.909 24.5599C126.726 25.4259 126.635 26.3979 126.635 27.4719Z" fill="#FFFCF9"/>
</g>
<g filter="url(#filter9_d_460_7)">
<path d="M144.784 33.3379C144.966 33.4839 145.046 33.6719 145.022 33.9059C145 34.1379 144.795 34.2539 144.41 34.2539H137.654C137.495 34.2539 137.393 34.1619 137.346 33.9779C137.302 33.7959 137.358 33.6299 137.518 33.4839C138.11 32.9939 138.489 32.5239 138.661 32.0719C138.83 31.6199 138.916 31.0519 138.916 30.3679V22.1219C138.916 21.4379 138.83 20.8639 138.661 20.3999C138.489 19.9359 138.11 19.4719 137.518 19.0059C137.358 18.8599 137.302 18.7019 137.346 18.5299C137.393 18.3599 137.495 18.2739 137.654 18.2739C138.473 18.2739 139.189 18.1519 139.804 17.9079C140.418 17.6619 140.958 17.3699 141.423 17.0279C141.891 16.6859 142.306 16.3799 142.669 16.1119C143.034 15.8419 143.374 15.6719 143.693 15.5979C144.056 15.4999 144.216 15.5679 144.169 15.7999C144.125 16.0319 144.078 16.2699 144.033 16.5139C143.737 18.2739 143.549 20.0819 143.471 21.9379C143.391 23.7959 143.397 25.5419 143.488 27.1799C143.579 28.8159 143.737 30.1859 143.965 31.2839C144.194 32.3839 144.465 33.0679 144.784 33.3379Z" fill="#FFFCF9"/>
</g>
<g filter="url(#filter10_d_460_7)">
<path d="M157.066 30.038C157.246 29.794 157.44 29.776 157.645 29.984C157.85 30.192 157.896 30.392 157.783 30.588C157.213 31.664 156.394 32.542 155.325 33.228C154.257 33.912 153.063 34.254 151.743 34.254C150.492 34.254 149.349 33.948 148.314 33.338C147.279 32.726 146.456 31.908 145.842 30.882C145.228 29.856 144.92 28.72 144.92 27.472C144.92 26.226 145.228 25.09 145.842 24.064C146.456 23.038 147.298 22.22 148.366 21.608C149.435 20.998 150.652 20.692 152.017 20.692C152.903 20.692 153.773 20.888 154.625 21.28C155.48 21.67 156.178 22.196 156.723 22.856C157.271 23.514 157.542 24.248 157.542 25.054C157.542 25.836 157.321 26.556 156.878 27.216C156.435 27.876 155.848 28.402 155.12 28.792C154.392 29.184 153.586 29.378 152.698 29.378C152.266 29.378 151.851 29.33 151.453 29.232C151.055 29.134 150.675 29 150.31 28.83C150.492 29.44 150.777 29.984 151.163 30.46C151.55 30.936 152.084 31.284 152.767 31.504C153.199 31.626 153.689 31.658 154.234 31.596C154.78 31.536 155.308 31.37 155.82 31.102C156.332 30.832 156.747 30.478 157.066 30.038ZM151.846 21.718C151.572 21.718 151.226 22.006 150.805 22.58C150.384 23.154 150.174 24.028 150.174 25.2C150.174 26.178 150.351 26.948 150.703 27.51C151.055 28.072 151.436 28.352 151.846 28.352C152.3 28.352 152.676 28.028 152.972 27.382C153.268 26.734 153.415 25.958 153.415 25.054C153.415 24.126 153.268 23.338 152.972 22.69C152.676 22.042 152.3 21.718 151.846 21.718Z" fill="#FFFCF9"/>
</g>
<g filter="url(#filter11_d_460_7)">
<mask id="mask0_460_7" style="mask-type:luminance" maskUnits="userSpaceOnUse" x="7" y="39" width="8" height="10">
<path d="M7.06726 39.978H14.5734V48.042H7.06726V39.978Z" fill="white"/>
</mask>
<g mask="url(#mask0_460_7)">
<path d="M14.5734 44.01C11.3546 44.328 11.1164 44.586 10.8204 48.042C10.5243 44.586 10.2842 44.328 7.06726 44.01C10.2842 43.692 10.5243 43.434 10.8204 39.978C11.1164 43.434 11.3565 43.692 14.5734 44.01Z" fill="#FFFCF9"/>
</g>
</g>
<g filter="url(#filter12_d_460_7)">
<mask id="mask1_460_7" style="mask-type:luminance" maskUnits="userSpaceOnUse" x="14" y="44" width="7" height="6">
<path d="M14.6777 44.0662H20.0393V49.8262H14.6777V44.0662Z" fill="white"/>
</mask>
<g mask="url(#mask1_460_7)">
<path d="M19.9332 46.8882C17.6806 47.1122 17.513 47.2922 17.3045 49.7122C17.0979 47.2922 16.9303 47.1122 14.6777 46.8882C16.9303 46.6662 17.0979 46.4862 17.3045 44.0662C17.513 46.4862 17.6806 46.6662 19.9332 46.8882Z" fill="#FFFCF9"/>
</g>
</g>
<g filter="url(#filter13_d_460_7)">
<mask id="mask2_460_7" style="mask-type:luminance" maskUnits="userSpaceOnUse" x="16" y="2" width="9" height="9">
<path d="M16.558 2H24.4216V10.448H16.558V2Z" fill="white"/>
</mask>
<g mask="url(#mask2_460_7)">
<path d="M24.4216 6.22401C21.0502 6.55801 20.8007 6.82801 20.4898 10.448C20.1789 6.82801 19.9294 6.55801 16.558 6.22401C19.9294 5.892 20.1789 5.622 20.4898 2C20.8007 5.622 21.052 5.892 24.4216 6.22401Z" fill="#FFFCF9"/>
</g>
</g>
<g filter="url(#filter14_d_460_7)">
<mask id="mask3_460_7" style="mask-type:luminance" maskUnits="userSpaceOnUse" x="120" y="10" width="5" height="5">
<path d="M120.576 10.074H124.508V14.298H120.576V10.074Z" fill="white"/>
</mask>
<g mask="url(#mask3_460_7)">
<path d="M124.508 12.186C122.823 12.352 122.698 12.488 122.542 14.298C122.387 12.488 122.263 12.352 120.576 12.186C122.263 12.02 122.387 11.886 122.542 10.074C122.698 11.886 122.825 12.02 124.508 12.186Z" fill="#FFFCF9"/>
</g>
</g>
<g filter="url(#filter15_d_460_7)">
<mask id="mask4_460_7" style="mask-type:luminance" maskUnits="userSpaceOnUse" x="64" y="5" width="9" height="10">
<path d="M64.3745 5.80798H72.2381V14.256H64.3745V5.80798Z" fill="white"/>
</mask>
<g mask="url(#mask4_460_7)">
<path d="M72.2381 10.032C68.8667 10.364 68.6154 10.636 68.3063 14.256C67.9954 10.636 67.7441 10.364 64.3745 10.032C67.7441 9.69799 67.9954 9.42999 68.3063 5.80798C68.6154 9.42999 68.8685 9.69799 72.2381 10.032Z" fill="#FFFCF9"/>
</g>
</g>
<g filter="url(#filter16_d_460_7)">
<mask id="mask5_460_7" style="mask-type:luminance" maskUnits="userSpaceOnUse" x="151" y="41" width="5" height="5">
<path d="M151.539 41.046H155.828V45.654H151.539V41.046Z" fill="white"/>
</mask>
<g mask="url(#mask5_460_7)">
<path d="M155.761 43.314C153.95 43.494 153.816 43.64 153.65 45.582C153.482 43.64 153.348 43.494 151.539 43.314C153.348 43.136 153.482 42.992 153.65 41.046C153.816 42.992 153.952 43.136 155.761 43.314Z" fill="#FFFCF9"/>
</g>
</g>
<g filter="url(#filter17_d_460_7)">
<mask id="mask6_460_7" style="mask-type:luminance" maskUnits="userSpaceOnUse" x="154" y="7" width="6" height="7">
<path d="M154.194 7.72607H159.464V13.4861H154.194V7.72607Z" fill="white"/>
</mask>
<g mask="url(#mask6_460_7)">
<path d="M159.421 10.5341C157.18 10.7561 157.012 10.9361 156.807 13.3421C156.601 10.9361 156.433 10.7561 154.194 10.5341C156.433 10.3121 156.601 10.1341 156.807 7.72607C157.012 10.1341 157.18 10.3121 159.421 10.5341Z" fill="#FFFCF9"/>
</g>
</g>
<g filter="url(#filter18_d_460_7)">
<mask id="mask7_460_7" style="mask-type:luminance" maskUnits="userSpaceOnUse" x="157" y="11" width="8" height="8">
<path d="M157.824 11.714H164.23V18.626H157.824V11.714Z" fill="white"/>
</mask>
<g mask="url(#mask7_460_7)">
<path d="M164.213 15.146C161.475 15.416 161.27 15.638 161.018 18.578C160.767 15.638 160.562 15.416 157.824 15.146C160.562 14.876 160.767 14.656 161.018 11.714C161.27 14.656 161.476 14.876 164.213 15.146Z" fill="#FFFCF9"/>
</g>
</g>
<g filter="url(#filter19_d_460_7)">
<mask id="mask8_460_7" style="mask-type:luminance" maskUnits="userSpaceOnUse" x="127" y="42" width="7" height="7">
<path d="M127.698 42.248H133.775V48.7761H127.698V42.248Z" fill="white"/>
</mask>
<g mask="url(#mask8_460_7)">
<path d="M133.775 45.5121C131.17 45.7701 130.977 45.9781 130.737 48.7761C130.498 45.9781 130.305 45.7701 127.698 45.5121C130.305 45.2541 130.498 45.0461 130.737 42.248C130.977 45.0461 131.172 45.2541 133.775 45.5121Z" fill="#FFFCF9"/>
</g>
</g>
<g filter="url(#filter20_d_460_7)">
<path d="M35.6055 47.9957C35.5757 47.9957 35.531 47.9957 35.4733 47.9937C35.4137 47.9897 35.3616 47.9857 35.3206 47.9757C35.2611 47.9617 35.2201 47.9237 35.1996 47.8597C35.1103 47.6057 35.0265 47.3057 34.9446 46.9597C34.8645 46.6137 34.7919 46.2417 34.7268 45.8397C34.6616 45.4397 34.6039 45.0257 34.5555 44.5997C34.5071 44.1717 34.4699 43.7517 34.4438 43.3377C34.4308 43.2557 34.4661 43.2097 34.5518 43.1997C34.5816 43.1957 34.6188 43.1917 34.6653 43.1877C34.7119 43.1817 34.751 43.1797 34.7807 43.1797C34.8105 43.1797 34.8496 43.1817 34.9018 43.1877C34.952 43.1917 34.9948 43.1957 35.0283 43.1997C35.0954 43.2097 35.1289 43.2437 35.1289 43.3037C35.1587 44.0677 35.2089 44.7337 35.2797 45.3017C35.3486 45.8697 35.423 46.3017 35.5049 46.5977C35.572 46.8517 35.6371 46.8517 35.7004 46.5977C35.7898 46.2977 35.8717 45.8637 35.9461 45.2977C36.0187 44.7317 36.069 44.0677 36.0951 43.3037C36.0988 43.2437 36.1323 43.2097 36.1956 43.1997C36.231 43.1957 36.2738 43.1917 36.3259 43.1897C36.3799 43.1877 36.4134 43.1877 36.432 43.1877C36.4488 43.1877 36.486 43.1877 36.5456 43.1877C36.6052 43.1877 36.6498 43.1917 36.6796 43.1997C36.7597 43.2097 36.7951 43.2557 36.7876 43.3377C36.7578 43.7517 36.7187 44.1717 36.6685 44.5997C36.6201 45.0257 36.5623 45.4397 36.4953 45.8397C36.4264 46.2417 36.3538 46.6137 36.2719 46.9597C36.1919 47.3057 36.1081 47.6057 36.0187 47.8597C35.9983 47.9237 35.9555 47.9617 35.8922 47.9757C35.8493 47.9857 35.7991 47.9897 35.7432 47.9937C35.6855 47.9957 35.639 47.9957 35.6055 47.9957Z" fill="#FFFCF9"/>
</g>
<g filter="url(#filter21_d_460_7)">
<path d="M40.6403 47.9957C40.5472 47.9957 40.4411 47.9957 40.3201 47.9957C40.1991 47.9957 40.0837 47.9937 39.972 47.9897C39.8584 47.9857 39.7672 47.9797 39.6946 47.9757C39.6108 47.9657 39.568 47.9237 39.568 47.8457C39.568 47.4597 39.5717 47.0577 39.5773 46.6417C39.5847 46.2257 39.5903 45.8157 39.5959 45.4117C39.6034 45.0057 39.6108 44.6237 39.622 44.2637C39.6332 43.9057 39.6443 43.5917 39.6574 43.3237C39.6574 43.2877 39.6704 43.2577 39.6946 43.2377C39.7206 43.2177 39.7486 43.2057 39.7784 43.1997C39.8323 43.1917 39.9105 43.1857 40.0129 43.1837C40.1135 43.1817 40.2214 43.1797 40.3369 43.1797C40.4504 43.1797 40.5509 43.1797 40.6347 43.1797C40.7743 43.1797 40.9196 43.1817 41.0703 43.1837C41.2193 43.1857 41.357 43.1917 41.4799 43.1997C41.5562 43.2097 41.5953 43.2497 41.6009 43.3237C41.6046 43.3557 41.6084 43.4177 41.6121 43.5117C41.6177 43.6037 41.6195 43.7037 41.6214 43.8117C41.6251 43.9177 41.627 44.0177 41.6326 44.1077C41.6363 44.1997 41.6382 44.2597 41.6382 44.2917C41.6419 44.3697 41.6195 44.4157 41.5711 44.4277C41.5227 44.4417 41.4818 44.4117 41.4483 44.3397C41.3794 44.1937 41.2882 44.0817 41.1709 44.0017C41.0555 43.9217 40.9028 43.8817 40.7166 43.8817C40.5733 43.8817 40.4504 43.9277 40.3499 44.0157C40.2475 44.1037 40.1972 44.2377 40.1972 44.4157V44.4957C40.1972 44.6417 40.2363 44.7597 40.3145 44.8517C40.3927 44.9417 40.5007 44.9877 40.6403 44.9877C40.7352 44.9877 40.8283 44.9837 40.9233 44.9737C41.0182 44.9657 41.1094 44.9537 41.1932 44.9397C41.2267 44.9317 41.2565 44.9397 41.2826 44.9637C41.3086 44.9897 41.3198 45.0197 41.3198 45.0557L41.3273 45.6557C41.3273 45.7337 41.3049 45.7777 41.264 45.7857C41.2211 45.7957 41.1839 45.7697 41.1485 45.7117C41.0908 45.6297 41.0126 45.5717 40.9177 45.5397C40.8227 45.5077 40.7259 45.4957 40.6291 45.4997C40.5063 45.4997 40.4039 45.5517 40.3201 45.6557C40.2382 45.7617 40.1972 45.9277 40.1972 46.1537V46.4417C40.1972 46.7457 40.2568 46.9597 40.3741 47.0857C40.4932 47.2097 40.631 47.2737 40.7874 47.2737C40.9773 47.2737 41.1281 47.2317 41.2379 47.1497C41.3477 47.0677 41.4427 46.9257 41.5246 46.7197C41.5451 46.6477 41.5823 46.6157 41.6344 46.6217C41.6884 46.6277 41.7163 46.6737 41.7201 46.7537C41.7256 46.7957 41.7294 46.8677 41.7331 46.9697C41.7368 47.0717 41.7424 47.1837 41.7461 47.3077C41.7498 47.4297 41.7536 47.5417 41.7554 47.6457C41.7573 47.7477 41.7592 47.8157 41.7592 47.8537C41.7592 47.9257 41.7219 47.9657 41.6512 47.9757C41.5153 47.9857 41.3496 47.9897 41.156 47.9937C40.9605 47.9957 40.7892 47.9957 40.6403 47.9957Z" fill="#FFFCF9"/>
</g>
<g filter="url(#filter22_d_460_7)">
<path d="M45.6249 47.9957C45.5318 47.9957 45.4257 47.9957 45.3047 47.9957C45.1837 47.9957 45.0683 47.9937 44.9566 47.9897C44.843 47.9857 44.7518 47.9797 44.6792 47.9757C44.5954 47.9657 44.5526 47.9237 44.5526 47.8457C44.5526 47.4597 44.5563 47.0577 44.5619 46.6417C44.5694 46.2257 44.575 45.8157 44.5805 45.4117C44.588 45.0057 44.5954 44.6237 44.6066 44.2637C44.6178 43.9057 44.6289 43.5917 44.642 43.3237C44.642 43.2877 44.655 43.2577 44.6792 43.2377C44.7053 43.2177 44.7332 43.2057 44.763 43.1997C44.8263 43.1917 44.8803 43.1857 44.9249 43.1837C44.9678 43.1817 45.0124 43.1797 45.0534 43.1797C45.0832 43.1797 45.1204 43.1817 45.1651 43.1837C45.2098 43.1857 45.2489 43.1917 45.2824 43.1997C45.3159 43.2057 45.3475 43.2177 45.3755 43.2417C45.4034 43.2637 45.4127 43.2937 45.4034 43.3297C45.3364 43.8117 45.2805 44.3077 45.2377 44.8137C45.1967 45.3217 45.1763 45.8477 45.1819 46.3937C45.1856 46.7077 45.2396 46.9317 45.3438 47.0677C45.4462 47.2057 45.5896 47.2737 45.772 47.2737C45.9582 47.2737 46.1071 47.2317 46.2169 47.1497C46.3268 47.0677 46.4198 46.9257 46.4962 46.7197C46.5204 46.6477 46.5595 46.6157 46.6097 46.6217C46.66 46.6277 46.6879 46.6737 46.6935 46.7537C46.6972 46.7957 46.701 46.8677 46.7047 46.9697C46.7103 47.0717 46.714 47.1837 46.7177 47.3077C46.7214 47.4297 46.727 47.5417 46.7307 47.6457C46.7345 47.7477 46.7363 47.8157 46.7363 47.8537C46.7363 47.9257 46.701 47.9657 46.6284 47.9757C46.4943 47.9857 46.3305 47.9897 46.1369 47.9937C45.9451 47.9957 45.7739 47.9957 45.6249 47.9957Z" fill="#FFFCF9"/>
</g>
<g filter="url(#filter23_d_460_7)">
<path d="M49.8161 47.9957C49.7789 47.9957 49.7379 47.9937 49.697 47.9897C49.6542 47.9857 49.6169 47.9797 49.589 47.9757C49.5034 47.9617 49.468 47.9157 49.481 47.8397C49.5145 47.4257 49.5611 47.0077 49.6206 46.5837C49.6784 46.1617 49.7454 45.7497 49.8161 45.3497C49.8887 44.9497 49.9669 44.5757 50.0488 44.2277C50.1307 43.8797 50.2126 43.5757 50.2927 43.3157C50.315 43.2537 50.356 43.2137 50.4193 43.1997C50.4584 43.1917 50.5068 43.1857 50.5664 43.1837C50.6259 43.1817 50.6725 43.1797 50.706 43.1797C50.7395 43.1797 50.786 43.1817 50.8419 43.1837C50.8996 43.1857 50.9499 43.1917 50.9908 43.1997C51.0541 43.2137 51.0969 43.2537 51.1193 43.3157C51.203 43.5757 51.285 43.8797 51.3669 44.2277C51.4469 44.5757 51.5233 44.9497 51.594 45.3497C51.6666 45.7497 51.7318 46.1617 51.7876 46.5837C51.8453 47.0077 51.8919 47.4257 51.9254 47.8397C51.9458 47.9157 51.9123 47.9617 51.823 47.9757C51.7932 47.9797 51.7522 47.9857 51.6964 47.9897C51.6405 47.9937 51.6014 47.9957 51.5754 47.9957C51.5456 47.9957 51.5009 47.9937 51.4432 47.9897C51.3836 47.9857 51.3371 47.9797 51.3017 47.9757C51.2347 47.9577 51.2012 47.9197 51.2012 47.8597C51.2142 47.7137 51.2161 47.5617 51.2105 47.4017C51.2049 47.2437 51.19 47.0897 51.1695 46.9397C51.123 46.7837 51.0057 46.7077 50.8195 46.7077H50.585C50.4919 46.7117 50.4174 46.7337 50.3597 46.7757C50.302 46.8157 50.2629 46.8697 50.2424 46.9397C50.222 47.0797 50.2071 47.2317 50.1978 47.3957C50.1884 47.5597 50.1922 47.7137 50.2033 47.8597C50.2089 47.8917 50.1996 47.9157 50.1791 47.9357C50.1568 47.9537 50.1326 47.9657 50.1028 47.9757C50.0693 47.9797 50.0246 47.9857 49.9688 47.9897C49.9148 47.9937 49.8627 47.9957 49.8161 47.9957ZM50.6483 46.2637H50.7563C50.8456 46.2597 50.9108 46.2297 50.9536 46.1777C50.9964 46.1257 51.0113 46.0617 50.9983 45.9837C50.9852 45.7557 50.9629 45.5297 50.9312 45.3017C50.8996 45.0737 50.8586 44.8277 50.8065 44.5657C50.7786 44.4337 50.7432 44.3677 50.7023 44.3677C50.6632 44.3677 50.6278 44.4337 50.598 44.5657C50.5477 44.8277 50.5068 45.0737 50.477 45.3017C50.4472 45.5297 50.4267 45.7557 50.4137 45.9837C50.4007 46.0617 50.4156 46.1257 50.4547 46.1777C50.4956 46.2297 50.5589 46.2597 50.6483 46.2637Z" fill="#FFFCF9"/>
</g>
<g filter="url(#filter24_d_460_7)">
<path d="M55.7672 48.0157C55.6052 48.0157 55.4321 47.9937 55.2459 47.9477C55.0598 47.9037 54.8922 47.8377 54.7452 47.7497C54.693 47.7137 54.6688 47.6537 54.6688 47.5657C54.6688 47.4477 54.6688 47.3317 54.6707 47.2157C54.6725 47.0997 54.6744 46.9817 54.6744 46.8637C54.6744 46.7737 54.6967 46.7217 54.7452 46.7097C54.7917 46.6997 54.8308 46.7257 54.8643 46.7897C54.9834 46.9657 55.1175 47.0917 55.2683 47.1677C55.4191 47.2417 55.5699 47.2797 55.7225 47.2797C55.8919 47.2797 56.0278 47.2337 56.1284 47.1437C56.2307 47.0517 56.281 46.9177 56.281 46.7417C56.281 46.5817 56.2438 46.4417 56.1693 46.3217C56.0948 46.2017 55.9999 46.0877 55.8845 45.9837C55.7672 45.8797 55.6443 45.7737 55.5122 45.6697C55.3818 45.5657 55.2571 45.4517 55.1417 45.3297C55.0244 45.2057 54.9295 45.0657 54.855 44.9057C54.7805 44.7477 54.7452 44.5617 54.7452 44.3537C54.7452 44.1037 54.7954 43.8897 54.8997 43.7117C55.0039 43.5357 55.1435 43.3977 55.3185 43.3037C55.4954 43.2077 55.6927 43.1597 55.9124 43.1597C56.052 43.1597 56.1917 43.1777 56.3294 43.2137C56.4653 43.2497 56.5882 43.3057 56.6943 43.3777C56.752 43.4277 56.7818 43.4897 56.7818 43.5617V44.2037C56.7818 44.2857 56.7595 44.3337 56.7129 44.3457C56.6664 44.3597 56.6236 44.3357 56.5863 44.2717C56.4932 44.1397 56.3909 44.0437 56.281 43.9857C56.1712 43.9257 56.0595 43.8957 55.9441 43.8957C55.8044 43.8957 55.6778 43.9337 55.5661 44.0097C55.4544 44.0837 55.3986 44.2017 55.3986 44.3597C55.3986 44.4917 55.4358 44.6177 55.5103 44.7357C55.5829 44.8537 55.6778 44.9677 55.7951 45.0797C55.9124 45.1917 56.0371 45.3057 56.1693 45.4237C56.3034 45.5417 56.4281 45.6677 56.5435 45.7997C56.6608 45.9317 56.7557 46.0777 56.8302 46.2397C56.9047 46.4017 56.9419 46.5817 56.9419 46.7817C56.9419 47.1637 56.8339 47.4657 56.618 47.6857C56.402 47.9057 56.1172 48.0157 55.7672 48.0157Z" fill="#FFFCF9"/>
</g>
<g filter="url(#filter25_d_460_7)">
<path d="M63.8049 47.9957C63.7677 47.9957 63.7267 47.9937 63.6857 47.9897C63.6429 47.9857 63.6057 47.9797 63.5778 47.9757C63.4921 47.9617 63.4568 47.9157 63.4698 47.8397C63.5033 47.4257 63.5498 47.0077 63.6094 46.5837C63.6671 46.1617 63.7341 45.7497 63.8049 45.3497C63.8775 44.9497 63.9557 44.5757 64.0376 44.2277C64.1195 43.8797 64.2014 43.5757 64.2815 43.3157C64.3038 43.2537 64.3448 43.2137 64.4081 43.1997C64.4472 43.1917 64.4956 43.1857 64.5551 43.1837C64.6147 43.1817 64.6612 43.1797 64.6948 43.1797C64.7283 43.1797 64.7748 43.1817 64.8307 43.1837C64.8884 43.1857 64.9386 43.1917 64.9796 43.1997C65.0429 43.2137 65.0857 43.2537 65.108 43.3157C65.1918 43.5757 65.2737 43.8797 65.3556 44.2277C65.4357 44.5757 65.512 44.9497 65.5828 45.3497C65.6554 45.7497 65.7205 46.1617 65.7764 46.5837C65.8341 47.0077 65.8806 47.4257 65.9141 47.8397C65.9346 47.9157 65.9011 47.9617 65.8117 47.9757C65.782 47.9797 65.741 47.9857 65.6852 47.9897C65.6293 47.9937 65.5902 47.9957 65.5641 47.9957C65.5344 47.9957 65.4897 47.9937 65.432 47.9897C65.3724 47.9857 65.3259 47.9797 65.2905 47.9757C65.2235 47.9577 65.19 47.9197 65.19 47.8597C65.203 47.7137 65.2048 47.5617 65.1993 47.4017C65.1937 47.2437 65.1788 47.0897 65.1583 46.9397C65.1118 46.7837 64.9945 46.7077 64.8083 46.7077H64.5737C64.4807 46.7117 64.4062 46.7337 64.3485 46.7757C64.2908 46.8157 64.2517 46.8697 64.2312 46.9397C64.2107 47.0797 64.1958 47.2317 64.1865 47.3957C64.1772 47.5597 64.1809 47.7137 64.1921 47.8597C64.1977 47.8917 64.1884 47.9157 64.1679 47.9357C64.1456 47.9537 64.1214 47.9657 64.0916 47.9757C64.0581 47.9797 64.0134 47.9857 63.9575 47.9897C63.9036 47.9937 63.8514 47.9957 63.8049 47.9957ZM64.637 46.2637H64.745C64.8344 46.2597 64.8995 46.2297 64.9424 46.1777C64.9852 46.1257 65.0001 46.0617 64.987 45.9837C64.974 45.7557 64.9517 45.5297 64.92 45.3017C64.8884 45.0737 64.8474 44.8277 64.7953 44.5657C64.7674 44.4337 64.732 44.3677 64.691 44.3677C64.6519 44.3677 64.6166 44.4337 64.5868 44.5657C64.5365 44.8277 64.4956 45.0737 64.4658 45.3017C64.436 45.5297 64.4155 45.7557 64.4025 45.9837C64.3894 46.0617 64.4043 46.1257 64.4434 46.1777C64.4844 46.2297 64.5477 46.2597 64.637 46.2637Z" fill="#FFFCF9"/>
</g>
<g filter="url(#filter26_d_460_7)">
<path d="M69.0765 47.9958C69.0299 47.9958 68.9815 47.9938 68.9294 47.9898C68.8791 47.9858 68.8438 47.9798 68.8214 47.9758C68.7376 47.9538 68.6948 47.9098 68.6948 47.8458C68.6948 47.7278 68.6967 47.5518 68.7004 47.3178C68.706 47.0838 68.7116 46.8178 68.7172 46.5198C68.7227 46.2218 68.7302 45.9118 68.7358 45.5878C68.7432 45.2658 68.7488 44.9558 68.7544 44.6578C68.7618 44.3598 68.7674 44.0918 68.7712 43.8558C68.7749 43.6198 68.7767 43.4398 68.7767 43.3158C68.7767 43.2798 68.7898 43.2518 68.8158 43.2318C68.84 43.2118 68.868 43.1978 68.8977 43.1938C68.9368 43.1898 69.002 43.1838 69.0951 43.1798C69.1882 43.1758 69.2924 43.1718 69.406 43.1698C69.5195 43.1678 69.6201 43.1658 69.7038 43.1658C70.0818 43.1658 70.3815 43.2478 70.603 43.4078C70.8246 43.5698 70.9363 43.8258 70.9363 44.1758C70.9363 44.4218 70.8748 44.6678 70.7519 44.9138C70.6291 45.1578 70.4429 45.3498 70.1935 45.4858C70.1599 45.5038 70.1432 45.5278 70.1432 45.5578C70.1432 45.5878 70.1599 45.6118 70.1935 45.6298C70.3796 45.7238 70.5267 45.8578 70.6309 46.0278C70.7371 46.1978 70.8134 46.4258 70.8562 46.7098C70.9009 46.9938 70.9232 47.3618 70.9232 47.8118C70.9232 47.8618 70.9102 47.8998 70.8823 47.9238C70.8543 47.9498 70.8227 47.9658 70.7836 47.9758C70.7408 47.9858 70.6998 47.9898 70.657 47.9938C70.6142 47.9958 70.5788 47.9958 70.549 47.9958C70.5192 47.9958 70.4764 47.9938 70.4224 47.9898C70.3666 47.9858 70.32 47.9798 70.2828 47.9758C70.2493 47.9658 70.2158 47.9498 70.1841 47.9238C70.1525 47.8998 70.1357 47.8638 70.1357 47.8198C70.1488 47.5778 70.1432 47.3398 70.1171 47.1058C70.0911 46.8718 70.052 46.6598 69.9961 46.4718C69.9421 46.2838 69.8751 46.1318 69.7969 46.0178C69.7187 45.9038 69.6312 45.8478 69.5326 45.8478C69.432 45.8478 69.3799 45.9358 69.3799 46.1138C69.3799 46.4318 69.3948 46.7398 69.4246 47.0378C69.4544 47.3358 69.4786 47.5998 69.4953 47.8318C69.4991 47.8698 69.4879 47.8998 69.46 47.9238C69.432 47.9498 69.4023 47.9658 69.3687 47.9758C69.2794 47.9898 69.1826 47.9958 69.0765 47.9958ZM69.5772 45.1998C69.7969 45.1178 69.9701 45.0018 70.0948 44.8558C70.2195 44.7078 70.2828 44.5598 70.2828 44.4158C70.2828 44.0958 70.0836 43.9378 69.6852 43.9378C69.6517 43.9378 69.6201 43.9378 69.594 43.9378C69.5661 43.9378 69.5382 43.9398 69.5084 43.9438C69.4655 43.9438 69.432 43.9598 69.4097 43.9878C69.3855 44.0178 69.3725 44.0558 69.3687 44.1018C69.3594 44.2278 69.3538 44.3878 69.3483 44.5818C69.3445 44.7758 69.3501 44.9498 69.3687 45.1038C69.3762 45.1758 69.4004 45.2178 69.4376 45.2298C69.4767 45.2418 69.5233 45.2318 69.5772 45.1998Z" fill="#FFFCF9"/>
</g>
<g filter="url(#filter27_d_460_7)">
<path d="M74.8484 47.9957C74.8224 47.9957 74.7796 47.9937 74.7181 47.9897C74.6567 47.9857 74.6139 47.9797 74.5878 47.9757C74.5543 47.9657 74.5245 47.9497 74.4984 47.9277C74.4724 47.9057 74.4612 47.8757 74.4612 47.8397C74.4612 47.7657 74.4631 47.6457 74.4705 47.4737C74.4761 47.3037 74.4836 47.1057 74.4891 46.8777C74.4947 46.6497 74.5022 46.4117 74.5115 46.1617C74.5189 45.9117 74.5282 45.6657 74.5375 45.4277C74.545 45.1897 74.5524 44.9757 74.5599 44.7857C74.5655 44.5977 74.5692 44.4537 74.5692 44.3537C74.5692 44.1937 74.5562 44.0797 74.5301 44.0097C74.5059 43.9377 74.4538 43.9037 74.3774 43.9037C74.2713 43.9037 74.1764 43.9437 74.0889 44.0217C74.0014 44.1017 73.9306 44.2097 73.8767 44.3457C73.8506 44.4057 73.8134 44.4357 73.7612 44.4377C73.711 44.4417 73.6868 44.3937 73.6868 44.2997C73.6868 44.2537 73.6868 44.1857 73.6886 44.0937C73.6905 44.0037 73.6924 43.9057 73.6961 43.8017C73.6979 43.6957 73.6998 43.5997 73.7017 43.5117C73.7035 43.4217 73.7054 43.3617 73.7054 43.3297C73.7184 43.2537 73.7575 43.2097 73.8264 43.1997C73.9437 43.1877 74.1019 43.1797 74.2993 43.1797C74.4947 43.1797 74.6772 43.1797 74.841 43.1797C75.0104 43.1797 75.1928 43.1817 75.3883 43.1837C75.5819 43.1857 75.7364 43.1917 75.8519 43.1997C75.9226 43.2097 75.9654 43.2537 75.9785 43.3297C75.9822 43.3617 75.9859 43.4217 75.9878 43.5117C75.9896 43.5997 75.9915 43.6977 75.9934 43.8037C75.9971 43.9117 75.9971 44.0097 75.9971 44.1017C75.9971 44.1917 75.9971 44.2577 75.9971 44.2997C75.9971 44.3937 75.971 44.4417 75.9208 44.4377C75.8705 44.4357 75.8314 44.4057 75.8072 44.3457C75.7551 44.2057 75.6899 44.0957 75.6061 44.0197C75.5242 43.9417 75.4256 43.9037 75.312 43.9037C75.2357 43.9037 75.1835 43.9377 75.1593 44.0097C75.1333 44.0797 75.1202 44.1937 75.1202 44.3537C75.1258 44.4497 75.1295 44.5897 75.137 44.7757C75.1426 44.9637 75.15 45.1757 75.1593 45.4137C75.1668 45.6537 75.1761 45.8977 75.1835 46.1517C75.1928 46.4037 75.2022 46.6437 75.2096 46.8737C75.2189 47.1037 75.2264 47.3037 75.2357 47.4737C75.2431 47.6457 75.2487 47.7657 75.2487 47.8397C75.2487 47.8757 75.2338 47.9057 75.204 47.9277C75.1742 47.9497 75.1407 47.9657 75.1016 47.9757C75.0774 47.9797 75.0346 47.9857 74.975 47.9897C74.9155 47.9937 74.8726 47.9957 74.8484 47.9957Z" fill="#FFFCF9"/>
</g>
<g filter="url(#filter28_d_460_7)">
<path d="M79.819 47.9957C79.7259 47.9957 79.6198 47.9957 79.4988 47.9957C79.3778 47.9957 79.2624 47.9937 79.1507 47.9897C79.0371 47.9857 78.9459 47.9797 78.8733 47.9757C78.7895 47.9657 78.7467 47.9237 78.7467 47.8457C78.7467 47.4597 78.7504 47.0577 78.756 46.6417C78.7635 46.2257 78.769 45.8157 78.7746 45.4117C78.7821 45.0057 78.7895 44.6237 78.8007 44.2637C78.8119 43.9057 78.823 43.5917 78.8361 43.3237C78.8361 43.2877 78.8491 43.2577 78.8733 43.2377C78.8994 43.2177 78.9273 43.2057 78.9571 43.1997C79.0111 43.1917 79.0892 43.1857 79.1916 43.1837C79.2922 43.1817 79.4001 43.1797 79.5156 43.1797C79.6291 43.1797 79.7297 43.1797 79.8134 43.1797C79.9531 43.1797 80.0983 43.1817 80.2491 43.1837C80.398 43.1857 80.5358 43.1917 80.6586 43.1997C80.7349 43.2097 80.774 43.2497 80.7796 43.3237C80.7834 43.3557 80.7871 43.4177 80.7908 43.5117C80.7964 43.6037 80.7982 43.7037 80.8001 43.8117C80.8038 43.9177 80.8057 44.0177 80.8113 44.1077C80.815 44.1997 80.8169 44.2597 80.8169 44.2917C80.8206 44.3697 80.7982 44.4157 80.7498 44.4277C80.7014 44.4417 80.6605 44.4117 80.627 44.3397C80.5581 44.1937 80.4669 44.0817 80.3496 44.0017C80.2342 43.9217 80.0815 43.8817 79.8953 43.8817C79.752 43.8817 79.6291 43.9277 79.5286 44.0157C79.4262 44.1037 79.3759 44.2377 79.3759 44.4157V44.4957C79.3759 44.6417 79.415 44.7597 79.4932 44.8517C79.5714 44.9417 79.6794 44.9877 79.819 44.9877C79.914 44.9877 80.007 44.9837 80.102 44.9737C80.1969 44.9657 80.2882 44.9537 80.3719 44.9397C80.4054 44.9317 80.4352 44.9397 80.4613 44.9637C80.4873 44.9897 80.4985 45.0197 80.4985 45.0557L80.506 45.6557C80.506 45.7337 80.4836 45.7777 80.4427 45.7857C80.3999 45.7957 80.3626 45.7697 80.3272 45.7117C80.2695 45.6297 80.1913 45.5717 80.0964 45.5397C80.0015 45.5077 79.9047 45.4957 79.8078 45.4997C79.685 45.4997 79.5826 45.5517 79.4988 45.6557C79.4169 45.7617 79.3759 45.9277 79.3759 46.1537V46.4417C79.3759 46.7457 79.4355 46.9597 79.5528 47.0857C79.6719 47.2097 79.8097 47.2737 79.9661 47.2737C80.156 47.2737 80.3068 47.2317 80.4166 47.1497C80.5264 47.0677 80.6214 46.9257 80.7033 46.7197C80.7238 46.6477 80.761 46.6157 80.8131 46.6217C80.8671 46.6277 80.8951 46.6737 80.8988 46.7537C80.9044 46.7957 80.9081 46.8677 80.9118 46.9697C80.9155 47.0717 80.9211 47.1837 80.9248 47.3077C80.9286 47.4297 80.9323 47.5417 80.9341 47.6457C80.936 47.7477 80.9379 47.8157 80.9379 47.8537C80.9379 47.9257 80.9006 47.9657 80.8299 47.9757C80.694 47.9857 80.5283 47.9897 80.3347 47.9937C80.1392 47.9957 79.9679 47.9957 79.819 47.9957Z" fill="#FFFCF9"/>
</g>
<g filter="url(#filter29_d_460_7)">
<path d="M84.7925 48.0157C84.6305 48.0157 84.4574 47.9937 84.2712 47.9477C84.085 47.9037 83.9175 47.8377 83.7704 47.7497C83.7183 47.7137 83.6941 47.6537 83.6941 47.5657C83.6941 47.4477 83.6941 47.3317 83.696 47.2157C83.6978 47.0997 83.6997 46.9817 83.6997 46.8637C83.6997 46.7737 83.722 46.7217 83.7704 46.7097C83.817 46.6997 83.8561 46.7257 83.8896 46.7897C84.0087 46.9657 84.1427 47.0917 84.2935 47.1677C84.4443 47.2417 84.5951 47.2797 84.7478 47.2797C84.9172 47.2797 85.0531 47.2337 85.1536 47.1437C85.256 47.0517 85.3063 46.9177 85.3063 46.7417C85.3063 46.5817 85.269 46.4417 85.1946 46.3217C85.1201 46.2017 85.0252 46.0877 84.9098 45.9837C84.7925 45.8797 84.6696 45.7737 84.5374 45.6697C84.4071 45.5657 84.2824 45.4517 84.167 45.3297C84.0497 45.2057 83.9547 45.0657 83.8803 44.9057C83.8058 44.7477 83.7704 44.5617 83.7704 44.3537C83.7704 44.1037 83.8207 43.8897 83.9249 43.7117C84.0292 43.5357 84.1688 43.3977 84.3438 43.3037C84.5207 43.2077 84.718 43.1597 84.9377 43.1597C85.0773 43.1597 85.2169 43.1777 85.3547 43.2137C85.4906 43.2497 85.6135 43.3057 85.7196 43.3777C85.7773 43.4277 85.8071 43.4897 85.8071 43.5617V44.2037C85.8071 44.2857 85.7847 44.3337 85.7382 44.3457C85.6916 44.3597 85.6488 44.3357 85.6116 44.2717C85.5185 44.1397 85.4161 44.0437 85.3063 43.9857C85.1964 43.9257 85.0847 43.8957 84.9693 43.8957C84.8297 43.8957 84.7031 43.9337 84.5914 44.0097C84.4797 44.0837 84.4239 44.2017 84.4239 44.3597C84.4239 44.4917 84.4611 44.6177 84.5356 44.7357C84.6082 44.8537 84.7031 44.9677 84.8204 45.0797C84.9377 45.1917 85.0624 45.3057 85.1946 45.4237C85.3286 45.5417 85.4534 45.6677 85.5688 45.7997C85.6861 45.9317 85.781 46.0777 85.8555 46.2397C85.9299 46.4017 85.9672 46.5817 85.9672 46.7817C85.9672 47.1637 85.8592 47.4657 85.6432 47.6857C85.4273 47.9057 85.1425 48.0157 84.7925 48.0157Z" fill="#FFFCF9"/>
</g>
<g filter="url(#filter30_d_460_7)">
<path d="M89.0518 47.9957C89.0146 47.9957 88.9736 47.9937 88.9327 47.9897C88.8899 47.9857 88.8526 47.9797 88.8247 47.9757C88.7391 47.9617 88.7037 47.9157 88.7167 47.8397C88.7502 47.4257 88.7968 47.0077 88.8564 46.5837C88.9141 46.1617 88.9811 45.7497 89.0518 45.3497C89.1244 44.9497 89.2026 44.5757 89.2845 44.2277C89.3665 43.8797 89.4484 43.5757 89.5284 43.3157C89.5508 43.2537 89.5917 43.2137 89.655 43.1997C89.6941 43.1917 89.7425 43.1857 89.8021 43.1837C89.8617 43.1817 89.9082 43.1797 89.9417 43.1797C89.9752 43.1797 90.0218 43.1817 90.0776 43.1837C90.1353 43.1857 90.1856 43.1917 90.2265 43.1997C90.2898 43.2137 90.3327 43.2537 90.355 43.3157C90.4388 43.5757 90.5207 43.8797 90.6026 44.2277C90.6826 44.5757 90.759 44.9497 90.8297 45.3497C90.9023 45.7497 90.9675 46.1617 91.0233 46.5837C91.081 47.0077 91.1276 47.4257 91.1611 47.8397C91.1816 47.9157 91.1481 47.9617 91.0587 47.9757C91.0289 47.9797 90.988 47.9857 90.9321 47.9897C90.8763 47.9937 90.8372 47.9957 90.8111 47.9957C90.7813 47.9957 90.7366 47.9937 90.6789 47.9897C90.6193 47.9857 90.5728 47.9797 90.5374 47.9757C90.4704 47.9577 90.4369 47.9197 90.4369 47.8597C90.4499 47.7137 90.4518 47.5617 90.4462 47.4017C90.4406 47.2437 90.4257 47.0897 90.4053 46.9397C90.3587 46.7837 90.2414 46.7077 90.0553 46.7077H89.8207C89.7276 46.7117 89.6531 46.7337 89.5954 46.7757C89.5377 46.8157 89.4986 46.8697 89.4782 46.9397C89.4577 47.0797 89.4428 47.2317 89.4335 47.3957C89.4242 47.5597 89.4279 47.7137 89.4391 47.8597C89.4446 47.8917 89.4353 47.9157 89.4149 47.9357C89.3925 47.9537 89.3683 47.9657 89.3385 47.9757C89.305 47.9797 89.2603 47.9857 89.2045 47.9897C89.1505 47.9937 89.0984 47.9957 89.0518 47.9957ZM89.884 46.2637H89.992C90.0813 46.2597 90.1465 46.2297 90.1893 46.1777C90.2321 46.1257 90.247 46.0617 90.234 45.9837C90.221 45.7557 90.1986 45.5297 90.167 45.3017C90.1353 45.0737 90.0944 44.8277 90.0422 44.5657C90.0143 44.4337 89.9789 44.3677 89.938 44.3677C89.8989 44.3677 89.8635 44.4337 89.8337 44.5657C89.7835 44.8277 89.7425 45.0737 89.7127 45.3017C89.6829 45.5297 89.6625 45.7557 89.6494 45.9837C89.6364 46.0617 89.6513 46.1257 89.6904 46.1777C89.7313 46.2297 89.7946 46.2597 89.884 46.2637Z" fill="#FFFCF9"/>
</g>
<g filter="url(#filter31_d_460_7)">
<path d="M95.8538 48.0157C95.7551 48.0157 95.6676 47.9577 95.5857 47.8397C95.5057 47.7217 95.4312 47.5697 95.3642 47.3857C95.2972 47.2017 95.2339 47.0057 95.1762 46.7957C95.1203 46.5857 95.0663 46.3897 95.0142 46.2057C94.9639 46.0217 94.9155 45.8697 94.869 45.7517C94.8225 45.6337 94.7741 45.5737 94.7238 45.5737C94.694 45.5737 94.6661 45.6217 94.64 45.7137C94.6158 45.8077 94.6028 45.9357 94.6028 46.0997C94.6028 46.2817 94.6084 46.4797 94.6177 46.6957C94.6288 46.9117 94.6419 47.1197 94.6586 47.3177C94.6772 47.5157 94.6921 47.6757 94.7033 47.7977C94.7126 47.8537 94.7014 47.8957 94.6717 47.9237C94.6419 47.9537 94.6065 47.9737 94.5637 47.9817C94.5302 47.9877 94.4892 47.9897 94.4408 47.9937C94.3924 47.9957 94.3533 47.9957 94.3235 47.9957C94.2937 47.9957 94.2565 47.9957 94.2156 47.9937C94.1727 47.9897 94.1281 47.9857 94.0815 47.9757C94.0443 47.9657 94.0108 47.9497 93.9829 47.9237C93.9549 47.8997 93.9419 47.8637 93.9419 47.8197C93.9419 47.3997 93.9438 46.9817 93.9475 46.5597C93.9531 46.1397 93.9586 45.7317 93.9642 45.3397C93.9698 44.9457 93.981 44.5777 93.9959 44.2377C94.0108 43.8957 94.0275 43.5997 94.0443 43.3497C94.048 43.2997 94.0592 43.2657 94.0778 43.2477C94.0983 43.2297 94.1262 43.2137 94.1634 43.1997C94.1932 43.1917 94.2249 43.1857 94.2602 43.1837C94.2937 43.1817 94.3235 43.1797 94.3477 43.1797C94.3738 43.1797 94.4017 43.1817 94.4334 43.1837C94.465 43.1857 94.5004 43.1917 94.5395 43.1997C94.627 43.2177 94.6921 43.2777 94.7294 43.3777C94.7666 43.5457 94.8131 43.7297 94.8653 43.9277C94.9193 44.1257 94.9751 44.3197 95.0347 44.5097C95.0943 44.7017 95.152 44.8757 95.2097 45.0357C95.2655 45.1937 95.3195 45.3217 95.3698 45.4177C95.4219 45.5137 95.4647 45.5617 95.4982 45.5617C95.5392 45.5617 95.569 45.5057 95.5839 45.3977C95.5988 45.2877 95.6043 45.1457 95.5988 44.9717C95.595 44.7957 95.5839 44.6077 95.5671 44.4077C95.5504 44.2077 95.5317 44.0177 95.5113 43.8377C95.4889 43.6577 95.4684 43.5097 95.4461 43.3917C95.4424 43.3377 95.4517 43.2957 95.4759 43.2657C95.4982 43.2357 95.5317 43.2137 95.5746 43.1997C95.6081 43.1917 95.6453 43.1857 95.6844 43.1837C95.7254 43.1817 95.7607 43.1797 95.7905 43.1797C95.8445 43.1797 95.9059 43.1877 95.9748 43.1997C96.0493 43.2177 96.0902 43.2657 96.094 43.3437C96.1331 43.8257 96.1573 44.3837 96.1684 45.0177C96.1777 45.6537 96.1815 46.3797 96.1777 47.1977C96.1777 47.7437 96.0698 48.0157 95.8538 48.0157Z" fill="#FFFCF9"/>
</g>
<g filter="url(#filter32_d_460_7)">
<path d="M99.2943 47.9957C99.257 47.9957 99.2161 47.9937 99.1751 47.9897C99.1323 47.9857 99.0951 47.9797 99.0671 47.9757C98.9815 47.9617 98.9461 47.9157 98.9592 47.8397C98.9927 47.4257 99.0392 47.0077 99.0988 46.5837C99.1565 46.1617 99.2235 45.7497 99.2943 45.3497C99.3669 44.9497 99.4451 44.5757 99.527 44.2277C99.6089 43.8797 99.6908 43.5757 99.7709 43.3157C99.7932 43.2537 99.8341 43.2137 99.8974 43.1997C99.9365 43.1917 99.9849 43.1857 100.045 43.1837C100.104 43.1817 100.151 43.1797 100.184 43.1797C100.218 43.1797 100.264 43.1817 100.32 43.1837C100.378 43.1857 100.428 43.1917 100.469 43.1997C100.532 43.2137 100.575 43.2537 100.597 43.3157C100.681 43.5757 100.763 43.8797 100.845 44.2277C100.925 44.5757 101.001 44.9497 101.072 45.3497C101.145 45.7497 101.21 46.1617 101.266 46.5837C101.323 47.0077 101.37 47.4257 101.404 47.8397C101.424 47.9157 101.39 47.9617 101.301 47.9757C101.271 47.9797 101.23 47.9857 101.175 47.9897C101.119 47.9937 101.08 47.9957 101.054 47.9957C101.024 47.9957 100.979 47.9937 100.921 47.9897C100.862 47.9857 100.815 47.9797 100.78 47.9757C100.713 47.9577 100.679 47.9197 100.679 47.8597C100.692 47.7137 100.694 47.5617 100.689 47.4017C100.683 47.2437 100.668 47.0897 100.648 46.9397C100.601 46.7837 100.484 46.7077 100.298 46.7077H100.063C99.97 46.7117 99.8956 46.7337 99.8379 46.7757C99.7802 46.8157 99.7411 46.8697 99.7206 46.9397C99.7001 47.0797 99.6852 47.2317 99.6759 47.3957C99.6666 47.5597 99.6703 47.7137 99.6815 47.8597C99.6871 47.8917 99.6778 47.9157 99.6573 47.9357C99.6349 47.9537 99.6107 47.9657 99.581 47.9757C99.5475 47.9797 99.5028 47.9857 99.4469 47.9897C99.3929 47.9937 99.3408 47.9957 99.2943 47.9957ZM100.126 46.2637H100.234C100.324 46.2597 100.389 46.2297 100.432 46.1777C100.475 46.1257 100.489 46.0617 100.476 45.9837C100.463 45.7557 100.441 45.5297 100.409 45.3017C100.378 45.0737 100.337 44.8277 100.285 44.5657C100.257 44.4337 100.221 44.3677 100.18 44.3677C100.141 44.3677 100.106 44.4337 100.076 44.5657C100.026 44.8277 99.9849 45.0737 99.9552 45.3017C99.9254 45.5297 99.9049 45.7557 99.8919 45.9837C99.8788 46.0617 99.8937 46.1257 99.9328 46.1777C99.9738 46.2297 100.037 46.2597 100.126 46.2637Z" fill="#FFFCF9"/>
</g>
<g filter="url(#filter33_d_460_7)">
<path d="M105.257 47.9957C105.163 47.9957 105.057 47.9957 104.936 47.9957C104.815 47.9957 104.7 47.9937 104.588 47.9897C104.475 47.9857 104.383 47.9797 104.311 47.9757C104.227 47.9657 104.184 47.9237 104.184 47.8457C104.184 47.4597 104.188 47.0577 104.194 46.6417C104.201 46.2257 104.207 45.8157 104.212 45.4117C104.22 45.0057 104.227 44.6237 104.238 44.2637C104.249 43.9057 104.261 43.5917 104.274 43.3237C104.274 43.2877 104.287 43.2577 104.311 43.2377C104.337 43.2177 104.365 43.2057 104.395 43.1997C104.458 43.1917 104.512 43.1857 104.557 43.1837C104.599 43.1817 104.644 43.1797 104.685 43.1797C104.715 43.1797 104.752 43.1817 104.797 43.1837C104.841 43.1857 104.88 43.1917 104.914 43.1997C104.947 43.2057 104.979 43.2177 105.007 43.2417C105.035 43.2637 105.044 43.2937 105.035 43.3297C104.968 43.8117 104.912 44.3077 104.869 44.8137C104.828 45.3217 104.808 45.8477 104.813 46.3937C104.817 46.7077 104.871 46.9317 104.975 47.0677C105.078 47.2057 105.221 47.2737 105.404 47.2737C105.59 47.2737 105.739 47.2317 105.849 47.1497C105.958 47.0677 106.051 46.9257 106.128 46.7197C106.152 46.6477 106.191 46.6157 106.241 46.6217C106.292 46.6277 106.32 46.6737 106.325 46.7537C106.329 46.7957 106.333 46.8677 106.336 46.9697C106.342 47.0717 106.346 47.1837 106.349 47.3077C106.353 47.4297 106.359 47.5417 106.362 47.6457C106.366 47.7477 106.368 47.8157 106.368 47.8537C106.368 47.9257 106.333 47.9657 106.26 47.9757C106.126 47.9857 105.962 47.9897 105.768 47.9937C105.577 47.9957 105.405 47.9957 105.257 47.9957Z" fill="#FFFCF9"/>
</g>
<g filter="url(#filter34_d_460_7)">
<path d="M110.222 47.9957C110.129 47.9957 110.023 47.9957 109.902 47.9957C109.781 47.9957 109.665 47.9937 109.554 47.9897C109.44 47.9857 109.349 47.9797 109.276 47.9757C109.193 47.9657 109.15 47.9237 109.15 47.8457C109.15 47.4597 109.154 47.0577 109.159 46.6417C109.167 46.2257 109.172 45.8157 109.178 45.4117C109.185 45.0057 109.193 44.6237 109.204 44.2637C109.215 43.9057 109.226 43.5917 109.239 43.3237C109.239 43.2877 109.252 43.2577 109.276 43.2377C109.302 43.2177 109.33 43.2057 109.36 43.1997C109.414 43.1917 109.492 43.1857 109.595 43.1837C109.695 43.1817 109.803 43.1797 109.919 43.1797C110.032 43.1797 110.133 43.1797 110.217 43.1797C110.356 43.1797 110.501 43.1817 110.652 43.1837C110.801 43.1857 110.939 43.1917 111.062 43.1997C111.138 43.2097 111.177 43.2497 111.183 43.3237C111.186 43.3557 111.19 43.4177 111.194 43.5117C111.199 43.6037 111.201 43.7037 111.203 43.8117C111.207 43.9177 111.209 44.0177 111.214 44.1077C111.218 44.1997 111.22 44.2597 111.22 44.2917C111.224 44.3697 111.201 44.4157 111.153 44.4277C111.105 44.4417 111.064 44.4117 111.03 44.3397C110.961 44.1937 110.87 44.0817 110.753 44.0017C110.637 43.9217 110.485 43.8817 110.298 43.8817C110.155 43.8817 110.032 43.9277 109.932 44.0157C109.829 44.1037 109.779 44.2377 109.779 44.4157V44.4957C109.779 44.6417 109.818 44.7597 109.896 44.8517C109.974 44.9417 110.082 44.9877 110.222 44.9877C110.317 44.9877 110.41 44.9837 110.505 44.9737C110.6 44.9657 110.691 44.9537 110.775 44.9397C110.809 44.9317 110.838 44.9397 110.864 44.9637C110.89 44.9897 110.902 45.0197 110.902 45.0557L110.909 45.6557C110.909 45.7337 110.887 45.7777 110.846 45.7857C110.803 45.7957 110.766 45.7697 110.73 45.7117C110.673 45.6297 110.594 45.5717 110.499 45.5397C110.405 45.5077 110.308 45.4957 110.211 45.4997C110.088 45.4997 109.986 45.5517 109.902 45.6557C109.82 45.7617 109.779 45.9277 109.779 46.1537V46.4417C109.779 46.7457 109.839 46.9597 109.956 47.0857C110.075 47.2097 110.213 47.2737 110.369 47.2737C110.559 47.2737 110.71 47.2317 110.82 47.1497C110.93 47.0677 111.024 46.9257 111.106 46.7197C111.127 46.6477 111.164 46.6157 111.216 46.6217C111.27 46.6277 111.298 46.6737 111.302 46.7537C111.307 46.7957 111.311 46.8677 111.315 46.9697C111.319 47.0717 111.324 47.1837 111.328 47.3077C111.332 47.4297 111.335 47.5417 111.337 47.6457C111.339 47.7477 111.341 47.8157 111.341 47.8537C111.341 47.9257 111.304 47.9657 111.233 47.9757C111.097 47.9857 110.931 47.9897 110.738 47.9937C110.542 47.9957 110.371 47.9957 110.222 47.9957Z" fill="#FFFCF9"/>
</g>
<g filter="url(#filter35_d_460_7)">
<path d="M115.196 48.0157C115.034 48.0157 114.86 47.9937 114.674 47.9477C114.488 47.9037 114.321 47.8377 114.173 47.7497C114.121 47.7137 114.097 47.6537 114.097 47.5657C114.097 47.4477 114.097 47.3317 114.099 47.2157C114.101 47.0997 114.103 46.9817 114.103 46.8637C114.103 46.7737 114.125 46.7217 114.173 46.7097C114.22 46.6997 114.259 46.7257 114.293 46.7897C114.412 46.9657 114.546 47.0917 114.697 47.1677C114.847 47.2417 114.998 47.2797 115.151 47.2797C115.32 47.2797 115.456 47.2337 115.557 47.1437C115.659 47.0517 115.709 46.9177 115.709 46.7417C115.709 46.5817 115.672 46.4417 115.598 46.3217C115.523 46.2017 115.428 46.0877 115.313 45.9837C115.196 45.8797 115.073 45.7737 114.94 45.6697C114.81 45.5657 114.685 45.4517 114.57 45.3297C114.453 45.2057 114.358 45.0657 114.283 44.9057C114.209 44.7477 114.173 44.5617 114.173 44.3537C114.173 44.1037 114.224 43.8897 114.328 43.7117C114.432 43.5357 114.572 43.3977 114.747 43.3037C114.924 43.2077 115.121 43.1597 115.341 43.1597C115.48 43.1597 115.62 43.1777 115.758 43.2137C115.894 43.2497 116.017 43.3057 116.123 43.3777C116.18 43.4277 116.21 43.4897 116.21 43.5617V44.2037C116.21 44.2857 116.188 44.3337 116.141 44.3457C116.095 44.3597 116.052 44.3357 116.015 44.2717C115.922 44.1397 115.819 44.0437 115.709 43.9857C115.6 43.9257 115.488 43.8957 115.372 43.8957C115.233 43.8957 115.106 43.9337 114.994 44.0097C114.883 44.0837 114.827 44.2017 114.827 44.3597C114.827 44.4917 114.864 44.6177 114.939 44.7357C115.011 44.8537 115.106 44.9677 115.223 45.0797C115.341 45.1917 115.465 45.3057 115.598 45.4237C115.732 45.5417 115.856 45.6677 115.972 45.7997C116.089 45.9317 116.184 46.0777 116.259 46.2397C116.333 46.4017 116.37 46.5817 116.37 46.7817C116.37 47.1637 116.262 47.4657 116.046 47.6857C115.83 47.9057 115.546 48.0157 115.196 48.0157Z" fill="#FFFCF9"/>
</g>
<g filter="url(#filter36_d_460_7)">
<path d="M163.504 31.1944H163.934C164.144 31.1944 164.314 31.1364 164.442 31.0184C164.571 30.9004 164.636 30.7504 164.636 30.5684C164.636 30.3564 164.578 30.2024 164.464 30.1104C164.351 30.0184 164.17 29.9724 163.925 29.9724H163.504V31.1944ZM165.226 30.5524C165.226 30.7784 165.17 30.9804 165.058 31.1544C164.945 31.3304 164.787 31.4604 164.584 31.5444L165.527 33.2284H164.861L164.04 31.7204H163.504V33.2284H162.917V29.4304H163.953C164.392 29.4304 164.714 29.5244 164.919 29.7084C165.123 29.8924 165.226 30.1744 165.226 30.5524ZM161.033 31.3284C161.033 30.7584 161.166 30.2264 161.43 29.7304C161.694 29.2324 162.057 28.8404 162.521 28.5524C162.984 28.2664 163.482 28.1224 164.016 28.1224C164.545 28.1224 165.042 28.2644 165.503 28.5484C165.967 28.8324 166.332 29.2244 166.598 29.7204C166.866 30.2184 167 30.7544 167 31.3284C167 31.8864 166.872 32.4124 166.615 32.9044C166.358 33.3964 165.998 33.7884 165.535 34.0844C165.073 34.3804 164.567 34.5284 164.016 34.5284C163.468 34.5284 162.964 34.3804 162.5 34.0864C162.039 33.7924 161.678 33.4004 161.421 32.9084C161.162 32.4164 161.033 31.8904 161.033 31.3284ZM161.45 31.3284C161.45 31.8184 161.566 32.2784 161.795 32.7064C162.026 33.1344 162.338 33.4704 162.737 33.7164C163.135 33.9624 163.562 34.0844 164.016 34.0844C164.476 34.0844 164.904 33.9604 165.297 33.7144C165.691 33.4664 166.004 33.1324 166.235 32.7104C166.468 32.2884 166.583 31.8284 166.583 31.3284C166.583 30.8324 166.468 30.3744 166.237 29.9504C166.008 29.5284 165.697 29.1924 165.304 28.9424C164.911 28.6944 164.481 28.5704 164.016 28.5704C163.556 28.5704 163.13 28.6944 162.735 28.9404C162.34 29.1884 162.028 29.5224 161.797 29.9444C161.566 30.3664 161.45 30.8284 161.45 31.3284Z" fill="#FFFCF9"/>
</g>
<defs>
<filter id="filter0_d_460_7" x="0" y="13.598" width="23.4377" height="24.656" filterUnits="userSpaceOnUse" color-interpolation-filters="sRGB">
<feFlood flood-opacity="0" result="BackgroundImageFix"/>
<feColorMatrix in="SourceAlpha" type="matrix" values="0 0 0 0 0 0 0 0 0 0 0 0 0 0 0 0 0 0 127 0" result="hardAlpha"/>
<feOffset dx="1" dy="1"/>
<feGaussianBlur stdDeviation="1.5"/>
<feComposite in2="hardAlpha" operator="out"/>
<feColorMatrix type="matrix" values="0 0 0 0 0.817791 0 0 0 0 0.645257 0 0 0 0 0.971154 0 0 0 1 0"/>
<feBlend mode="normal" in2="BackgroundImageFix" result="effect1_dropShadow_460_7"/>
<feBlend mode="normal" in="SourceGraphic" in2="effect1_dropShadow_460_7" result="shape"/>
</filter>
<filter id="filter1_d_460_7" x="17.3796" y="18.692" width="19.8983" height="19.562" filterUnits="userSpaceOnUse" color-interpolation-filters="sRGB">
<feFlood flood-opacity="0" result="BackgroundImageFix"/>
<feColorMatrix in="SourceAlpha" type="matrix" values="0 0 0 0 0 0 0 0 0 0 0 0 0 0 0 0 0 0 127 0" result="hardAlpha"/>
<feOffset dx="1" dy="1"/>
<feGaussianBlur stdDeviation="1.5"/>
<feComposite in2="hardAlpha" operator="out"/>
<feColorMatrix type="matrix" values="0 0 0 0 0.817791 0 0 0 0 0.645257 0 0 0 0 0.971154 0 0 0 1 0"/>
<feBlend mode="normal" in2="BackgroundImageFix" result="effect1_dropShadow_460_7"/>
<feBlend mode="normal" in="SourceGraphic" in2="effect1_dropShadow_460_7" result="shape"/>
</filter>
<filter id="filter2_d_460_7" x="31.3511" y="13.598" width="13.5582" height="24.656" filterUnits="userSpaceOnUse" color-interpolation-filters="sRGB">
<feFlood flood-opacity="0" result="BackgroundImageFix"/>
<feColorMatrix in="SourceAlpha" type="matrix" values="0 0 0 0 0 0 0 0 0 0 0 0 0 0 0 0 0 0 127 0" result="hardAlpha"/>
<feOffset dx="1" dy="1"/>
<feGaussianBlur stdDeviation="1.5"/>
<feComposite in2="hardAlpha" operator="out"/>
<feColorMatrix type="matrix" values="0 0 0 0 0.817791 0 0 0 0 0.645257 0 0 0 0 0.971154 0 0 0 1 0"/>
<feBlend mode="normal" in2="BackgroundImageFix" result="effect1_dropShadow_460_7"/>
<feBlend mode="normal" in="SourceGraphic" in2="effect1_dropShadow_460_7" result="shape"/>
</filter>
<filter id="filter3_d_460_7" x="39.0717" y="18.692" width="19.8031" height="19.562" filterUnits="userSpaceOnUse" color-interpolation-filters="sRGB">
<feFlood flood-opacity="0" result="BackgroundImageFix"/>
<feColorMatrix in="SourceAlpha" type="matrix" values="0 0 0 0 0 0 0 0 0 0 0 0 0 0 0 0 0 0 127 0" result="hardAlpha"/>
<feOffset dx="1" dy="1"/>
<feGaussianBlur stdDeviation="1.5"/>
<feComposite in2="hardAlpha" operator="out"/>
<feColorMatrix type="matrix" values="0 0 0 0 0.817791 0 0 0 0 0.645257 0 0 0 0 0.971154 0 0 0 1 0"/>
<feBlend mode="normal" in2="BackgroundImageFix" result="effect1_dropShadow_460_7"/>
<feBlend mode="normal" in="SourceGraphic" in2="effect1_dropShadow_460_7" result="shape"/>
</filter>
<filter id="filter4_d_460_7" x="52.8245" y="18.692" width="19.8983" height="19.562" filterUnits="userSpaceOnUse" color-interpolation-filters="sRGB">
<feFlood flood-opacity="0" result="BackgroundImageFix"/>
<feColorMatrix in="SourceAlpha" type="matrix" values="0 0 0 0 0 0 0 0 0 0 0 0 0 0 0 0 0 0 127 0" result="hardAlpha"/>
<feOffset dx="1" dy="1"/>
<feGaussianBlur stdDeviation="1.5"/>
<feComposite in2="hardAlpha" operator="out"/>
<feColorMatrix type="matrix" values="0 0 0 0 0.817791 0 0 0 0 0.645257 0 0 0 0 0.971154 0 0 0 1 0"/>
<feBlend mode="normal" in2="BackgroundImageFix" result="effect1_dropShadow_460_7"/>
<feBlend mode="normal" in="SourceGraphic" in2="effect1_dropShadow_460_7" result="shape"/>
</filter>
<filter id="filter5_d_460_7" x="71.8262" y="13.598" width="23.1075" height="24.656" filterUnits="userSpaceOnUse" color-interpolation-filters="sRGB">
<feFlood flood-opacity="0" result="BackgroundImageFix"/>
<feColorMatrix in="SourceAlpha" type="matrix" values="0 0 0 0 0 0 0 0 0 0 0 0 0 0 0 0 0 0 127 0" result="hardAlpha"/>
<feOffset dx="1" dy="1"/>
<feGaussianBlur stdDeviation="1.5"/>
<feComposite in2="hardAlpha" operator="out"/>
<feColorMatrix type="matrix" values="0 0 0 0 0.817791 0 0 0 0 0.645257 0 0 0 0 0.971154 0 0 0 1 0"/>
<feBlend mode="normal" in2="BackgroundImageFix" result="effect1_dropShadow_460_7"/>
<feBlend mode="normal" in="SourceGraphic" in2="effect1_dropShadow_460_7" result="shape"/>
</filter>
<filter id="filter6_d_460_7" x="88.9515" y="18.692" width="19.8983" height="19.562" filterUnits="userSpaceOnUse" color-interpolation-filters="sRGB">
<feFlood flood-opacity="0" result="BackgroundImageFix"/>
<feColorMatrix in="SourceAlpha" type="matrix" values="0 0 0 0 0 0 0 0 0 0 0 0 0 0 0 0 0 0 127 0" result="hardAlpha"/>
<feOffset dx="1" dy="1"/>
<feGaussianBlur stdDeviation="1.5"/>
<feComposite in2="hardAlpha" operator="out"/>
<feColorMatrix type="matrix" values="0 0 0 0 0.817791 0 0 0 0 0.645257 0 0 0 0 0.971154 0 0 0 1 0"/>
<feBlend mode="normal" in2="BackgroundImageFix" result="effect1_dropShadow_460_7"/>
<feBlend mode="normal" in="SourceGraphic" in2="effect1_dropShadow_460_7" result="shape"/>
</filter>
<filter id="filter7_d_460_7" x="102.923" y="18.692" width="22.7794" height="19.562" filterUnits="userSpaceOnUse" color-interpolation-filters="sRGB">
<feFlood flood-opacity="0" result="BackgroundImageFix"/>
<feColorMatrix in="SourceAlpha" type="matrix" values="0 0 0 0 0 0 0 0 0 0 0 0 0 0 0 0 0 0 127 0" result="hardAlpha"/>
<feOffset dx="1" dy="1"/>
<feGaussianBlur stdDeviation="1.5"/>
<feComposite in2="hardAlpha" operator="out"/>
<feColorMatrix type="matrix" values="0 0 0 0 0.817791 0 0 0 0 0.645257 0 0 0 0 0.971154 0 0 0 1 0"/>
<feBlend mode="normal" in2="BackgroundImageFix" result="effect1_dropShadow_460_7"/>
<feBlend mode="normal" in="SourceGraphic" in2="effect1_dropShadow_460_7" result="shape"/>
</filter>
<filter id="filter8_d_460_7" x="119.791" y="13.5544" width="21.3424" height="24.6995" filterUnits="userSpaceOnUse" color-interpolation-filters="sRGB">
<feFlood flood-opacity="0" result="BackgroundImageFix"/>
<feColorMatrix in="SourceAlpha" type="matrix" values="0 0 0 0 0 0 0 0 0 0 0 0 0 0 0 0 0 0 127 0" result="hardAlpha"/>
<feOffset dx="1" dy="1"/>
<feGaussianBlur stdDeviation="1.5"/>
<feComposite in2="hardAlpha" operator="out"/>
<feColorMatrix type="matrix" values="0 0 0 0 0.817791 0 0 0 0 0.645257 0 0 0 0 0.971154 0 0 0 1 0"/>
<feBlend mode="normal" in2="BackgroundImageFix" result="effect1_dropShadow_460_7"/>
<feBlend mode="normal" in="SourceGraphic" in2="effect1_dropShadow_460_7" result="shape"/>
</filter>
<filter id="filter9_d_460_7" x="135.332" y="13.5544" width="13.6947" height="24.6995" filterUnits="userSpaceOnUse" color-interpolation-filters="sRGB">
<feFlood flood-opacity="0" result="BackgroundImageFix"/>
<feColorMatrix in="SourceAlpha" type="matrix" values="0 0 0 0 0 0 0 0 0 0 0 0 0 0 0 0 0 0 127 0" result="hardAlpha"/>
<feOffset dx="1" dy="1"/>
<feGaussianBlur stdDeviation="1.5"/>
<feComposite in2="hardAlpha" operator="out"/>
<feColorMatrix type="matrix" values="0 0 0 0 0.817791 0 0 0 0 0.645257 0 0 0 0 0.971154 0 0 0 1 0"/>
<feBlend mode="normal" in2="BackgroundImageFix" result="effect1_dropShadow_460_7"/>
<feBlend mode="normal" in="SourceGraphic" in2="effect1_dropShadow_460_7" result="shape"/>
</filter>
<filter id="filter10_d_460_7" x="142.92" y="18.692" width="18.9226" height="19.562" filterUnits="userSpaceOnUse" color-interpolation-filters="sRGB">
<feFlood flood-opacity="0" result="BackgroundImageFix"/>
<feColorMatrix in="SourceAlpha" type="matrix" values="0 0 0 0 0 0 0 0 0 0 0 0 0 0 0 0 0 0 127 0" result="hardAlpha"/>
<feOffset dx="1" dy="1"/>
<feGaussianBlur stdDeviation="1.5"/>
<feComposite in2="hardAlpha" operator="out"/>
<feColorMatrix type="matrix" values="0 0 0 0 0.817791 0 0 0 0 0.645257 0 0 0 0 0.971154 0 0 0 1 0"/>
<feBlend mode="normal" in2="BackgroundImageFix" result="effect1_dropShadow_460_7"/>
<feBlend mode="normal" in="SourceGraphic" in2="effect1_dropShadow_460_7" result="shape"/>
</filter>
<filter id="filter11_d_460_7" x="5.06726" y="37.978" width="13.5062" height="14.064" filterUnits="userSpaceOnUse" color-interpolation-filters="sRGB">
<feFlood flood-opacity="0" result="BackgroundImageFix"/>
<feColorMatrix in="SourceAlpha" type="matrix" values="0 0 0 0 0 0 0 0 0 0 0 0 0 0 0 0 0 0 127 0" result="hardAlpha"/>
<feOffset dx="1" dy="1"/>
<feGaussianBlur stdDeviation="1.5"/>
<feComposite in2="hardAlpha" operator="out"/>
<feColorMatrix type="matrix" values="0 0 0 0 0.817791 0 0 0 0 0.645257 0 0 0 0 0.971154 0 0 0 1 0"/>
<feBlend mode="normal" in2="BackgroundImageFix" result="effect1_dropShadow_460_7"/>
<feBlend mode="normal" in="SourceGraphic" in2="effect1_dropShadow_460_7" result="shape"/>
</filter>
<filter id="filter12_d_460_7" x="12.6777" y="42.0662" width="11.2555" height="11.646" filterUnits="userSpaceOnUse" color-interpolation-filters="sRGB">
<feFlood flood-opacity="0" result="BackgroundImageFix"/>
<feColorMatrix in="SourceAlpha" type="matrix" values="0 0 0 0 0 0 0 0 0 0 0 0 0 0 0 0 0 0 127 0" result="hardAlpha"/>
<feOffset dx="1" dy="1"/>
<feGaussianBlur stdDeviation="1.5"/>
<feComposite in2="hardAlpha" operator="out"/>
<feColorMatrix type="matrix" values="0 0 0 0 0.817791 0 0 0 0 0.645257 0 0 0 0 0.971154 0 0 0 1 0"/>
<feBlend mode="normal" in2="BackgroundImageFix" result="effect1_dropShadow_460_7"/>
<feBlend mode="normal" in="SourceGraphic" in2="effect1_dropShadow_460_7" result="shape"/>
</filter>
<filter id="filter13_d_460_7" x="14.558" y="0" width="13.8636" height="14.448" filterUnits="userSpaceOnUse" color-interpolation-filters="sRGB">
<feFlood flood-opacity="0" result="BackgroundImageFix"/>
<feColorMatrix in="SourceAlpha" type="matrix" values="0 0 0 0 0 0 0 0 0 0 0 0 0 0 0 0 0 0 127 0" result="hardAlpha"/>
<feOffset dx="1" dy="1"/>
<feGaussianBlur stdDeviation="1.5"/>
<feComposite in2="hardAlpha" operator="out"/>
<feColorMatrix type="matrix" values="0 0 0 0 0.817791 0 0 0 0 0.645257 0 0 0 0 0.971154 0 0 0 1 0"/>
<feBlend mode="normal" in2="BackgroundImageFix" result="effect1_dropShadow_460_7"/>
<feBlend mode="normal" in="SourceGraphic" in2="effect1_dropShadow_460_7" result="shape"/>
</filter>
<filter id="filter14_d_460_7" x="118.576" y="8.07397" width="9.93176" height="10.224" filterUnits="userSpaceOnUse" color-interpolation-filters="sRGB">
<feFlood flood-opacity="0" result="BackgroundImageFix"/>
<feColorMatrix in="SourceAlpha" type="matrix" values="0 0 0 0 0 0 0 0 0 0 0 0 0 0 0 0 0 0 127 0" result="hardAlpha"/>
<feOffset dx="1" dy="1"/>
<feGaussianBlur stdDeviation="1.5"/>
<feComposite in2="hardAlpha" operator="out"/>
<feColorMatrix type="matrix" values="0 0 0 0 0.817791 0 0 0 0 0.645257 0 0 0 0 0.971154 0 0 0 1 0"/>
<feBlend mode="normal" in2="BackgroundImageFix" result="effect1_dropShadow_460_7"/>
<feBlend mode="normal" in="SourceGraphic" in2="effect1_dropShadow_460_7" result="shape"/>
</filter>
<filter id="filter15_d_460_7" x="62.3745" y="3.80798" width="13.8636" height="14.448" filterUnits="userSpaceOnUse" color-interpolation-filters="sRGB">
<feFlood flood-opacity="0" result="BackgroundImageFix"/>
<feColorMatrix in="SourceAlpha" type="matrix" values="0 0 0 0 0 0 0 0 0 0 0 0 0 0 0 0 0 0 127 0" result="hardAlpha"/>
<feOffset dx="1" dy="1"/>
<feGaussianBlur stdDeviation="1.5"/>
<feComposite in2="hardAlpha" operator="out"/>
<feColorMatrix type="matrix" values="0 0 0 0 0.817791 0 0 0 0 0.645257 0 0 0 0 0.971154 0 0 0 1 0"/>
<feBlend mode="normal" in2="BackgroundImageFix" result="effect1_dropShadow_460_7"/>
<feBlend mode="normal" in="SourceGraphic" in2="effect1_dropShadow_460_7" result="shape"/>
</filter>
<filter id="filter16_d_460_7" x="149.539" y="39.046" width="10.2222" height="10.536" filterUnits="userSpaceOnUse" color-interpolation-filters="sRGB">
<feFlood flood-opacity="0" result="BackgroundImageFix"/>
<feColorMatrix in="SourceAlpha" type="matrix" values="0 0 0 0 0 0 0 0 0 0 0 0 0 0 0 0 0 0 127 0" result="hardAlpha"/>
<feOffset dx="1" dy="1"/>
<feGaussianBlur stdDeviation="1.5"/>
<feComposite in2="hardAlpha" operator="out"/>
<feColorMatrix type="matrix" values="0 0 0 0 0.817791 0 0 0 0 0.645257 0 0 0 0 0.971154 0 0 0 1 0"/>
<feBlend mode="normal" in2="BackgroundImageFix" result="effect1_dropShadow_460_7"/>
<feBlend mode="normal" in="SourceGraphic" in2="effect1_dropShadow_460_7" result="shape"/>
</filter>
<filter id="filter17_d_460_7" x="152.194" y="5.72607" width="11.2275" height="11.616" filterUnits="userSpaceOnUse" color-interpolation-filters="sRGB">
<feFlood flood-opacity="0" result="BackgroundImageFix"/>
<feColorMatrix in="SourceAlpha" type="matrix" values="0 0 0 0 0 0 0 0 0 0 0 0 0 0 0 0 0 0 127 0" result="hardAlpha"/>
<feOffset dx="1" dy="1"/>
<feGaussianBlur stdDeviation="1.5"/>
<feComposite in2="hardAlpha" operator="out"/>
<feColorMatrix type="matrix" values="0 0 0 0 0.817791 0 0 0 0 0.645257 0 0 0 0 0.971154 0 0 0 1 0"/>
<feBlend mode="normal" in2="BackgroundImageFix" result="effect1_dropShadow_460_7"/>
<feBlend mode="normal" in="SourceGraphic" in2="effect1_dropShadow_460_7" result="shape"/>
</filter>
<filter id="filter18_d_460_7" x="155.824" y="9.71399" width="12.3892" height="12.864" filterUnits="userSpaceOnUse" color-interpolation-filters="sRGB">
<feFlood flood-opacity="0" result="BackgroundImageFix"/>
<feColorMatrix in="SourceAlpha" type="matrix" values="0 0 0 0 0 0 0 0 0 0 0 0 0 0 0 0 0 0 127 0" result="hardAlpha"/>
<feOffset dx="1" dy="1"/>
<feGaussianBlur stdDeviation="1.5"/>
<feComposite in2="hardAlpha" operator="out"/>
<feColorMatrix type="matrix" values="0 0 0 0 0.817791 0 0 0 0 0.645257 0 0 0 0 0.971154 0 0 0 1 0"/>
<feBlend mode="normal" in2="BackgroundImageFix" result="effect1_dropShadow_460_7"/>
<feBlend mode="normal" in="SourceGraphic" in2="effect1_dropShadow_460_7" result="shape"/>
</filter>
<filter id="filter19_d_460_7" x="125.698" y="40.248" width="12.0764" height="12.528" filterUnits="userSpaceOnUse" color-interpolation-filters="sRGB">
<feFlood flood-opacity="0" result="BackgroundImageFix"/>
<feColorMatrix in="SourceAlpha" type="matrix" values="0 0 0 0 0 0 0 0 0 0 0 0 0 0 0 0 0 0 127 0" result="hardAlpha"/>
<feOffset dx="1" dy="1"/>
<feGaussianBlur stdDeviation="1.5"/>
<feComposite in2="hardAlpha" operator="out"/>
<feColorMatrix type="matrix" values="0 0 0 0 0.817791 0 0 0 0 0.645257 0 0 0 0 0.971154 0 0 0 1 0"/>
<feBlend mode="normal" in2="BackgroundImageFix" result="effect1_dropShadow_460_7"/>
<feBlend mode="normal" in="SourceGraphic" in2="effect1_dropShadow_460_7" result="shape"/>
</filter>
<filter id="filter20_d_460_7" x="32.4412" y="41.1797" width="8.34741" height="10.816" filterUnits="userSpaceOnUse" color-interpolation-filters="sRGB">
<feFlood flood-opacity="0" result="BackgroundImageFix"/>
<feColorMatrix in="SourceAlpha" type="matrix" values="0 0 0 0 0 0 0 0 0 0 0 0 0 0 0 0 0 0 127 0" result="hardAlpha"/>
<feOffset dx="1" dy="1"/>
<feGaussianBlur stdDeviation="1.5"/>
<feComposite in2="hardAlpha" operator="out"/>
<feColorMatrix type="matrix" values="0 0 0 0 0.817791 0 0 0 0 0.645257 0 0 0 0 0.971154 0 0 0 1 0"/>
<feBlend mode="normal" in2="BackgroundImageFix" result="effect1_dropShadow_460_7"/>
<feBlend mode="normal" in="SourceGraphic" in2="effect1_dropShadow_460_7" result="shape"/>
</filter>
<filter id="filter21_d_460_7" x="37.568" y="41.1797" width="8.19116" height="10.816" filterUnits="userSpaceOnUse" color-interpolation-filters="sRGB">
<feFlood flood-opacity="0" result="BackgroundImageFix"/>
<feColorMatrix in="SourceAlpha" type="matrix" values="0 0 0 0 0 0 0 0 0 0 0 0 0 0 0 0 0 0 127 0" result="hardAlpha"/>
<feOffset dx="1" dy="1"/>
<feGaussianBlur stdDeviation="1.5"/>
<feComposite in2="hardAlpha" operator="out"/>
<feColorMatrix type="matrix" values="0 0 0 0 0.817791 0 0 0 0 0.645257 0 0 0 0 0.971154 0 0 0 1 0"/>
<feBlend mode="normal" in2="BackgroundImageFix" result="effect1_dropShadow_460_7"/>
<feBlend mode="normal" in="SourceGraphic" in2="effect1_dropShadow_460_7" result="shape"/>
</filter>
<filter id="filter22_d_460_7" x="42.5526" y="41.1797" width="8.18372" height="10.816" filterUnits="userSpaceOnUse" color-interpolation-filters="sRGB">
<feFlood flood-opacity="0" result="BackgroundImageFix"/>
<feColorMatrix in="SourceAlpha" type="matrix" values="0 0 0 0 0 0 0 0 0 0 0 0 0 0 0 0 0 0 127 0" result="hardAlpha"/>
<feOffset dx="1" dy="1"/>
<feGaussianBlur stdDeviation="1.5"/>
<feComposite in2="hardAlpha" operator="out"/>
<feColorMatrix type="matrix" values="0 0 0 0 0.817791 0 0 0 0 0.645257 0 0 0 0 0.971154 0 0 0 1 0"/>
<feBlend mode="normal" in2="BackgroundImageFix" result="effect1_dropShadow_460_7"/>
<feBlend mode="normal" in="SourceGraphic" in2="effect1_dropShadow_460_7" result="shape"/>
</filter>
<filter id="filter23_d_460_7" x="47.4784" y="41.1797" width="8.45276" height="10.816" filterUnits="userSpaceOnUse" color-interpolation-filters="sRGB">
<feFlood flood-opacity="0" result="BackgroundImageFix"/>
<feColorMatrix in="SourceAlpha" type="matrix" values="0 0 0 0 0 0 0 0 0 0 0 0 0 0 0 0 0 0 127 0" result="hardAlpha"/>
<feOffset dx="1" dy="1"/>
<feGaussianBlur stdDeviation="1.5"/>
<feComposite in2="hardAlpha" operator="out"/>
<feColorMatrix type="matrix" values="0 0 0 0 0.817791 0 0 0 0 0.645257 0 0 0 0 0.971154 0 0 0 1 0"/>
<feBlend mode="normal" in2="BackgroundImageFix" result="effect1_dropShadow_460_7"/>
<feBlend mode="normal" in="SourceGraphic" in2="effect1_dropShadow_460_7" result="shape"/>
</filter>
<filter id="filter24_d_460_7" x="52.6688" y="41.1597" width="8.27307" height="10.856" filterUnits="userSpaceOnUse" color-interpolation-filters="sRGB">
<feFlood flood-opacity="0" result="BackgroundImageFix"/>
<feColorMatrix in="SourceAlpha" type="matrix" values="0 0 0 0 0 0 0 0 0 0 0 0 0 0 0 0 0 0 127 0" result="hardAlpha"/>
<feOffset dx="1" dy="1"/>
<feGaussianBlur stdDeviation="1.5"/>
<feComposite in2="hardAlpha" operator="out"/>
<feColorMatrix type="matrix" values="0 0 0 0 0.817791 0 0 0 0 0.645257 0 0 0 0 0.971154 0 0 0 1 0"/>
<feBlend mode="normal" in2="BackgroundImageFix" result="effect1_dropShadow_460_7"/>
<feBlend mode="normal" in="SourceGraphic" in2="effect1_dropShadow_460_7" result="shape"/>
</filter>
<filter id="filter25_d_460_7" x="61.4672" y="41.1797" width="8.45276" height="10.816" filterUnits="userSpaceOnUse" color-interpolation-filters="sRGB">
<feFlood flood-opacity="0" result="BackgroundImageFix"/>
<feColorMatrix in="SourceAlpha" type="matrix" values="0 0 0 0 0 0 0 0 0 0 0 0 0 0 0 0 0 0 127 0" result="hardAlpha"/>
<feOffset dx="1" dy="1"/>
<feGaussianBlur stdDeviation="1.5"/>
<feComposite in2="hardAlpha" operator="out"/>
<feColorMatrix type="matrix" values="0 0 0 0 0.817791 0 0 0 0 0.645257 0 0 0 0 0.971154 0 0 0 1 0"/>
<feBlend mode="normal" in2="BackgroundImageFix" result="effect1_dropShadow_460_7"/>
<feBlend mode="normal" in="SourceGraphic" in2="effect1_dropShadow_460_7" result="shape"/>
</filter>
<filter id="filter26_d_460_7" x="66.6948" y="41.1658" width="8.24146" height="10.83" filterUnits="userSpaceOnUse" color-interpolation-filters="sRGB">
<feFlood flood-opacity="0" result="BackgroundImageFix"/>
<feColorMatrix in="SourceAlpha" type="matrix" values="0 0 0 0 0 0 0 0 0 0 0 0 0 0 0 0 0 0 127 0" result="hardAlpha"/>
<feOffset dx="1" dy="1"/>
<feGaussianBlur stdDeviation="1.5"/>
<feComposite in2="hardAlpha" operator="out"/>
<feColorMatrix type="matrix" values="0 0 0 0 0.817791 0 0 0 0 0.645257 0 0 0 0 0.971154 0 0 0 1 0"/>
<feBlend mode="normal" in2="BackgroundImageFix" result="effect1_dropShadow_460_7"/>
<feBlend mode="normal" in="SourceGraphic" in2="effect1_dropShadow_460_7" result="shape"/>
</filter>
<filter id="filter27_d_460_7" x="71.6868" y="41.1797" width="8.3103" height="10.816" filterUnits="userSpaceOnUse" color-interpolation-filters="sRGB">
<feFlood flood-opacity="0" result="BackgroundImageFix"/>
<feColorMatrix in="SourceAlpha" type="matrix" values="0 0 0 0 0 0 0 0 0 0 0 0 0 0 0 0 0 0 127 0" result="hardAlpha"/>
<feOffset dx="1" dy="1"/>
<feGaussianBlur stdDeviation="1.5"/>
<feComposite in2="hardAlpha" operator="out"/>
<feColorMatrix type="matrix" values="0 0 0 0 0.817791 0 0 0 0 0.645257 0 0 0 0 0.971154 0 0 0 1 0"/>
<feBlend mode="normal" in2="BackgroundImageFix" result="effect1_dropShadow_460_7"/>
<feBlend mode="normal" in="SourceGraphic" in2="effect1_dropShadow_460_7" result="shape"/>
</filter>
<filter id="filter28_d_460_7" x="76.7467" y="41.1797" width="8.19116" height="10.816" filterUnits="userSpaceOnUse" color-interpolation-filters="sRGB">
<feFlood flood-opacity="0" result="BackgroundImageFix"/>
<feColorMatrix in="SourceAlpha" type="matrix" values="0 0 0 0 0 0 0 0 0 0 0 0 0 0 0 0 0 0 127 0" result="hardAlpha"/>
<feOffset dx="1" dy="1"/>
<feGaussianBlur stdDeviation="1.5"/>
<feComposite in2="hardAlpha" operator="out"/>
<feColorMatrix type="matrix" values="0 0 0 0 0.817791 0 0 0 0 0.645257 0 0 0 0 0.971154 0 0 0 1 0"/>
<feBlend mode="normal" in2="BackgroundImageFix" result="effect1_dropShadow_460_7"/>
<feBlend mode="normal" in="SourceGraphic" in2="effect1_dropShadow_460_7" result="shape"/>
</filter>
<filter id="filter29_d_460_7" x="81.6941" y="41.1597" width="8.27307" height="10.856" filterUnits="userSpaceOnUse" color-interpolation-filters="sRGB">
<feFlood flood-opacity="0" result="BackgroundImageFix"/>
<feColorMatrix in="SourceAlpha" type="matrix" values="0 0 0 0 0 0 0 0 0 0 0 0 0 0 0 0 0 0 127 0" result="hardAlpha"/>
<feOffset dx="1" dy="1"/>
<feGaussianBlur stdDeviation="1.5"/>
<feComposite in2="hardAlpha" operator="out"/>
<feColorMatrix type="matrix" values="0 0 0 0 0.817791 0 0 0 0 0.645257 0 0 0 0 0.971154 0 0 0 1 0"/>
<feBlend mode="normal" in2="BackgroundImageFix" result="effect1_dropShadow_460_7"/>
<feBlend mode="normal" in="SourceGraphic" in2="effect1_dropShadow_460_7" result="shape"/>
</filter>
<filter id="filter30_d_460_7" x="86.7141" y="41.1797" width="8.45276" height="10.816" filterUnits="userSpaceOnUse" color-interpolation-filters="sRGB">
<feFlood flood-opacity="0" result="BackgroundImageFix"/>
<feColorMatrix in="SourceAlpha" type="matrix" values="0 0 0 0 0 0 0 0 0 0 0 0 0 0 0 0 0 0 127 0" result="hardAlpha"/>
<feOffset dx="1" dy="1"/>
<feGaussianBlur stdDeviation="1.5"/>
<feComposite in2="hardAlpha" operator="out"/>
<feColorMatrix type="matrix" values="0 0 0 0 0.817791 0 0 0 0 0.645257 0 0 0 0 0.971154 0 0 0 1 0"/>
<feBlend mode="normal" in2="BackgroundImageFix" result="effect1_dropShadow_460_7"/>
<feBlend mode="normal" in="SourceGraphic" in2="effect1_dropShadow_460_7" result="shape"/>
</filter>
<filter id="filter31_d_460_7" x="91.9419" y="41.1797" width="8.2373" height="10.8361" filterUnits="userSpaceOnUse" color-interpolation-filters="sRGB">
<feFlood flood-opacity="0" result="BackgroundImageFix"/>
<feColorMatrix in="SourceAlpha" type="matrix" values="0 0 0 0 0 0 0 0 0 0 0 0 0 0 0 0 0 0 127 0" result="hardAlpha"/>
<feOffset dx="1" dy="1"/>
<feGaussianBlur stdDeviation="1.5"/>
<feComposite in2="hardAlpha" operator="out"/>
<feColorMatrix type="matrix" values="0 0 0 0 0.817791 0 0 0 0 0.645257 0 0 0 0 0.971154 0 0 0 1 0"/>
<feBlend mode="normal" in2="BackgroundImageFix" result="effect1_dropShadow_460_7"/>
<feBlend mode="normal" in="SourceGraphic" in2="effect1_dropShadow_460_7" result="shape"/>
</filter>
<filter id="filter32_d_460_7" x="96.9565" y="41.1797" width="8.45276" height="10.816" filterUnits="userSpaceOnUse" color-interpolation-filters="sRGB">
<feFlood flood-opacity="0" result="BackgroundImageFix"/>
<feColorMatrix in="SourceAlpha" type="matrix" values="0 0 0 0 0 0 0 0 0 0 0 0 0 0 0 0 0 0 127 0" result="hardAlpha"/>
<feOffset dx="1" dy="1"/>
<feGaussianBlur stdDeviation="1.5"/>
<feComposite in2="hardAlpha" operator="out"/>
<feColorMatrix type="matrix" values="0 0 0 0 0.817791 0 0 0 0 0.645257 0 0 0 0 0.971154 0 0 0 1 0"/>
<feBlend mode="normal" in2="BackgroundImageFix" result="effect1_dropShadow_460_7"/>
<feBlend mode="normal" in="SourceGraphic" in2="effect1_dropShadow_460_7" result="shape"/>
</filter>
<filter id="filter33_d_460_7" x="102.184" y="41.1797" width="8.18372" height="10.816" filterUnits="userSpaceOnUse" color-interpolation-filters="sRGB">
<feFlood flood-opacity="0" result="BackgroundImageFix"/>
<feColorMatrix in="SourceAlpha" type="matrix" values="0 0 0 0 0 0 0 0 0 0 0 0 0 0 0 0 0 0 127 0" result="hardAlpha"/>
<feOffset dx="1" dy="1"/>
<feGaussianBlur stdDeviation="1.5"/>
<feComposite in2="hardAlpha" operator="out"/>
<feColorMatrix type="matrix" values="0 0 0 0 0.817791 0 0 0 0 0.645257 0 0 0 0 0.971154 0 0 0 1 0"/>
<feBlend mode="normal" in2="BackgroundImageFix" result="effect1_dropShadow_460_7"/>
<feBlend mode="normal" in="SourceGraphic" in2="effect1_dropShadow_460_7" result="shape"/>
</filter>
<filter id="filter34_d_460_7" x="107.15" y="41.1797" width="8.19116" height="10.816" filterUnits="userSpaceOnUse" color-interpolation-filters="sRGB">
<feFlood flood-opacity="0" result="BackgroundImageFix"/>
<feColorMatrix in="SourceAlpha" type="matrix" values="0 0 0 0 0 0 0 0 0 0 0 0 0 0 0 0 0 0 127 0" result="hardAlpha"/>
<feOffset dx="1" dy="1"/>
<feGaussianBlur stdDeviation="1.5"/>
<feComposite in2="hardAlpha" operator="out"/>
<feColorMatrix type="matrix" values="0 0 0 0 0.817791 0 0 0 0 0.645257 0 0 0 0 0.971154 0 0 0 1 0"/>
<feBlend mode="normal" in2="BackgroundImageFix" result="effect1_dropShadow_460_7"/>
<feBlend mode="normal" in="SourceGraphic" in2="effect1_dropShadow_460_7" result="shape"/>
</filter>
<filter id="filter35_d_460_7" x="112.097" y="41.1597" width="8.27307" height="10.856" filterUnits="userSpaceOnUse" color-interpolation-filters="sRGB">
<feFlood flood-opacity="0" result="BackgroundImageFix"/>
<feColorMatrix in="SourceAlpha" type="matrix" values="0 0 0 0 0 0 0 0 0 0 0 0 0 0 0 0 0 0 127 0" result="hardAlpha"/>
<feOffset dx="1" dy="1"/>
<feGaussianBlur stdDeviation="1.5"/>
<feComposite in2="hardAlpha" operator="out"/>
<feColorMatrix type="matrix" values="0 0 0 0 0.817791 0 0 0 0 0.645257 0 0 0 0 0.971154 0 0 0 1 0"/>
<feBlend mode="normal" in2="BackgroundImageFix" result="effect1_dropShadow_460_7"/>
<feBlend mode="normal" in="SourceGraphic" in2="effect1_dropShadow_460_7" result="shape"/>
</filter>
<filter id="filter36_d_460_7" x="159.033" y="26.1224" width="11.9666" height="12.406" filterUnits="userSpaceOnUse" color-interpolation-filters="sRGB">
<feFlood flood-opacity="0" result="BackgroundImageFix"/>
<feColorMatrix in="SourceAlpha" type="matrix" values="0 0 0 0 0 0 0 0 0 0 0 0 0 0 0 0 0 0 127 0" result="hardAlpha"/>
<feOffset dx="1" dy="1"/>
<feGaussianBlur stdDeviation="1.5"/>
<feComposite in2="hardAlpha" operator="out"/>
<feColorMatrix type="matrix" values="0 0 0 0 0.817791 0 0 0 0 0.645257 0 0 0 0 0.971154 0 0 0 1 0"/>
<feBlend mode="normal" in2="BackgroundImageFix" result="effect1_dropShadow_460_7"/>
<feBlend mode="normal" in="SourceGraphic" in2="effect1_dropShadow_460_7" result="shape"/>
</filter>
</defs>
</svg>
